0
SECTION
2
HEADER
9
$INSUNITS
70
4
9
$ACADVER
1
AC1014
9
$HANDSEED
5
FFFF
0
ENDSEC
0
SECTION
2
TABLES
0
TABLE
2
VPORT
5
8
100
AcDbSymbolTable
0
ENDTAB
0
TABLE
2
LTYPE
5
5
100
AcDbSymbolTable
0
LTYPE
5
14
100
AcDbSymbolTableRecord
100
AcDbLinetypeTableRecord
2
BYBLOCK
70
0
0
LTYPE
5
15
100
AcDbSymbolTableRecord
100
AcDbLinetypeTableRecord
2
BYLAYER
70
0
0
ENDTAB
0
TABLE
2
LAYER
5
2
100
AcDbSymbolTable
70
2
0
LAYER
5
50
100
AcDbSymbolTableRecord
100
AcDbLayerTableRecord
2
0
70
0
6
CONTINUOUS
0
ENDTAB
0
TABLE
2
STYLE
5
3
100
AcDbSymbolTable
70
1
0
STYLE
5
11
100
AcDbSymbolTableRecord
100
AcDbTextStyleTableRecord
2
STANDARD
70
0
0
ENDTAB
0
TABLE
2
VIEW
5
6
100
AcDbSymbolTable
70
0
0
ENDTAB
0
TABLE
2
UCS
5
7
100
AcDbSymbolTable
70
0
0
ENDTAB
0
TABLE
2
APPID
5
9
100
AcDbSymbolTable
70
2
0
APPID
5
12
100
AcDbSymbolTableRecord
100
AcDbRegAppTableRecord
2
ACAD
70
0
0
ENDTAB
0
TABLE
2
DIMSTYLE
5
A
100
AcDbSymbolTable
70
1
0
ENDTAB
0
TABLE
2
BLOCK_RECORD
5
1
100
AcDbSymbolTable
70
1
0
BLOCK_RECORD
5
1F
100
AcDbSymbolTableRecord
100
AcDbBlockTableRecord
2
*MODEL_SPACE
0
BLOCK_RECORD
5
1B
100
AcDbSymbolTableRecord
100
AcDbBlockTableRecord
2
*PAPER_SPACE
0
ENDTAB
0
ENDSEC
0
SECTION
2
BLOCKS
0
BLOCK
5
20
100
AcDbEntity
100
AcDbBlockBegin
2
*MODEL_SPACE
0
ENDBLK
5
21
100
AcDbEntity
100
AcDbBlockEnd
0
BLOCK
5
1C
100
AcDbEntity
100
AcDbBlockBegin
2
*PAPER_SPACE
0
ENDBLK
5
1D
100
AcDbEntity
100
AcDbBlockEnd
0
ENDSEC
0
SECTION
2
ENTITIES
0
LWPOLYLINE
5
100
100
AcDbEntity
8
0
100
AcDbPolyline
90
32
70
1
43
0.0
10
133.35000000000002
20
153.64375000000001
10
133.34999999999997
20
219.07499999999999
42
-0.41421356237309503
10
135.73124999999999
20
221.45625000000001
42
0.41421356237309503
10
138.11250000000001
20
223.83750000000003
42
-0.41421356237309503
10
140.49375000000001
20
226.21875000000003
10
195.26250000000002
20
226.21875000000003
42
-0.41421356237309503
10
197.64375000000001
20
223.83750000000003
42
0.99999999999999989
10
202.40625
20
223.83750000000003
42
-0.41421356237309503
10
204.78750000000002
20
226.21875000000003
10
352.42500000000001
20
226.21875000000006
42
-0.41421356237309503
10
354.80625000000003
20
223.83750000000003
42
0.99999999999999989
10
359.56874999999997
20
223.83750000000003
42
-0.41421356237309503
10
361.94999999999999
20
226.21875000000003
10
416.71875
20
226.21875000000006
42
-0.41421356237309503
10
419.10000000000002
20
223.83750000000003
42
0.41421356237309503
10
421.48124999999999
20
221.45625000000001
42
-0.41421356237309503
10
423.86250000000007
20
219.07499999999999
10
423.86250000000007
20
153.64375000000001
42
-0.41421356237309503
10
421.48124999999999
20
151.26250000000002
42
0.41421356237309503
10
419.09999999999997
20
148.88124999999999
42
-0.41421356237309503
10
416.71875
20
146.5
10
340.51875000000001
20
146.49999999999997
42
-0.41421356237309503
10
338.13749999999999
20
148.88124999999999
42
0.99999999999999989
10
333.37500000000006
20
148.88124999999999
42
-0.41421356237309503
10
330.99375000000003
20
146.5
10
245.26875000000004
20
146.49999999999997
42
-0.41421356237309503
10
242.88749999999999
20
148.88124999999999
42
0.99999999999999989
10
238.12500000000003
20
148.88124999999999
42
-0.41421356237309503
10
235.74375000000003
20
146.5
10
140.49375000000001
20
146.5
42
-0.41421356237309503
10
138.11249999999998
20
148.88124999999999
42
0.41421356237309503
10
135.73124999999999
20
151.26250000000005
42
-0.41421356237309503
0
ARC
5
101
100
AcDbEntity
8
0
100
AcDbCircle
10
171.76750000000001
20
195.26250000000002
30
0
40
0.87499999999998423
210
0
220
0
230
1
100
AcDbArc
50
-111.27576697526493
51
111.27576697763895
0
ARC
5
102
100
AcDbEntity
8
0
100
AcDbCircle
10
171.13249999999999
20
195.26250000000002
30
0
40
0.87499999997850497
210
0
220
-0
230
1
100
AcDbArc
50
68.724233025973476
51
291.27576697577655
0
LWPOLYLINE
5
103
100
AcDbEntity
8
0
100
AcDbPolyline
90
2
70
1
43
0.0
10
189.9283384366677
20
213.47522650831496
42
-4.5427073407269045
10
189.9283384366797
20
215.14977349168873
42
-1.348617356963425
0
LWPOLYLINE
5
104
100
AcDbEntity
8
0
100
AcDbPolyline
90
6
70
1
43
0.0
10
171.01284703982603
20
213.86964120790088
42
-0.54200742297207494
10
167.87812500000695
20
212.71310970386889
42
-0.54200742297834803
10
164.74340296015481
20
213.86964120791214
42
-3.679847819268216
10
164.74340296015703
20
214.75535879202505
42
-0.54200742299149463
10
167.87812500000314
20
215.91189029613869
42
-0.5420074229921289
10
171.01284703979013
20
214.7553587920379
42
-3.6798478192164774
0
LWPOLYLINE
5
105
100
AcDbEntity
8
0
100
AcDbPolyline
90
2
70
1
43
0.0
10
386.33416156329253
20
215.14977349159892
42
-4.5427073407496765
10
386.33416156330452
20
213.47522650840477
42
-1.3486173569625288
0
LWPOLYLINE
5
106
100
AcDbEntity
8
0
100
AcDbPolyline
90
4
70
1
43
0.0
10
403.1376696573559
20
153.92991826110637
42
-1.8507963138582748
10
401.34573899363625
20
156.74323386244049
42
-2.5282332861832191
10
402.48288191234082
20
156.36917369181282
42
-0.16328638695089961
10
403.2244456713201
20
155.34002848790038
42
-1.3279877591434579
0
LWPOLYLINE
5
107
100
AcDbEntity
8
0
100
AcDbPolyline
90
4
70
1
43
0.0
10
178.38
20
152.33000000000001
42
-0.99999999999999989
10
178.98000000000002
20
152.33000000000001
10
178.98000000000002
20
151.22999999999999
42
-0.99999999999999989
10
178.38
20
151.22999999999999
0
LWPOLYLINE
5
108
100
AcDbEntity
8
0
100
AcDbPolyline
90
4
70
1
43
0.0
10
187.62
20
151.22999999999999
10
187.62
20
152.33000000000001
42
0.99999999999999989
10
187.02000000000001
20
152.33000000000001
10
187.01999999999998
20
151.22999999999999
42
0.99999999999999989
0
ARC
5
109
100
AcDbEntity
8
0
100
AcDbCircle
10
393.22375
20
176.21250000000001
30
0
40
0.87499999999994416
210
0
220
-0
230
1
100
AcDbArc
50
3.7515593706735717
51
356.24844062279141
0
ARC
5
110
100
AcDbEntity
8
0
100
AcDbCircle
10
394.97000000000008
20
176.21250000000001
30
0
40
0.87500000002992839
210
0
220
0
230
1
100
AcDbArc
50
-176.24844062291973
51
176.24844062939914
0
ARC
5
111
100
AcDbEntity
8
0
100
AcDbCircle
10
362.26750000000004
20
214.31250000000003
30
0
40
0.8750000000000101
210
0
220
0
230
1
100
AcDbArc
50
-111.27576697527017
51
111.27576697764725
0
ARC
5
112
100
AcDbEntity
8
0
100
AcDbCircle
10
361.63249999999999
20
214.31250000000003
30
0
40
0.87499999997844613
210
0
220
-0
230
1
100
AcDbArc
50
68.724233025977313
51
291.27576697577308
0
LWPOLYLINE
5
113
100
AcDbEntity
8
0
100
AcDbPolyline
90
2
70
1
43
0.0
10
382.80958843669919
20
215.14977349160267
42
-1.3486173569401785
10
382.80958843670089
20
213.47522650840102
42
-4.5427073409692573
0
ARC
5
114
100
AcDbEntity
8
0
100
AcDbCircle
10
400.05000000000001
20
176.21250000000001
30
0
40
1.9938999999999951
210
0
220
0
230
1
100
AcDbArc
50
-250.89882357193494
51
15.38174236751065
0
ARC
5
115
100
AcDbEntity
8
0
100
AcDbCircle
10
401.32000000000005
20
178.62549999999999
30
0
40
1.9939000000867453
210
0
220
0
230
1
100
AcDbArc
50
-70.898823572291931
51
195.38174237002201
0
LWPOLYLINE
5
116
100
AcDbEntity
8
0
100
AcDbPolyline
90
2
70
1
43
0.0
10
289.94083843669921
20
215.14977349160264
42
-1.3486173569401425
10
289.94083843670091
20
213.47522650840102
42
-4.5427073409691276
0
LWPOLYLINE
5
117
100
AcDbEntity
8
0
100
AcDbPolyline
90
2
70
1
43
0.0
10
293.46541156329243
20
215.14977349159889
42
-4.5427073407497192
10
293.46541156330443
20
213.47522650840475
42
-1.3486173569624469
0
ARC
5
118
100
AcDbEntity
8
0
100
AcDbCircle
10
216.37625
20
214.31250000000003
30
0
40
0.87500000000000222
210
0
220
0
230
1
100
AcDbArc
50
-176.24844062940849
51
176.24844063594554
0
ARC
5
119
100
AcDbEntity
8
0
100
AcDbCircle
10
214.63
20
214.31250000000003
30
0
40
0.87500000000362554
210
0
220
-0
230
1
100
AcDbArc
50
3.7515593640387204
51
356.24844062948029
0
LWPOLYLINE
5
120
100
AcDbEntity
8
0
100
AcDbPolyline
90
2
70
1
43
0.0
10
193.45291156326385
20
213.47522650838616
42
-1.3486173569247462
10
193.45291156326553
20
215.14977349161754
42
-4.5427073409764054
0
ARC
5
121
100
AcDbEntity
8
0
100
AcDbCircle
10
183.03875000000002
20
195.26250000000002
30
0
40
0.87500000000000078
210
0
220
0
230
1
100
AcDbArc
50
-176.24844063598849
51
176.24844064252196
0
ARC
5
122
100
AcDbEntity
8
0
100
AcDbCircle
10
181.29249999999999
20
195.26250000000002
30
0
40
0.8749999999905449
210
0
220
-0
230
1
100
AcDbArc
50
3.7515593575187816
51
356.24844063600386
0
ARC
5
123
100
AcDbEntity
8
0
100
AcDbCircle
10
404.495
20
176.21250000000001
30
0
40
0.87500000000000711
210
0
220
-0
230
1
100
AcDbArc
50
68.724233022967951
51
291.2757669746556
0
ARC
5
124
100
AcDbEntity
8
0
100
AcDbCircle
10
405.13000000000005
20
176.21250000000001
30
0
40
0.8750000000093171
210
0
220
0
230
1
100
AcDbArc
50
-111.27576697622689
51
111.2757669744758
0
LWPOLYLINE
5
125
100
AcDbEntity
8
0
100
AcDbPolyline
90
6
70
1
43
0.0
10
408.38437499996309
20
212.71310970383615
42
-0.54200742295365723
10
405.24965296011885
20
213.86964120785086
42
-3.6798478186149466
10
405.24965296017109
20
214.75535879208624
42
-0.54200742298130011
10
408.38437500000316
20
215.91189029613869
42
-0.54200742299213112
10
411.5190970398092
20
214.75535879202667
42
-3.6798478192051221
10
411.51909703987201
20
213.86964120790392
42
-0.54200742298122428
0
ARC
5
126
100
AcDbEntity
8
0
100
AcDbCircle
10
411.95625000000007
20
167.95750000000001
30
0
40
1.9939000000000038
210
0
220
0
230
1
100
AcDbArc
50
-104.51783262565905
51
160.66280649917633
0
ARC
5
127
100
AcDbEntity
8
0
100
AcDbCircle
10
409.57500000000005
20
166.6875
30
0
40
1.993899999948082
210
0
220
-0
230
1
100
AcDbArc
50
75.482167374153704
51
340.66280649770533
0
LWPOLYLINE
5
128
100
AcDbEntity
8
0
100
AcDbPolyline
90
4
70
1
43
0.0
10
178.97999999999999
20
147.30000000000001
10
178.97999999999999
20
147.90000000000001
42
0.99999999999999989
10
178.38
20
147.90000000000001
10
178.38
20
147.30000000000001
42
0.99999999999999989
0
LWPOLYLINE
5
129
100
AcDbEntity
8
0
100
AcDbPolyline
90
4
70
1
43
0.0
10
187.62
20
147.30000000000001
42
-0.99999999999999989
10
187.01999999999998
20
147.30000000000001
10
187.01999999999998
20
147.90000000000001
42
-0.99999999999999989
10
187.62
20
147.90000000000001
0
CIRCLE
5
130
100
AcDbEntity
8
0
100
AcDbCircle
10
-192.56375000000003
20
176.21250000000001
30
0
40
0.87500000000000011
210
0
220
0
230
-1
0
CIRCLE
5
131
100
AcDbEntity
8
0
100
AcDbCircle
10
-171.44999999999999
20
176.21250000000001
30
0
40
1.9939
210
0
220
0
230
-1
0
CIRCLE
5
132
100
AcDbEntity
8
0
100
AcDbCircle
10
-188.11875000000001
20
195.26250000000002
30
0
40
1.9939
210
0
220
0
230
-1
0
CIRCLE
5
133
100
AcDbEntity
8
0
100
AcDbCircle
10
-169.22750000000002
20
190.1825
30
0
40
0.73499999999999999
210
0
220
0
230
-1
0
CIRCLE
5
134
100
AcDbEntity
8
0
100
AcDbCircle
10
-150.33625000000001
20
195.26250000000002
30
0
40
0.87500000000000011
210
0
220
0
230
-1
0
CIRCLE
5
135
100
AcDbEntity
8
0
100
AcDbCircle
10
-150.28125
20
184.7825
30
0
40
0.40000000000000008
210
0
220
0
230
-1
0
CIRCLE
5
136
100
AcDbEntity
8
0
100
AcDbCircle
10
-150.28125
20
186.78250000000003
30
0
40
0.40000000000000008
210
0
220
0
230
-1
0
CIRCLE
5
137
100
AcDbEntity
8
0
100
AcDbCircle
10
-150.28125
20
182.7825
30
0
40
0.40000000000000008
210
0
220
0
230
-1
0
CIRCLE
5
138
100
AcDbEntity
8
0
100
AcDbCircle
10
-161.60750000000002
20
195.26250000000002
30
0
40
0.87500000000000011
210
0
220
0
230
-1
0
CIRCLE
5
139
100
AcDbEntity
8
0
100
AcDbCircle
10
-162.8775
20
192.7225
30
0
40
0.73499999999999999
210
0
220
0
230
-1
0
CIRCLE
5
140
100
AcDbEntity
8
0
100
AcDbCircle
10
-164.30625000000003
20
187.00749999999999
30
0
40
1.9939
210
0
220
0
230
-1
0
CIRCLE
5
141
100
AcDbEntity
8
0
100
AcDbCircle
10
-167.63999999999999
20
173.67250000000001
30
0
40
0.73499999999999999
210
0
220
0
230
-1
0
CIRCLE
5
142
100
AcDbEntity
8
0
100
AcDbCircle
10
-166.37
20
176.21250000000001
30
0
40
0.87500000000000011
210
0
220
0
230
-1
0
CIRCLE
5
143
100
AcDbEntity
8
0
100
AcDbCircle
10
-150.33625000000001
20
176.21250000000001
30
0
40
0.87500000000000011
210
0
220
0
230
-1
0
CIRCLE
5
144
100
AcDbEntity
8
0
100
AcDbCircle
10
-212.88375000000002
20
173.67250000000001
30
0
40
0.73499999999999999
210
0
220
0
230
-1
0
CIRCLE
5
145
100
AcDbEntity
8
0
100
AcDbCircle
10
-207.16875000000002
20
195.26250000000002
30
0
40
1.9939
210
0
220
0
230
-1
0
CIRCLE
5
146
100
AcDbEntity
8
0
100
AcDbCircle
10
-222.40875000000003
20
192.7225
30
0
40
0.73499999999999999
210
0
220
0
230
-1
0
CIRCLE
5
147
100
AcDbEntity
8
0
100
AcDbCircle
10
-297.97375
20
176.21250000000001
30
0
40
0.87500000000000011
210
0
220
0
230
-1
0
CIRCLE
5
148
100
AcDbEntity
8
0
100
AcDbCircle
10
-279.55874999999997
20
192.7225
30
0
40
0.73499999999999999
210
0
220
0
230
-1
0
CIRCLE
5
149
100
AcDbEntity
8
0
100
AcDbCircle
10
-261.9375
20
180.11250000000001
30
0
40
0.5
210
0
220
0
230
-1
0
CIRCLE
5
150
100
AcDbEntity
8
0
100
AcDbCircle
10
-278.28874999999999
20
195.26250000000002
30
0
40
0.87500000000000011
210
0
220
0
230
-1
0
CIRCLE
5
151
100
AcDbEntity
8
0
100
AcDbCircle
10
-242.88749999999999
20
180.11250000000001
30
0
40
0.5
210
0
220
0
230
-1
0
CIRCLE
5
152
100
AcDbEntity
8
0
100
AcDbCircle
10
-376.23750000000001
20
172.3125
30
0
40
0.5
210
0
220
0
230
-1
0
CIRCLE
5
153
100
AcDbEntity
8
0
100
AcDbCircle
10
-366.71249999999998
20
191.36250000000001
30
0
40
0.5
210
0
220
0
230
-1
0
CIRCLE
5
154
100
AcDbEntity
8
0
100
AcDbCircle
10
-328.61250000000007
20
191.36250000000001
30
0
40
0.5
210
0
220
0
230
-1
0
CIRCLE
5
155
100
AcDbEntity
8
0
100
AcDbCircle
10
-333.53375
20
171.13249999999999
30
0
40
0.73499999999999999
210
0
220
0
230
-1
0
CIRCLE
5
156
100
AcDbEntity
8
0
100
AcDbCircle
10
-378.61874999999998
20
195.26250000000002
30
0
40
1.9939
210
0
220
0
230
-1
0
CIRCLE
5
157
100
AcDbEntity
8
0
100
AcDbCircle
10
-345.59875
20
195.26250000000002
30
0
40
0.87500000000000011
210
0
220
0
230
-1
0
CIRCLE
5
158
100
AcDbEntity
8
0
100
AcDbCircle
10
-335.43875000000008
20
195.26250000000002
30
0
40
0.87500000000000011
210
0
220
0
230
-1
0
CIRCLE
5
159
100
AcDbEntity
8
0
100
AcDbCircle
10
-326.54874999999998
20
195.26250000000002
30
0
40
0.87500000000000011
210
0
220
0
230
-1
0
CIRCLE
5
160
100
AcDbEntity
8
0
100
AcDbCircle
10
-302.41874999999999
20
195.26250000000002
30
0
40
1.9939
210
0
220
0
230
-1
0
CIRCLE
5
161
100
AcDbEntity
8
0
100
AcDbCircle
10
-300.03750000000002
20
180.11250000000001
30
0
40
0.5
210
0
220
0
230
-1
0
CIRCLE
5
162
100
AcDbEntity
8
0
100
AcDbCircle
10
-317.02375000000006
20
176.21250000000001
30
0
40
0.87500000000000011
210
0
220
0
230
-1
0
CIRCLE
5
163
100
AcDbEntity
8
0
100
AcDbCircle
10
-249.71375
20
214.31250000000003
30
0
40
0.87500000000000011
210
0
220
0
230
-1
0
CIRCLE
5
164
100
AcDbEntity
8
0
100
AcDbCircle
10
-357.1875
20
214.31250000000003
30
0
40
1.9939
210
0
220
0
230
-1
0
CIRCLE
5
165
100
AcDbEntity
8
0
100
AcDbCircle
10
-336.07375000000002
20
214.31250000000003
30
0
40
0.87500000000000011
210
0
220
0
230
-1
0
CIRCLE
5
166
100
AcDbEntity
8
0
100
AcDbCircle
10
-284.32125000000002
20
211.77250000000001
30
0
40
0.73499999999999999
210
0
220
0
230
-1
0
CIRCLE
5
167
100
AcDbEntity
8
0
100
AcDbCircle
10
-174.14875000000001
20
214.31250000000003
30
0
40
0.87500000000000011
210
0
220
0
230
-1
0
CIRCLE
5
168
100
AcDbEntity
8
0
100
AcDbCircle
10
-183.03875000000002
20
214.31250000000003
30
0
40
0.87500000000000011
210
0
220
0
230
-1
0
CIRCLE
5
169
100
AcDbEntity
8
0
100
AcDbCircle
10
-150.33625000000001
20
214.31250000000003
30
0
40
0.87500000000000011
210
0
220
0
230
-1
0
CIRCLE
5
170
100
AcDbEntity
8
0
100
AcDbCircle
10
-162.8775
20
211.77250000000001
30
0
40
0.73499999999999999
210
0
220
0
230
-1
0
CIRCLE
5
171
100
AcDbEntity
8
0
100
AcDbCircle
10
-161.60750000000002
20
214.31250000000003
30
0
40
0.87500000000000011
210
0
220
0
230
-1
0
CIRCLE
5
172
100
AcDbEntity
8
0
100
AcDbCircle
10
-165.25874999999999
20
211.77250000000001
30
0
40
0.73499999999999999
210
0
220
0
230
-1
0
CIRCLE
5
173
100
AcDbEntity
8
0
100
AcDbCircle
10
-290.67124999999999
20
209.23249999999999
30
0
40
0.73499999999999999
210
0
220
0
230
-1
0
CIRCLE
5
174
100
AcDbEntity
8
0
100
AcDbCircle
10
-171.60875000000001
20
209.23249999999999
30
0
40
0.73499999999999999
210
0
220
0
230
-1
0
CIRCLE
5
175
100
AcDbEntity
8
0
100
AcDbCircle
10
-169.22750000000002
20
209.23249999999999
30
0
40
0.73499999999999999
210
0
220
0
230
-1
0
CIRCLE
5
176
100
AcDbEntity
8
0
100
AcDbCircle
10
-366.71249999999998
20
214.31250000000003
30
0
40
1.9939
210
0
220
0
230
-1
0
CIRCLE
5
177
100
AcDbEntity
8
0
100
AcDbCircle
10
-174.69374999999999
20
202.40625
30
0
40
0.5
210
0
220
0
230
-1
0
CIRCLE
5
178
100
AcDbEntity
8
0
100
AcDbCircle
10
-164.30625000000003
20
202.2475
30
0
40
1.524
210
0
220
0
230
-1
0
CIRCLE
5
179
100
AcDbEntity
8
0
100
AcDbCircle
10
-378.30125000000004
20
157.16249999999999
30
0
40
0.87500000000000011
210
0
220
0
230
-1
0
CIRCLE
5
180
100
AcDbEntity
8
0
100
AcDbCircle
10
-359.25125000000003
20
157.16249999999999
30
0
40
0.87500000000000011
210
0
220
0
230
-1
0
CIRCLE
5
181
100
AcDbEntity
8
0
100
AcDbCircle
10
-331.31124999999997
20
157.16249999999999
30
0
40
0.87500000000000011
210
0
220
0
230
-1
0
CIRCLE
5
182
100
AcDbEntity
8
0
100
AcDbCircle
10
-217.01125000000002
20
157.16249999999999
30
0
40
0.87500000000000011
210
0
220
0
230
-1
0
CIRCLE
5
183
100
AcDbEntity
8
0
100
AcDbCircle
10
-230.98124999999999
20
157.16249999999999
30
0
40
1.9939
210
0
220
0
230
-1
0
CIRCLE
5
184
100
AcDbEntity
8
0
100
AcDbCircle
10
-236.06125000000003
20
157.16249999999999
30
0
40
0.87500000000000011
210
0
220
0
230
-1
0
CIRCLE
5
185
100
AcDbEntity
8
0
100
AcDbCircle
10
-293.21125000000001
20
157.16249999999999
30
0
40
0.87500000000000011
210
0
220
0
230
-1
0
CIRCLE
5
186
100
AcDbEntity
8
0
100
AcDbCircle
10
-150.33625000000001
20
157.16249999999999
30
0
40
0.87500000000000011
210
0
220
0
230
-1
0
CIRCLE
5
187
100
AcDbEntity
8
0
100
AcDbCircle
10
-165.25874999999999
20
154.6225
30
0
40
0.73499999999999999
210
0
220
0
230
-1
0
CIRCLE
5
188
100
AcDbEntity
8
0
100
AcDbCircle
10
-163.98875000000001
20
157.16249999999999
30
0
40
0.87500000000000011
210
0
220
0
230
-1
0
CIRCLE
5
189
100
AcDbEntity
8
0
100
AcDbCircle
10
-211.93125000000003
20
157.16249999999999
30
0
40
1.9939
210
0
220
0
230
-1
0
CIRCLE
5
190
100
AcDbEntity
8
0
100
AcDbCircle
10
-388.14375000000007
20
183.19749999999999
30
0
40
1.524
210
0
220
0
230
-1
0
CIRCLE
5
191
100
AcDbEntity
8
0
100
AcDbCircle
10
-390.68375000000003
20
171.13249999999999
30
0
40
0.73499999999999999
210
0
220
0
230
-1
0
CIRCLE
5
192
100
AcDbEntity
8
0
100
AcDbCircle
10
-383.54000000000008
20
209.23249999999999
30
0
40
0.73499999999999999
210
0
220
0
230
-1
0
CIRCLE
5
193
100
AcDbEntity
8
0
100
AcDbCircle
10
-384.33375000000007
20
211.77250000000001
30
0
40
0.73499999999999999
210
0
220
0
230
-1
0
CIRCLE
5
194
100
AcDbEntity
8
0
100
AcDbCircle
10
-403.29374999999999
20
148.91249999999999
30
0
40
0.5
210
0
220
0
230
-1
0
CIRCLE
5
195
100
AcDbEntity
8
0
100
AcDbCircle
10
-390.52500000000003
20
153.26249999999999
30
0
40
0.5
210
0
220
0
230
-1
0
CIRCLE
5
196
100
AcDbEntity
8
0
100
AcDbCircle
10
-388.46125000000001
20
157.16249999999999
30
0
40
0.87500000000000011
210
0
220
0
230
-1
0
CIRCLE
5
197
100
AcDbEntity
8
0
100
AcDbCircle
10
-371.47500000000002
20
153.26249999999999
30
0
40
0.5
210
0
220
0
230
-1
0
CIRCLE
5
198
100
AcDbEntity
8
0
100
AcDbCircle
10
-379.57125000000008
20
154.6225
30
0
40
0.73499999999999999
210
0
220
0
230
-1
0
CIRCLE
5
199
100
AcDbEntity
8
0
100
AcDbCircle
10
-383.38125000000002
20
157.16249999999999
30
0
40
1.9939
210
0
220
0
230
-1
0
CIRCLE
5
200
100
AcDbEntity
8
0
100
AcDbCircle
10
-385.92125000000004
20
152.08250000000001
30
0
40
0.73499999999999999
210
0
220
0
230
-1
0
CIRCLE
5
201
100
AcDbEntity
8
0
100
AcDbCircle
10
-352.42500000000001
20
153.26249999999999
30
0
40
0.5
210
0
220
0
230
-1
0
CIRCLE
5
202
100
AcDbEntity
8
0
100
AcDbCircle
10
-366.87125000000003
20
152.08250000000001
30
0
40
0.73499999999999999
210
0
220
0
230
-1
0
CIRCLE
5
203
100
AcDbEntity
8
0
100
AcDbCircle
10
-369.41125
20
157.16249999999999
30
0
40
0.87500000000000011
210
0
220
0
230
-1
0
CIRCLE
5
204
100
AcDbEntity
8
0
100
AcDbCircle
10
-364.33125000000007
20
157.16249999999999
30
0
40
1.9939
210
0
220
0
230
-1
0
CIRCLE
5
205
100
AcDbEntity
8
0
100
AcDbCircle
10
-360.52125000000001
20
154.6225
30
0
40
0.73499999999999999
210
0
220
0
230
-1
0
CIRCLE
5
206
100
AcDbEntity
8
0
100
AcDbCircle
10
-345.28125
20
157.16249999999999
30
0
40
1.9939
210
0
220
0
230
-1
0
CIRCLE
5
207
100
AcDbEntity
8
0
100
AcDbCircle
10
-350.36124999999998
20
157.16249999999999
30
0
40
0.87500000000000011
210
0
220
0
230
-1
0
CIRCLE
5
208
100
AcDbEntity
8
0
100
AcDbCircle
10
-347.82125000000002
20
152.08250000000001
30
0
40
0.73499999999999999
210
0
220
0
230
-1
0
CIRCLE
5
209
100
AcDbEntity
8
0
100
AcDbCircle
10
-321.15125
20
157.16249999999999
30
0
40
0.87500000000000011
210
0
220
0
230
-1
0
CIRCLE
5
210
100
AcDbEntity
8
0
100
AcDbCircle
10
-322.42124999999999
20
154.6225
30
0
40
0.73499999999999999
210
0
220
0
230
-1
0
CIRCLE
5
211
100
AcDbEntity
8
0
100
AcDbCircle
10
-326.23125000000005
20
157.16249999999999
30
0
40
1.9939
210
0
220
0
230
-1
0
CIRCLE
5
212
100
AcDbEntity
8
0
100
AcDbCircle
10
-333.375
20
153.26249999999999
30
0
40
0.5
210
0
220
0
230
-1
0
CIRCLE
5
213
100
AcDbEntity
8
0
100
AcDbCircle
10
-328.77125000000001
20
152.08250000000001
30
0
40
0.73499999999999999
210
0
220
0
230
-1
0
CIRCLE
5
214
100
AcDbEntity
8
0
100
AcDbCircle
10
-340.20125000000002
20
157.16249999999999
30
0
40
0.87500000000000011
210
0
220
0
230
-1
0
CIRCLE
5
215
100
AcDbEntity
8
0
100
AcDbCircle
10
-341.47125000000005
20
154.6225
30
0
40
0.73499999999999999
210
0
220
0
230
-1
0
CIRCLE
5
216
100
AcDbEntity
8
0
100
AcDbCircle
10
-302.10124999999999
20
157.16249999999999
30
0
40
0.87500000000000011
210
0
220
0
230
-1
0
CIRCLE
5
217
100
AcDbEntity
8
0
100
AcDbCircle
10
-303.37125000000003
20
154.6225
30
0
40
0.73499999999999999
210
0
220
0
230
-1
0
CIRCLE
5
218
100
AcDbEntity
8
0
100
AcDbCircle
10
-314.32499999999999
20
153.26249999999999
30
0
40
0.5
210
0
220
0
230
-1
0
CIRCLE
5
219
100
AcDbEntity
8
0
100
AcDbCircle
10
-312.26125000000002
20
157.16249999999999
30
0
40
0.87500000000000011
210
0
220
0
230
-1
0
CIRCLE
5
220
100
AcDbEntity
8
0
100
AcDbCircle
10
-309.72125
20
152.08250000000001
30
0
40
0.73499999999999999
210
0
220
0
230
-1
0
CIRCLE
5
221
100
AcDbEntity
8
0
100
AcDbCircle
10
-307.18124999999998
20
157.16249999999999
30
0
40
1.9939
210
0
220
0
230
-1
0
CIRCLE
5
222
100
AcDbEntity
8
0
100
AcDbCircle
10
-295.27499999999998
20
153.26249999999999
30
0
40
0.5
210
0
220
0
230
-1
0
CIRCLE
5
223
100
AcDbEntity
8
0
100
AcDbCircle
10
-180.11000000000001
20
151.25
30
0
40
0.32500000000000001
210
0
220
0
230
-1
0
CIRCLE
5
224
100
AcDbEntity
8
0
100
AcDbCircle
10
-185.88999999999999
20
151.25
30
0
40
0.32500000000000001
210
0
220
0
230
-1
0
CIRCLE
5
225
100
AcDbEntity
8
0
100
AcDbCircle
10
-200.02500000000001
20
153.26249999999999
30
0
40
0.5
210
0
220
0
230
-1
0
CIRCLE
5
226
100
AcDbEntity
8
0
100
AcDbCircle
10
-195.42124999999999
20
152.08250000000001
30
0
40
0.73499999999999999
210
0
220
0
230
-1
0
CIRCLE
5
227
100
AcDbEntity
8
0
100
AcDbCircle
10
-214.47125
20
152.08250000000001
30
0
40
0.73499999999999999
210
0
220
0
230
-1
0
CIRCLE
5
228
100
AcDbEntity
8
0
100
AcDbCircle
10
-233.52125000000001
20
152.08250000000001
30
0
40
0.73499999999999999
210
0
220
0
230
-1
0
CIRCLE
5
229
100
AcDbEntity
8
0
100
AcDbCircle
10
-219.07499999999999
20
153.26249999999999
30
0
40
0.5
210
0
220
0
230
-1
0
CIRCLE
5
230
100
AcDbEntity
8
0
100
AcDbCircle
10
-290.67124999999999
20
152.08250000000001
30
0
40
0.73499999999999999
210
0
220
0
230
-1
0
CIRCLE
5
231
100
AcDbEntity
8
0
100
AcDbCircle
10
-271.62124999999997
20
152.08250000000001
30
0
40
0.73499999999999999
210
0
220
0
230
-1
0
CIRCLE
5
232
100
AcDbEntity
8
0
100
AcDbCircle
10
-276.22500000000002
20
153.26249999999999
30
0
40
0.5
210
0
220
0
230
-1
0
CIRCLE
5
233
100
AcDbEntity
8
0
100
AcDbCircle
10
-238.125
20
153.26249999999999
30
0
40
0.5
210
0
220
0
230
-1
0
CIRCLE
5
234
100
AcDbEntity
8
0
100
AcDbCircle
10
-252.57125000000002
20
152.08250000000001
30
0
40
0.73499999999999999
210
0
220
0
230
-1
0
CIRCLE
5
235
100
AcDbEntity
8
0
100
AcDbCircle
10
-257.17500000000001
20
153.26249999999999
30
0
40
0.5
210
0
220
0
230
-1
0
CIRCLE
5
236
100
AcDbEntity
8
0
100
AcDbCircle
10
-255.11125000000004
20
157.16249999999999
30
0
40
0.87500000000000011
210
0
220
0
230
-1
0
CIRCLE
5
237
100
AcDbEntity
8
0
100
AcDbCircle
10
-283.05124999999998
20
157.16249999999999
30
0
40
0.87500000000000011
210
0
220
0
230
-1
0
CIRCLE
5
238
100
AcDbEntity
8
0
100
AcDbCircle
10
-288.13125000000002
20
157.16249999999999
30
0
40
1.9939
210
0
220
0
230
-1
0
CIRCLE
5
239
100
AcDbEntity
8
0
100
AcDbCircle
10
-284.32125000000002
20
154.6225
30
0
40
0.73499999999999999
210
0
220
0
230
-1
0
CIRCLE
5
240
100
AcDbEntity
8
0
100
AcDbCircle
10
-265.27125000000001
20
154.6225
30
0
40
0.73499999999999999
210
0
220
0
230
-1
0
CIRCLE
5
241
100
AcDbEntity
8
0
100
AcDbCircle
10
-264.00125000000003
20
157.16249999999999
30
0
40
0.87500000000000011
210
0
220
0
230
-1
0
CIRCLE
5
242
100
AcDbEntity
8
0
100
AcDbCircle
10
-269.08125000000001
20
157.16249999999999
30
0
40
1.9939
210
0
220
0
230
-1
0
CIRCLE
5
243
100
AcDbEntity
8
0
100
AcDbCircle
10
-274.16125
20
157.16249999999999
30
0
40
0.87500000000000011
210
0
220
0
230
-1
0
CIRCLE
5
244
100
AcDbEntity
8
0
100
AcDbCircle
10
-246.22125
20
154.6225
30
0
40
0.73499999999999999
210
0
220
0
230
-1
0
CIRCLE
5
245
100
AcDbEntity
8
0
100
AcDbCircle
10
-244.95125000000002
20
157.16249999999999
30
0
40
0.87500000000000011
210
0
220
0
230
-1
0
CIRCLE
5
246
100
AcDbEntity
8
0
100
AcDbCircle
10
-250.03125
20
157.16249999999999
30
0
40
1.9939
210
0
220
0
230
-1
0
CIRCLE
5
247
100
AcDbEntity
8
0
100
AcDbCircle
10
-197.96125000000004
20
157.16249999999999
30
0
40
0.87500000000000011
210
0
220
0
230
-1
0
CIRCLE
5
248
100
AcDbEntity
8
0
100
AcDbCircle
10
-206.85124999999999
20
157.16249999999999
30
0
40
0.87500000000000011
210
0
220
0
230
-1
0
CIRCLE
5
249
100
AcDbEntity
8
0
100
AcDbCircle
10
-225.90125
20
157.16249999999999
30
0
40
0.87500000000000011
210
0
220
0
230
-1
0
CIRCLE
5
250
100
AcDbEntity
8
0
100
AcDbCircle
10
-227.17124999999999
20
154.6225
30
0
40
0.73499999999999999
210
0
220
0
230
-1
0
CIRCLE
5
251
100
AcDbEntity
8
0
100
AcDbCircle
10
-208.12125000000003
20
154.6225
30
0
40
0.73499999999999999
210
0
220
0
230
-1
0
CIRCLE
5
252
100
AcDbEntity
8
0
100
AcDbCircle
10
-187.80125000000001
20
157.16249999999999
30
0
40
0.87500000000000011
210
0
220
0
230
-1
0
CIRCLE
5
253
100
AcDbEntity
8
0
100
AcDbCircle
10
-189.07125000000002
20
154.6225
30
0
40
0.73499999999999999
210
0
220
0
230
-1
0
CIRCLE
5
254
100
AcDbEntity
8
0
100
AcDbCircle
10
-192.88125000000002
20
157.16249999999999
30
0
40
1.9939
210
0
220
0
230
-1
0
CIRCLE
5
255
100
AcDbEntity
8
0
100
AcDbCircle
10
-396.24000000000001
20
173.67250000000001
30
0
40
0.73499999999999999
210
0
220
0
230
-1
0
CIRCLE
5
256
100
AcDbEntity
8
0
100
AcDbCircle
10
-381
20
172.3125
30
0
40
0.5
210
0
220
0
230
-1
0
CIRCLE
5
257
100
AcDbEntity
8
0
100
AcDbCircle
10
-384.33375000000007
20
173.67250000000001
30
0
40
0.73499999999999999
210
0
220
0
230
-1
0
CIRCLE
5
258
100
AcDbEntity
8
0
100
AcDbCircle
10
-383.06375000000003
20
176.21250000000001
30
0
40
0.87500000000000011
210
0
220
0
230
-1
0
CIRCLE
5
259
100
AcDbEntity
8
0
100
AcDbCircle
10
-388.14375000000007
20
176.21250000000001
30
0
40
1.9939
210
0
220
0
230
-1
0
CIRCLE
5
260
100
AcDbEntity
8
0
100
AcDbCircle
10
-364.01375000000002
20
176.21250000000001
30
0
40
0.87500000000000011
210
0
220
0
230
-1
0
CIRCLE
5
261
100
AcDbEntity
8
0
100
AcDbCircle
10
-365.28375000000005
20
173.67250000000001
30
0
40
0.73499999999999999
210
0
220
0
230
-1
0
CIRCLE
5
262
100
AcDbEntity
8
0
100
AcDbCircle
10
-371.63375000000002
20
171.13249999999999
30
0
40
0.73499999999999999
210
0
220
0
230
-1
0
CIRCLE
5
263
100
AcDbEntity
8
0
100
AcDbCircle
10
-374.17374999999998
20
176.21250000000001
30
0
40
0.87500000000000011
210
0
220
0
230
-1
0
CIRCLE
5
264
100
AcDbEntity
8
0
100
AcDbCircle
10
-355.12374999999997
20
176.21250000000001
30
0
40
0.87500000000000011
210
0
220
0
230
-1
0
CIRCLE
5
265
100
AcDbEntity
8
0
100
AcDbCircle
10
-357.1875
20
172.3125
30
0
40
0.5
210
0
220
0
230
-1
0
CIRCLE
5
266
100
AcDbEntity
8
0
100
AcDbCircle
10
-311.94375000000002
20
176.21250000000001
30
0
40
1.9939
210
0
220
0
230
-1
0
CIRCLE
5
267
100
AcDbEntity
8
0
100
AcDbCircle
10
-336.07375000000002
20
176.21250000000001
30
0
40
0.87500000000000011
210
0
220
0
230
-1
0
CIRCLE
5
268
100
AcDbEntity
8
0
100
AcDbCircle
10
-330.99375000000003
20
176.21250000000001
30
0
40
1.9939
210
0
220
0
230
-1
0
CIRCLE
5
269
100
AcDbEntity
8
0
100
AcDbCircle
10
-325.91374999999999
20
176.21250000000001
30
0
40
0.87500000000000011
210
0
220
0
230
-1
0
CIRCLE
5
270
100
AcDbEntity
8
0
100
AcDbCircle
10
-327.18375000000003
20
173.67250000000001
30
0
40
0.73499999999999999
210
0
220
0
230
-1
0
CIRCLE
5
271
100
AcDbEntity
8
0
100
AcDbCircle
10
-346.23375000000004
20
173.67250000000001
30
0
40
0.73499999999999999
210
0
220
0
230
-1
0
CIRCLE
5
272
100
AcDbEntity
8
0
100
AcDbCircle
10
-350.04375000000005
20
176.21250000000001
30
0
40
1.9939
210
0
220
0
230
-1
0
CIRCLE
5
273
100
AcDbEntity
8
0
100
AcDbCircle
10
-338.13749999999999
20
172.3125
30
0
40
0.5
210
0
220
0
230
-1
0
CIRCLE
5
274
100
AcDbEntity
8
0
100
AcDbCircle
10
-314.48374999999999
20
171.13249999999999
30
0
40
0.73499999999999999
210
0
220
0
230
-1
0
CIRCLE
5
275
100
AcDbEntity
8
0
100
AcDbCircle
10
-319.08749999999998
20
172.3125
30
0
40
0.5
210
0
220
0
230
-1
0
CIRCLE
5
276
100
AcDbEntity
8
0
100
AcDbCircle
10
-352.58375000000001
20
171.13249999999999
30
0
40
0.73499999999999999
210
0
220
0
230
-1
0
CIRCLE
5
277
100
AcDbEntity
8
0
100
AcDbCircle
10
-223.83750000000003
20
172.3125
30
0
40
0.5
210
0
220
0
230
-1
0
CIRCLE
5
278
100
AcDbEntity
8
0
100
AcDbCircle
10
-231.93375000000003
20
173.67250000000001
30
0
40
0.73499999999999999
210
0
220
0
230
-1
0
CIRCLE
5
279
100
AcDbEntity
8
0
100
AcDbCircle
10
-250.98375000000001
20
173.67250000000001
30
0
40
0.73499999999999999
210
0
220
0
230
-1
0
CIRCLE
5
280
100
AcDbEntity
8
0
100
AcDbCircle
10
-238.28375
20
171.13249999999999
30
0
40
0.73499999999999999
210
0
220
0
230
-1
0
CIRCLE
5
281
100
AcDbEntity
8
0
100
AcDbCircle
10
-242.88749999999999
20
172.3125
30
0
40
0.5
210
0
220
0
230
-1
0
CIRCLE
5
282
100
AcDbEntity
8
0
100
AcDbCircle
10
-235.74375000000003
20
176.21250000000001
30
0
40
1.9939
210
0
220
0
230
-1
0
CIRCLE
5
283
100
AcDbEntity
8
0
100
AcDbCircle
10
-240.82374999999999
20
176.21250000000001
30
0
40
0.87500000000000011
210
0
220
0
230
-1
0
CIRCLE
5
284
100
AcDbEntity
8
0
100
AcDbCircle
10
-249.71375
20
176.21250000000001
30
0
40
0.87500000000000011
210
0
220
0
230
-1
0
CIRCLE
5
285
100
AcDbEntity
8
0
100
AcDbCircle
10
-289.08375000000001
20
173.67250000000001
30
0
40
0.73499999999999999
210
0
220
0
230
-1
0
CIRCLE
5
286
100
AcDbEntity
8
0
100
AcDbCircle
10
-287.81375000000003
20
176.21250000000001
30
0
40
0.87500000000000011
210
0
220
0
230
-1
0
CIRCLE
5
287
100
AcDbEntity
8
0
100
AcDbCircle
10
-270.03375
20
173.67250000000001
30
0
40
0.73499999999999999
210
0
220
0
230
-1
0
CIRCLE
5
288
100
AcDbEntity
8
0
100
AcDbCircle
10
-273.84375
20
176.21250000000001
30
0
40
1.9939
210
0
220
0
230
-1
0
CIRCLE
5
289
100
AcDbEntity
8
0
100
AcDbCircle
10
-278.92375000000004
20
176.21250000000001
30
0
40
0.87500000000000011
210
0
220
0
230
-1
0
CIRCLE
5
290
100
AcDbEntity
8
0
100
AcDbCircle
10
-280.98750000000001
20
172.3125
30
0
40
0.5
210
0
220
0
230
-1
0
CIRCLE
5
291
100
AcDbEntity
8
0
100
AcDbCircle
10
-276.38375000000002
20
171.13249999999999
30
0
40
0.73499999999999999
210
0
220
0
230
-1
0
CIRCLE
5
292
100
AcDbEntity
8
0
100
AcDbCircle
10
-261.9375
20
172.3125
30
0
40
0.5
210
0
220
0
230
-1
0
CIRCLE
5
293
100
AcDbEntity
8
0
100
AcDbCircle
10
-259.87374999999997
20
176.21250000000001
30
0
40
0.87500000000000011
210
0
220
0
230
-1
0
CIRCLE
5
294
100
AcDbEntity
8
0
100
AcDbCircle
10
-257.33375000000001
20
171.13249999999999
30
0
40
0.73499999999999999
210
0
220
0
230
-1
0
CIRCLE
5
295
100
AcDbEntity
8
0
100
AcDbCircle
10
-300.03750000000002
20
172.3125
30
0
40
0.5
210
0
220
0
230
-1
0
CIRCLE
5
296
100
AcDbEntity
8
0
100
AcDbCircle
10
-295.43374999999997
20
171.13249999999999
30
0
40
0.73499999999999999
210
0
220
0
230
-1
0
CIRCLE
5
297
100
AcDbEntity
8
0
100
AcDbCircle
10
-230.66374999999999
20
176.21250000000001
30
0
40
0.87500000000000011
210
0
220
0
230
-1
0
CIRCLE
5
298
100
AcDbEntity
8
0
100
AcDbCircle
10
-308.13375000000002
20
173.67250000000001
30
0
40
0.73499999999999999
210
0
220
0
230
-1
0
CIRCLE
5
299
100
AcDbEntity
8
0
100
AcDbCircle
10
-306.86374999999998
20
176.21250000000001
30
0
40
0.87500000000000011
210
0
220
0
230
-1
0
CIRCLE
5
300
100
AcDbEntity
8
0
100
AcDbCircle
10
-352.42500000000001
20
161.0625
30
0
40
0.5
210
0
220
0
230
-1
0
CIRCLE
5
301
100
AcDbEntity
8
0
100
AcDbCircle
10
-333.375
20
161.0625
30
0
40
0.5
210
0
220
0
230
-1
0
CIRCLE
5
302
100
AcDbEntity
8
0
100
AcDbCircle
10
-295.27499999999998
20
161.0625
30
0
40
0.5
210
0
220
0
230
-1
0
CIRCLE
5
303
100
AcDbEntity
8
0
100
AcDbCircle
10
-314.32499999999999
20
161.0625
30
0
40
0.5
210
0
220
0
230
-1
0
CIRCLE
5
304
100
AcDbEntity
8
0
100
AcDbCircle
10
-276.22500000000002
20
161.0625
30
0
40
0.5
210
0
220
0
230
-1
0
CIRCLE
5
305
100
AcDbEntity
8
0
100
AcDbCircle
10
-388.14375000000007
20
167.95750000000001
30
0
40
1.9939
210
0
220
0
230
-1
0
CIRCLE
5
306
100
AcDbEntity
8
0
100
AcDbCircle
10
-390.52500000000003
20
161.0625
30
0
40
0.5
210
0
220
0
230
-1
0
CIRCLE
5
307
100
AcDbEntity
8
0
100
AcDbCircle
10
-371.47500000000002
20
161.0625
30
0
40
0.5
210
0
220
0
230
-1
0
CIRCLE
5
308
100
AcDbEntity
8
0
100
AcDbCircle
10
-238.125
20
161.0625
30
0
40
0.5
210
0
220
0
230
-1
0
CIRCLE
5
309
100
AcDbEntity
8
0
100
AcDbCircle
10
-257.17500000000001
20
161.0625
30
0
40
0.5
210
0
220
0
230
-1
0
CIRCLE
5
310
100
AcDbEntity
8
0
100
AcDbCircle
10
-402.59000000000003
20
171.13249999999999
30
0
40
0.73499999999999999
210
0
220
0
230
-1
0
CIRCLE
5
311
100
AcDbEntity
8
0
100
AcDbCircle
10
-178.59375
20
172.3125
30
0
40
0.5
210
0
220
0
230
-1
0
CIRCLE
5
312
100
AcDbEntity
8
0
100
AcDbCircle
10
-197.64375000000001
20
176.21250000000001
30
0
40
1.9939
210
0
220
0
230
-1
0
CIRCLE
5
313
100
AcDbEntity
8
0
100
AcDbCircle
10
-193.83375000000001
20
173.67250000000001
30
0
40
0.73499999999999999
210
0
220
0
230
-1
0
CIRCLE
5
314
100
AcDbEntity
8
0
100
AcDbCircle
10
-200.18375000000003
20
171.13249999999999
30
0
40
0.73499999999999999
210
0
220
0
230
-1
0
CIRCLE
5
315
100
AcDbEntity
8
0
100
AcDbCircle
10
-221.77375000000001
20
176.21250000000001
30
0
40
0.87500000000000011
210
0
220
0
230
-1
0
CIRCLE
5
316
100
AcDbEntity
8
0
100
AcDbCircle
10
-216.69375000000002
20
176.21250000000001
30
0
40
1.9939
210
0
220
0
230
-1
0
CIRCLE
5
317
100
AcDbEntity
8
0
100
AcDbCircle
10
-219.23374999999999
20
171.13249999999999
30
0
40
0.73499999999999999
210
0
220
0
230
-1
0
CIRCLE
5
318
100
AcDbEntity
8
0
100
AcDbCircle
10
-204.78750000000002
20
172.3125
30
0
40
0.5
210
0
220
0
230
-1
0
CIRCLE
5
319
100
AcDbEntity
8
0
100
AcDbCircle
10
-211.61375000000004
20
176.21250000000001
30
0
40
0.87500000000000011
210
0
220
0
230
-1
0
CIRCLE
5
320
100
AcDbEntity
8
0
100
AcDbCircle
10
-202.72375
20
176.21250000000001
30
0
40
0.87500000000000011
210
0
220
0
230
-1
0
CIRCLE
5
321
100
AcDbEntity
8
0
100
AcDbCircle
10
-219.07499999999999
20
161.0625
30
0
40
0.5
210
0
220
0
230
-1
0
CIRCLE
5
322
100
AcDbEntity
8
0
100
AcDbCircle
10
-200.02500000000001
20
161.0625
30
0
40
0.5
210
0
220
0
230
-1
0
CIRCLE
5
323
100
AcDbEntity
8
0
100
AcDbCircle
10
-178.59375
20
180.11250000000001
30
0
40
0.5
210
0
220
0
230
-1
0
CIRCLE
5
324
100
AcDbEntity
8
0
100
AcDbCircle
10
-223.83750000000003
20
180.11250000000001
30
0
40
0.5
210
0
220
0
230
-1
0
CIRCLE
5
325
100
AcDbEntity
8
0
100
AcDbCircle
10
-357.1875
20
180.11250000000001
30
0
40
0.5
210
0
220
0
230
-1
0
CIRCLE
5
326
100
AcDbEntity
8
0
100
AcDbCircle
10
-174.14875000000001
20
157.16249999999999
30
0
40
0.87500000000000011
210
0
220
0
230
-1
0
CIRCLE
5
327
100
AcDbEntity
8
0
100
AcDbCircle
10
-173.99000000000001
20
171.13249999999999
30
0
40
0.73499999999999999
210
0
220
0
230
-1
0
CIRCLE
5
328
100
AcDbEntity
8
0
100
AcDbCircle
10
-403.38375000000008
20
211.77250000000001
30
0
40
0.73499999999999999
210
0
220
0
230
-1
0
CIRCLE
5
329
100
AcDbEntity
8
0
100
AcDbCircle
10
-402.11375000000004
20
214.31250000000003
30
0
40
0.87500000000000011
210
0
220
0
230
-1
0
CIRCLE
5
330
100
AcDbEntity
8
0
100
AcDbCircle
10
-393.22375
20
214.31250000000003
30
0
40
0.87500000000000011
210
0
220
0
230
-1
0
CIRCLE
5
331
100
AcDbEntity
8
0
100
AcDbCircle
10
-362.90250000000003
20
211.77250000000001
30
0
40
0.73499999999999999
210
0
220
0
230
-1
0
CIRCLE
5
332
100
AcDbEntity
8
0
100
AcDbCircle
10
-371.79250000000002
20
214.31250000000003
30
0
40
0.87500000000000011
210
0
220
0
230
-1
0
CIRCLE
5
333
100
AcDbEntity
8
0
100
AcDbCircle
10
-377.19
20
211.77250000000001
30
0
40
0.73499999999999999
210
0
220
0
230
-1
0
CIRCLE
5
334
100
AcDbEntity
8
0
100
AcDbCircle
10
-375.92000000000007
20
214.31250000000003
30
0
40
0.87500000000000011
210
0
220
0
230
-1
0
CIRCLE
5
335
100
AcDbEntity
8
0
100
AcDbCircle
10
-395.28750000000002
20
210.41250000000002
30
0
40
0.5
210
0
220
0
230
-1
0
CIRCLE
5
336
100
AcDbEntity
8
0
100
AcDbCircle
10
-390.68375000000003
20
209.23249999999999
30
0
40
0.73499999999999999
210
0
220
0
230
-1
0
CIRCLE
5
337
100
AcDbEntity
8
0
100
AcDbCircle
10
-373.85624999999999
20
210.41250000000002
30
0
40
0.5
210
0
220
0
230
-1
0
CIRCLE
5
338
100
AcDbEntity
8
0
100
AcDbCircle
10
-369.2525
20
209.23249999999999
30
0
40
0.73499999999999999
210
0
220
0
230
-1
0
CIRCLE
5
339
100
AcDbEntity
8
0
100
AcDbCircle
10
-366.71249999999998
20
199.16250000000002
30
0
40
0.5
210
0
220
0
230
-1
0
CIRCLE
5
340
100
AcDbEntity
8
0
100
AcDbCircle
10
-385.76250000000005
20
199.16250000000002
30
0
40
0.5
210
0
220
0
230
-1
0
CIRCLE
5
341
100
AcDbEntity
8
0
100
AcDbCircle
10
-376.23750000000001
20
180.11250000000001
30
0
40
0.5
210
0
220
0
230
-1
0
CIRCLE
5
342
100
AcDbEntity
8
0
100
AcDbCircle
10
-362.10874999999999
20
190.1825
30
0
40
0.73499999999999999
210
0
220
0
230
-1
0
CIRCLE
5
343
100
AcDbEntity
8
0
100
AcDbCircle
10
-373.53875000000005
20
195.26250000000002
30
0
40
0.87500000000000011
210
0
220
0
230
-1
0
CIRCLE
5
344
100
AcDbEntity
8
0
100
AcDbCircle
10
-364.64875000000001
20
195.26250000000002
30
0
40
0.87500000000000011
210
0
220
0
230
-1
0
CIRCLE
5
345
100
AcDbEntity
8
0
100
AcDbCircle
10
-374.80874999999997
20
192.7225
30
0
40
0.73499999999999999
210
0
220
0
230
-1
0
CIRCLE
5
346
100
AcDbEntity
8
0
100
AcDbCircle
10
-359.56875000000002
20
195.26250000000002
30
0
40
1.9939
210
0
220
0
230
-1
0
CIRCLE
5
347
100
AcDbEntity
8
0
100
AcDbCircle
10
-369.09375000000006
20
176.21250000000001
30
0
40
1.9939
210
0
220
0
230
-1
0
CIRCLE
5
348
100
AcDbEntity
8
0
100
AcDbCircle
10
-381
20
180.11250000000001
30
0
40
0.5
210
0
220
0
230
-1
0
CIRCLE
5
349
100
AcDbEntity
8
0
100
AcDbCircle
10
-383.69875000000002
20
195.26250000000002
30
0
40
0.87500000000000011
210
0
220
0
230
-1
0
CIRCLE
5
350
100
AcDbEntity
8
0
100
AcDbCircle
10
-381.15875000000005
20
190.1825
30
0
40
0.73499999999999999
210
0
220
0
230
-1
0
CIRCLE
5
351
100
AcDbEntity
8
0
100
AcDbCircle
10
-385.76250000000005
20
191.36250000000001
30
0
40
0.5
210
0
220
0
230
-1
0
CIRCLE
5
352
100
AcDbEntity
8
0
100
AcDbCircle
10
-397.98124999999999
20
185.66249999999999
30
0
40
0.5
210
0
220
0
230
-1
0
CIRCLE
5
353
100
AcDbEntity
8
0
100
AcDbCircle
10
-401.00250000000005
20
192.7225
30
0
40
0.73499999999999999
210
0
220
0
230
-1
0
CIRCLE
5
354
100
AcDbEntity
8
0
100
AcDbCircle
10
-399.73250000000007
20
195.26250000000002
30
0
40
0.87500000000000011
210
0
220
0
230
-1
0
CIRCLE
5
355
100
AcDbEntity
8
0
100
AcDbCircle
10
-359.72750000000008
20
209.23249999999999
30
0
40
0.73499999999999999
210
0
220
0
230
-1
0
CIRCLE
5
356
100
AcDbEntity
8
0
100
AcDbCircle
10
-345.28125
20
206.0575
30
0
40
2.0625
210
0
220
0
230
-1
0
CIRCLE
5
357
100
AcDbEntity
8
0
100
AcDbCircle
10
-347.66250000000008
20
199.16250000000002
30
0
40
0.5
210
0
220
0
230
-1
0
CIRCLE
5
358
100
AcDbEntity
8
0
100
AcDbCircle
10
-343.05875000000003
20
190.1825
30
0
40
0.73499999999999999
210
0
220
0
230
-1
0
CIRCLE
5
359
100
AcDbEntity
8
0
100
AcDbCircle
10
-347.66250000000008
20
191.36250000000001
30
0
40
0.5
210
0
220
0
230
-1
0
CIRCLE
5
360
100
AcDbEntity
8
0
100
AcDbCircle
10
-353.3775
20
211.77250000000001
30
0
40
0.73499999999999999
210
0
220
0
230
-1
0
CIRCLE
5
361
100
AcDbEntity
8
0
100
AcDbCircle
10
-354.48874999999998
20
195.26250000000002
30
0
40
0.87500000000000011
210
0
220
0
230
-1
0
CIRCLE
5
362
100
AcDbEntity
8
0
100
AcDbCircle
10
-355.75875000000002
20
192.7225
30
0
40
0.73499999999999999
210
0
220
0
230
-1
0
CIRCLE
5
363
100
AcDbEntity
8
0
100
AcDbCircle
10
-352.10750000000007
20
214.31250000000003
30
0
40
0.87500000000000011
210
0
220
0
230
-1
0
CIRCLE
5
364
100
AcDbEntity
8
0
100
AcDbCircle
10
-344.96375
20
176.21250000000001
30
0
40
0.87500000000000011
210
0
220
0
230
-1
0
CIRCLE
5
365
100
AcDbEntity
8
0
100
AcDbCircle
10
-280.98750000000001
20
180.11250000000001
30
0
40
0.5
210
0
220
0
230
-1
0
CIRCLE
5
366
100
AcDbEntity
8
0
100
AcDbCircle
10
-283.36874999999998
20
195.26250000000002
30
0
40
1.9939
210
0
220
0
230
-1
0
CIRCLE
5
367
100
AcDbEntity
8
0
100
AcDbCircle
10
-285.90875
20
190.1825
30
0
40
0.73499999999999999
210
0
220
0
230
-1
0
CIRCLE
5
368
100
AcDbEntity
8
0
100
AcDbCircle
10
-298.60874999999999
20
192.7225
30
0
40
0.73499999999999999
210
0
220
0
230
-1
0
CIRCLE
5
369
100
AcDbEntity
8
0
100
AcDbCircle
10
-297.33875
20
195.26250000000002
30
0
40
0.87500000000000011
210
0
220
0
230
-1
0
CIRCLE
5
370
100
AcDbEntity
8
0
100
AcDbCircle
10
-290.51249999999999
20
191.36250000000001
30
0
40
0.5
210
0
220
0
230
-1
0
CIRCLE
5
371
100
AcDbEntity
8
0
100
AcDbCircle
10
-288.44875000000002
20
195.26250000000002
30
0
40
0.87500000000000011
210
0
220
0
230
-1
0
CIRCLE
5
372
100
AcDbEntity
8
0
100
AcDbCircle
10
-307.49874999999997
20
195.26250000000002
30
0
40
0.87500000000000011
210
0
220
0
230
-1
0
CIRCLE
5
373
100
AcDbEntity
8
0
100
AcDbCircle
10
-304.95875000000001
20
190.1825
30
0
40
0.73499999999999999
210
0
220
0
230
-1
0
CIRCLE
5
374
100
AcDbEntity
8
0
100
AcDbCircle
10
-309.5625
20
191.36250000000001
30
0
40
0.5
210
0
220
0
230
-1
0
CIRCLE
5
375
100
AcDbEntity
8
0
100
AcDbCircle
10
-340.51875000000001
20
195.26250000000002
30
0
40
1.9939
210
0
220
0
230
-1
0
CIRCLE
5
376
100
AcDbEntity
8
0
100
AcDbCircle
10
-336.70875000000001
20
192.7225
30
0
40
0.73499999999999999
210
0
220
0
230
-1
0
CIRCLE
5
377
100
AcDbEntity
8
0
100
AcDbCircle
10
-316.38875000000002
20
195.26250000000002
30
0
40
0.87500000000000011
210
0
220
0
230
-1
0
CIRCLE
5
378
100
AcDbEntity
8
0
100
AcDbCircle
10
-317.65875
20
192.7225
30
0
40
0.73499999999999999
210
0
220
0
230
-1
0
CIRCLE
5
379
100
AcDbEntity
8
0
100
AcDbCircle
10
-321.46875
20
195.26250000000002
30
0
40
1.9939
210
0
220
0
230
-1
0
CIRCLE
5
380
100
AcDbEntity
8
0
100
AcDbCircle
10
-319.08749999999998
20
180.11250000000001
30
0
40
0.5
210
0
220
0
230
-1
0
CIRCLE
5
381
100
AcDbEntity
8
0
100
AcDbCircle
10
-338.13749999999999
20
180.11250000000001
30
0
40
0.5
210
0
220
0
230
-1
0
CIRCLE
5
382
100
AcDbEntity
8
0
100
AcDbCircle
10
-324.00875000000008
20
190.1825
30
0
40
0.73499999999999999
210
0
220
0
230
-1
0
CIRCLE
5
383
100
AcDbEntity
8
0
100
AcDbCircle
10
-302.41874999999999
20
210.41250000000002
30
0
40
0.5
210
0
220
0
230
-1
0
CIRCLE
5
384
100
AcDbEntity
8
0
100
AcDbCircle
10
-297.815
20
209.23249999999999
30
0
40
0.73499999999999999
210
0
220
0
230
-1
0
CIRCLE
5
385
100
AcDbEntity
8
0
100
AcDbCircle
10
-290.51249999999999
20
199.16250000000002
30
0
40
0.5
210
0
220
0
230
-1
0
CIRCLE
5
386
100
AcDbEntity
8
0
100
AcDbCircle
10
-307.18124999999998
20
206.0575
30
0
40
1.9939
210
0
220
0
230
-1
0
CIRCLE
5
387
100
AcDbEntity
8
0
100
AcDbCircle
10
-309.5625
20
199.16250000000002
30
0
40
0.5
210
0
220
0
230
-1
0
CIRCLE
5
388
100
AcDbEntity
8
0
100
AcDbCircle
10
-328.61250000000007
20
199.16250000000002
30
0
40
0.5
210
0
220
0
230
-1
0
CIRCLE
5
389
100
AcDbEntity
8
0
100
AcDbCircle
10
-333.53375
20
209.23249999999999
30
0
40
0.73499999999999999
210
0
220
0
230
-1
0
CIRCLE
5
390
100
AcDbEntity
8
0
100
AcDbCircle
10
-338.13749999999999
20
210.41250000000002
30
0
40
0.5
210
0
220
0
230
-1
0
CIRCLE
5
391
100
AcDbEntity
8
0
100
AcDbCircle
10
-283.36874999999998
20
206.0575
30
0
40
2.0625
210
0
220
0
230
-1
0
CIRCLE
5
392
100
AcDbEntity
8
0
100
AcDbCircle
10
-330.99375000000003
20
214.31250000000003
30
0
40
1.9939
210
0
220
0
230
-1
0
CIRCLE
5
393
100
AcDbEntity
8
0
100
AcDbCircle
10
-327.18375000000003
20
211.77250000000001
30
0
40
0.73499999999999999
210
0
220
0
230
-1
0
CIRCLE
5
394
100
AcDbEntity
8
0
100
AcDbCircle
10
-325.91374999999999
20
214.31250000000003
30
0
40
0.87500000000000011
210
0
220
0
230
-1
0
CIRCLE
5
395
100
AcDbEntity
8
0
100
AcDbCircle
10
-283.05124999999998
20
214.31250000000003
30
0
40
0.87500000000000011
210
0
220
0
230
-1
0
CIRCLE
5
396
100
AcDbEntity
8
0
100
AcDbCircle
10
-291.46499999999997
20
211.77250000000001
30
0
40
0.73499999999999999
210
0
220
0
230
-1
0
CIRCLE
5
397
100
AcDbEntity
8
0
100
AcDbCircle
10
-300.35500000000002
20
214.31250000000003
30
0
40
0.87500000000000011
210
0
220
0
230
-1
0
CIRCLE
5
398
100
AcDbEntity
8
0
100
AcDbCircle
10
-292.89375000000001
20
176.21250000000001
30
0
40
1.9939
210
0
220
0
230
-1
0
CIRCLE
5
399
100
AcDbEntity
8
0
100
AcDbCircle
10
-231.29875000000001
20
195.26250000000002
30
0
40
0.87500000000000011
210
0
220
0
230
-1
0
CIRCLE
5
400
100
AcDbEntity
8
0
100
AcDbCircle
10
-240.18875000000003
20
195.26250000000002
30
0
40
0.87500000000000011
210
0
220
0
230
-1
0
CIRCLE
5
401
100
AcDbEntity
8
0
100
AcDbCircle
10
-233.36250000000004
20
191.36250000000001
30
0
40
0.5
210
0
220
0
230
-1
0
CIRCLE
5
402
100
AcDbEntity
8
0
100
AcDbCircle
10
-241.45875000000004
20
192.7225
30
0
40
0.73499999999999999
210
0
220
0
230
-1
0
CIRCLE
5
403
100
AcDbEntity
8
0
100
AcDbCircle
10
-247.80875000000003
20
190.1825
30
0
40
0.73499999999999999
210
0
220
0
230
-1
0
CIRCLE
5
404
100
AcDbEntity
8
0
100
AcDbCircle
10
-245.26875000000004
20
195.26250000000002
30
0
40
1.9939
210
0
220
0
230
-1
0
CIRCLE
5
405
100
AcDbEntity
8
0
100
AcDbCircle
10
-250.34875
20
195.26250000000002
30
0
40
0.87500000000000011
210
0
220
0
230
-1
0
CIRCLE
5
406
100
AcDbEntity
8
0
100
AcDbCircle
10
-252.41250000000002
20
191.36250000000001
30
0
40
0.5
210
0
220
0
230
-1
0
CIRCLE
5
407
100
AcDbEntity
8
0
100
AcDbCircle
10
-242.88749999999999
20
206.0575
30
0
40
2.0625
210
0
220
0
230
-1
0
CIRCLE
5
408
100
AcDbEntity
8
0
100
AcDbCircle
10
-259.87374999999997
20
214.31250000000003
30
0
40
0.87500000000000011
210
0
220
0
230
-1
0
CIRCLE
5
409
100
AcDbEntity
8
0
100
AcDbCircle
10
-260.50875000000008
20
192.7225
30
0
40
0.73499999999999999
210
0
220
0
230
-1
0
CIRCLE
5
410
100
AcDbEntity
8
0
100
AcDbCircle
10
-259.23874999999998
20
195.26250000000002
30
0
40
0.87500000000000011
210
0
220
0
230
-1
0
CIRCLE
5
411
100
AcDbEntity
8
0
100
AcDbCircle
10
-250.98375000000001
20
211.77250000000001
30
0
40
0.73499999999999999
210
0
220
0
230
-1
0
CIRCLE
5
412
100
AcDbEntity
8
0
100
AcDbCircle
10
-254.79375000000002
20
214.31250000000003
30
0
40
1.9939
210
0
220
0
230
-1
0
CIRCLE
5
413
100
AcDbEntity
8
0
100
AcDbCircle
10
-257.33375000000001
20
209.23249999999999
30
0
40
0.73499999999999999
210
0
220
0
230
-1
0
CIRCLE
5
414
100
AcDbEntity
8
0
100
AcDbCircle
10
-252.41250000000002
20
199.16250000000002
30
0
40
0.5
210
0
220
0
230
-1
0
CIRCLE
5
415
100
AcDbEntity
8
0
100
AcDbCircle
10
-261.9375
20
210.41250000000002
30
0
40
0.5
210
0
220
0
230
-1
0
CIRCLE
5
416
100
AcDbEntity
8
0
100
AcDbCircle
10
-266.85874999999999
20
190.1825
30
0
40
0.73499999999999999
210
0
220
0
230
-1
0
CIRCLE
5
417
100
AcDbEntity
8
0
100
AcDbCircle
10
-264.31875000000002
20
195.26250000000002
30
0
40
1.9939
210
0
220
0
230
-1
0
CIRCLE
5
418
100
AcDbEntity
8
0
100
AcDbCircle
10
-266.70000000000005
20
206.0575
30
0
40
2.0625
210
0
220
0
230
-1
0
CIRCLE
5
419
100
AcDbEntity
8
0
100
AcDbCircle
10
-271.46249999999998
20
191.36250000000001
30
0
40
0.5
210
0
220
0
230
-1
0
CIRCLE
5
420
100
AcDbEntity
8
0
100
AcDbCircle
10
-269.39875000000001
20
195.26250000000002
30
0
40
0.87500000000000011
210
0
220
0
230
-1
0
CIRCLE
5
421
100
AcDbEntity
8
0
100
AcDbCircle
10
-271.46249999999998
20
199.16250000000002
30
0
40
0.5
210
0
220
0
230
-1
0
CIRCLE
5
422
100
AcDbEntity
8
0
100
AcDbCircle
10
-268.76375000000002
20
176.21250000000001
30
0
40
0.87500000000000011
210
0
220
0
230
-1
0
CIRCLE
5
423
100
AcDbEntity
8
0
100
AcDbCircle
10
-254.79375000000002
20
176.21250000000001
30
0
40
1.9939
210
0
220
0
230
-1
0
CIRCLE
5
424
100
AcDbEntity
8
0
100
AcDbCircle
10
-204.47000000000003
20
214.31250000000003
30
0
40
0.87500000000000011
210
0
220
0
230
-1
0
CIRCLE
5
425
100
AcDbEntity
8
0
100
AcDbCircle
10
-205.74000000000001
20
211.77250000000001
30
0
40
0.73499999999999999
210
0
220
0
230
-1
0
CIRCLE
5
426
100
AcDbEntity
8
0
100
AcDbCircle
10
-209.55000000000001
20
214.31250000000003
30
0
40
1.9939
210
0
220
0
230
-1
0
CIRCLE
5
427
100
AcDbEntity
8
0
100
AcDbCircle
10
-221.45625000000001
20
214.31250000000003
30
0
40
1.9939
210
0
220
0
230
-1
0
CIRCLE
5
428
100
AcDbEntity
8
0
100
AcDbCircle
10
-217.64625000000001
20
211.77250000000001
30
0
40
0.73499999999999999
210
0
220
0
230
-1
0
CIRCLE
5
429
100
AcDbEntity
8
0
100
AcDbCircle
10
-212.09000000000003
20
209.23249999999999
30
0
40
0.73499999999999999
210
0
220
0
230
-1
0
CIRCLE
5
430
100
AcDbEntity
8
0
100
AcDbCircle
10
-223.99625
20
209.23249999999999
30
0
40
0.73499999999999999
210
0
220
0
230
-1
0
CIRCLE
5
431
100
AcDbEntity
8
0
100
AcDbCircle
10
-226.53625000000002
20
214.31250000000003
30
0
40
0.87500000000000011
210
0
220
0
230
-1
0
CIRCLE
5
432
100
AcDbEntity
8
0
100
AcDbCircle
10
-226.21875000000003
20
195.26250000000002
30
0
40
1.9939
210
0
220
0
230
-1
0
CIRCLE
5
433
100
AcDbEntity
8
0
100
AcDbCircle
10
-221.13875000000002
20
195.26250000000002
30
0
40
0.87500000000000011
210
0
220
0
230
-1
0
CIRCLE
5
434
100
AcDbEntity
8
0
100
AcDbCircle
10
-214.31250000000003
20
199.16250000000002
30
0
40
0.5
210
0
220
0
230
-1
0
CIRCLE
5
435
100
AcDbEntity
8
0
100
AcDbCircle
10
-228.59999999999999
20
210.41250000000002
30
0
40
0.5
210
0
220
0
230
-1
0
CIRCLE
5
436
100
AcDbEntity
8
0
100
AcDbCircle
10
-230.98124999999999
20
206.0575
30
0
40
2.0625
210
0
220
0
230
-1
0
CIRCLE
5
437
100
AcDbEntity
8
0
100
AcDbCircle
10
-233.36250000000004
20
199.16250000000002
30
0
40
0.5
210
0
220
0
230
-1
0
CIRCLE
5
438
100
AcDbEntity
8
0
100
AcDbCircle
10
-203.35875000000001
20
192.7225
30
0
40
0.73499999999999999
210
0
220
0
230
-1
0
CIRCLE
5
439
100
AcDbEntity
8
0
100
AcDbCircle
10
-202.40625
20
210.41250000000002
30
0
40
0.5
210
0
220
0
230
-1
0
CIRCLE
5
440
100
AcDbEntity
8
0
100
AcDbCircle
10
-212.24875
20
195.26250000000002
30
0
40
0.87500000000000011
210
0
220
0
230
-1
0
CIRCLE
5
441
100
AcDbEntity
8
0
100
AcDbCircle
10
-214.31250000000003
20
191.36250000000001
30
0
40
0.5
210
0
220
0
230
-1
0
CIRCLE
5
442
100
AcDbEntity
8
0
100
AcDbCircle
10
-228.75875000000002
20
190.1825
30
0
40
0.73499999999999999
210
0
220
0
230
-1
0
CIRCLE
5
443
100
AcDbEntity
8
0
100
AcDbCircle
10
-209.70875000000004
20
190.1825
30
0
40
0.73499999999999999
210
0
220
0
230
-1
0
CIRCLE
5
444
100
AcDbEntity
8
0
100
AcDbCircle
10
-204.78750000000002
20
180.11250000000001
30
0
40
0.5
210
0
220
0
230
-1
0
CIRCLE
5
445
100
AcDbEntity
8
0
100
AcDbCircle
10
-188.11875000000001
20
202.2475
30
0
40
1.524
210
0
220
0
230
-1
0
CIRCLE
5
446
100
AcDbEntity
8
0
100
AcDbCircle
10
-190.65875000000003
20
209.23249999999999
30
0
40
0.73499999999999999
210
0
220
0
230
-1
0
CIRCLE
5
447
100
AcDbEntity
8
0
100
AcDbCircle
10
-200.3425
20
214.31250000000003
30
0
40
0.87500000000000011
210
0
220
0
230
-1
0
CIRCLE
5
448
100
AcDbEntity
8
0
100
AcDbCircle
10
-191.45250000000001
20
211.77250000000001
30
0
40
0.73499999999999999
210
0
220
0
230
-1
0
CIRCLE
5
449
100
AcDbEntity
8
0
100
AcDbCircle
10
-197.80250000000001
20
209.23249999999999
30
0
40
0.73499999999999999
210
0
220
0
230
-1
0
CIRCLE
5
450
100
AcDbEntity
8
0
100
AcDbCircle
10
-190.65875000000003
20
190.1825
30
0
40
0.73499999999999999
210
0
220
0
230
-1
0
CIRCLE
5
451
100
AcDbEntity
8
0
100
AcDbCircle
10
-193.19874999999999
20
195.26250000000002
30
0
40
0.87500000000000011
210
0
220
0
230
-1
0
CIRCLE
5
452
100
AcDbEntity
8
0
100
AcDbCircle
10
-195.26250000000002
20
199.16250000000002
30
0
40
0.5
210
0
220
0
230
-1
0
CIRCLE
5
453
100
AcDbEntity
8
0
100
AcDbCircle
10
-195.26250000000002
20
191.36250000000001
30
0
40
0.5
210
0
220
0
230
-1
0
CIRCLE
5
454
100
AcDbEntity
8
0
100
AcDbCircle
10
-202.08875000000003
20
195.26250000000002
30
0
40
0.87500000000000011
210
0
220
0
230
-1
0
CIRCLE
5
455
100
AcDbEntity
8
0
100
AcDbCircle
10
-188.11875000000001
20
187.00749999999999
30
0
40
1.9939
210
0
220
0
230
-1
0
CIRCLE
5
456
100
AcDbEntity
8
0
100
AcDbCircle
10
-182.49375000000001
20
202.40625
30
0
40
0.5
210
0
220
0
230
-1
0
CIRCLE
5
457
100
AcDbEntity
8
0
100
AcDbCircle
10
-184.30875
20
211.77250000000001
30
0
40
0.73499999999999999
210
0
220
0
230
-1
0
CIRCLE
5
458
100
AcDbEntity
8
0
100
AcDbCircle
10
-184.30875
20
192.7225
30
0
40
0.73499999999999999
210
0
220
0
230
-1
0
CIRCLE
5
459
100
AcDbEntity
8
0
100
AcDbCircle
10
-178.7525
20
190.1825
30
0
40
0.73499999999999999
210
0
220
0
230
-1
0
CIRCLE
5
460
100
AcDbEntity
8
0
100
AcDbCircle
10
-176.21250000000001
20
195.26250000000002
30
0
40
1.9939
210
0
220
0
230
-1
0
CIRCLE
5
461
100
AcDbEntity
8
0
100
AcDbCircle
10
-176.21250000000001
20
210.41250000000002
30
0
40
0.5
210
0
220
0
230
-1
0
CIRCLE
5
462
100
AcDbEntity
8
0
100
AcDbCircle
10
-176.21250000000001
20
153.26249999999999
30
0
40
0.5
210
0
220
0
230
-1
0
CIRCLE
5
463
100
AcDbEntity
8
0
100
AcDbCircle
10
-176.21250000000001
20
161.0625
30
0
40
0.5
210
0
220
0
230
-1
0
CIRCLE
5
464
100
AcDbEntity
8
0
100
AcDbCircle
10
-176.53000000000003
20
176.21250000000001
30
0
40
0.87500000000000011
210
0
220
0
230
-1
0
CIRCLE
5
465
100
AcDbEntity
8
0
100
AcDbCircle
10
-171.60875000000001
20
152.08250000000001
30
0
40
0.73499999999999999
210
0
220
0
230
-1
0
CIRCLE
5
466
100
AcDbEntity
8
0
100
AcDbCircle
10
-169.06874999999999
20
157.16249999999999
30
0
40
1.9939
210
0
220
0
230
-1
0
CIRCLE
5
467
100
AcDbEntity
8
0
100
AcDbCircle
10
-172.4025
20
192.7225
30
0
40
0.73499999999999999
210
0
220
0
230
-1
0
CIRCLE
5
468
100
AcDbEntity
8
0
100
AcDbCircle
10
-166.6875
20
195.26250000000002
30
0
40
1.9939
210
0
220
0
230
-1
0
CIRCLE
5
469
100
AcDbEntity
8
0
100
AcDbCircle
10
-283.36874999999998
20
221.29750000000001
30
0
40
1.5500000000000003
210
0
220
0
230
-1
0
CIRCLE
5
470
100
AcDbEntity
8
0
100
AcDbCircle
10
-266.70000000000005
20
221.29750000000001
30
0
40
1.5500000000000003
210
0
220
0
230
-1
0
CIRCLE
5
471
100
AcDbEntity
8
0
100
AcDbCircle
10
-230.98124999999999
20
221.29750000000001
30
0
40
1.5500000000000003
210
0
220
0
230
-1
0
CIRCLE
5
472
100
AcDbEntity
8
0
100
AcDbCircle
10
-242.88749999999999
20
221.29750000000001
30
0
40
1.5500000000000003
210
0
220
0
230
-1
0
CIRCLE
5
473
100
AcDbEntity
8
0
100
AcDbCircle
10
-261.9375
20
218.21250000000003
30
0
40
0.5
210
0
220
0
230
-1
0
CIRCLE
5
474
100
AcDbEntity
8
0
100
AcDbCircle
10
-176.21250000000001
20
218.21250000000003
30
0
40
0.5
210
0
220
0
230
-1
0
CIRCLE
5
475
100
AcDbEntity
8
0
100
AcDbCircle
10
-202.40625
20
218.21250000000003
30
0
40
0.5
210
0
220
0
230
-1
0
CIRCLE
5
476
100
AcDbEntity
8
0
100
AcDbCircle
10
-228.59999999999999
20
218.21250000000003
30
0
40
0.5
210
0
220
0
230
-1
0
CIRCLE
5
477
100
AcDbEntity
8
0
100
AcDbCircle
10
-373.85624999999999
20
218.21250000000003
30
0
40
0.5
210
0
220
0
230
-1
0
CIRCLE
5
478
100
AcDbEntity
8
0
100
AcDbCircle
10
-345.28125
20
221.29750000000001
30
0
40
1.5500000000000003
210
0
220
0
230
-1
0
CIRCLE
5
479
100
AcDbEntity
8
0
100
AcDbCircle
10
-307.18124999999998
20
221.29750000000001
30
0
40
1.5500000000000003
210
0
220
0
230
-1
0
CIRCLE
5
480
100
AcDbEntity
8
0
100
AcDbCircle
10
-338.13749999999999
20
218.21250000000003
30
0
40
0.5
210
0
220
0
230
-1
0
CIRCLE
5
481
100
AcDbEntity
8
0
100
AcDbCircle
10
-302.41874999999999
20
218.21250000000003
30
0
40
0.5
210
0
220
0
230
-1
0
CIRCLE
5
482
100
AcDbEntity
8
0
100
AcDbCircle
10
-395.28750000000002
20
218.21250000000003
30
0
40
0.5
210
0
220
0
230
-1
0
CIRCLE
5
483
100
AcDbEntity
8
0
100
AcDbCircle
10
-412.11500000000001
20
171.13249999999999
30
0
40
0.73499999999999999
210
0
220
0
230
-1
0
CIRCLE
5
484
100
AcDbEntity
8
0
100
AcDbCircle
10
-409.57500000000005
20
171.76750000000001
30
0
40
0.87500000000000011
210
0
220
0
230
-1
0
CIRCLE
5
485
100
AcDbEntity
8
0
100
AcDbCircle
10
-409.57500000000005
20
176.21250000000001
30
0
40
1.9939
210
0
220
0
230
-1
0
CIRCLE
5
486
100
AcDbEntity
8
0
100
AcDbCircle
10
-411.95625000000007
20
183.19749999999999
30
0
40
1.524
210
0
220
0
230
-1
0
CIRCLE
5
487
100
AcDbEntity
8
0
100
AcDbCircle
10
-411.95625000000007
20
191.36250000000001
30
0
40
0.5
210
0
220
0
230
-1
0
CIRCLE
5
488
100
AcDbEntity
8
0
100
AcDbCircle
10
-407.35250000000008
20
190.1825
30
0
40
0.73499999999999999
210
0
220
0
230
-1
0
CIRCLE
5
489
100
AcDbEntity
8
0
100
AcDbCircle
10
-405.76500000000004
20
173.67250000000001
30
0
40
0.73499999999999999
210
0
220
0
230
-1
0
CIRCLE
5
490
100
AcDbEntity
8
0
100
AcDbCircle
10
-405.78125
20
185.66249999999999
30
0
40
0.5
210
0
220
0
230
-1
0
CIRCLE
5
491
100
AcDbEntity
8
0
100
AcDbCircle
10
-405.76500000000004
20
211.77250000000001
30
0
40
0.73499999999999999
210
0
220
0
230
-1
0
CIRCLE
5
492
100
AcDbEntity
8
0
100
AcDbCircle
10
-409.73375000000004
20
209.23249999999999
30
0
40
0.73499999999999999
210
0
220
0
230
-1
0
CIRCLE
5
493
100
AcDbEntity
8
0
100
AcDbCircle
10
-411.95625000000007
20
199.16250000000002
30
0
40
0.5
210
0
220
0
230
-1
0
CIRCLE
5
494
100
AcDbEntity
8
0
100
AcDbCircle
10
-404.8125
20
195.26250000000002
30
0
40
1.9939
210
0
220
0
230
-1
0
CIRCLE
5
495
100
AcDbEntity
8
0
100
AcDbCircle
10
-409.73375000000004
20
152.08250000000001
30
0
40
0.73499999999999999
210
0
220
0
230
-1
0
CIRCLE
5
496
100
AcDbEntity
8
0
100
AcDbCircle
10
-407.19375000000008
20
157.16249999999999
30
0
40
1.9939
210
0
220
0
230
-1
0
CIRCLE
5
497
100
AcDbEntity
8
0
100
AcDbCircle
10
-412.11500000000001
20
162.8775
30
0
40
0.73499999999999999
210
0
220
0
230
-1
0
CIRCLE
5
498
100
AcDbEntity
8
0
100
AcDbCircle
10
-412.27375000000001
20
157.16249999999999
30
0
40
0.87500000000000011
210
0
220
0
230
-1
0
CIRCLE
5
499
100
AcDbEntity
8
0
100
AcDbCircle
10
-409.57500000000005
20
161.60750000000002
30
0
40
0.87500000000000011
210
0
220
0
230
-1
0
CIRCLE
5
500
100
AcDbEntity
8
0
100
AcDbCircle
10
-411.09375
20
148.91249999999999
30
0
40
0.5
210
0
220
0
230
-1
0
CIRCLE
5
501
100
AcDbEntity
8
0
100
AcDbCircle
10
-414.65499999999997
20
176.21250000000001
30
0
40
0.87500000000000011
210
0
220
0
230
-1
0
CIRCLE
5
502
100
AcDbEntity
8
0
100
AcDbCircle
10
-414.65499999999997
20
169.22750000000002
30
0
40
0.73499999999999999
210
0
220
0
230
-1
0
CIRCLE
5
503
100
AcDbEntity
8
0
100
AcDbCircle
10
-416.56000000000006
20
154.74950000000001
30
0
40
1.524
210
0
220
0
230
-1
0
CIRCLE
5
504
100
AcDbEntity
8
0
100
AcDbCircle
10
-416.56000000000006
20
178.62549999999999
30
0
40
1.524
210
0
220
0
230
-1
0
CIRCLE
5
505
100
AcDbEntity
8
0
100
AcDbCircle
10
-414.65499999999997
20
214.31250000000003
30
0
40
0.87500000000000011
210
0
220
0
230
-1
0
CIRCLE
5
506
100
AcDbEntity
8
0
100
AcDbCircle
10
-416.71875
20
210.41250000000002
30
0
40
0.5
210
0
220
0
230
-1
0
CIRCLE
5
507
100
AcDbEntity
8
0
100
AcDbCircle
10
-412.11500000000001
20
209.23249999999999
30
0
40
0.73499999999999999
210
0
220
0
230
-1
0
CIRCLE
5
508
100
AcDbEntity
8
0
100
AcDbCircle
10
-409.89249999999998
20
195.26250000000002
30
0
40
0.87500000000000011
210
0
220
0
230
-1
0
CIRCLE
5
509
100
AcDbEntity
8
0
100
AcDbCircle
10
-140.17625000000004
20
176.21250000000001
30
0
40
0.87500000000000011
210
0
220
0
230
-1
0
CIRCLE
5
510
100
AcDbEntity
8
0
100
AcDbCircle
10
-141.44624999999999
20
173.67250000000001
30
0
40
0.73499999999999999
210
0
220
0
230
-1
0
CIRCLE
5
511
100
AcDbEntity
8
0
100
AcDbCircle
10
-145.25624999999999
20
176.21250000000001
30
0
40
1.9939
210
0
220
0
230
-1
0
CIRCLE
5
512
100
AcDbEntity
8
0
100
AcDbCircle
10
-147.79624999999999
20
171.13249999999999
30
0
40
0.73499999999999999
210
0
220
0
230
-1
0
CIRCLE
5
513
100
AcDbEntity
8
0
100
AcDbCircle
10
-145.25624999999999
20
157.16249999999999
30
0
40
1.9939
210
0
220
0
230
-1
0
CIRCLE
5
514
100
AcDbEntity
8
0
100
AcDbCircle
10
-140.17625000000004
20
157.16249999999999
30
0
40
0.87500000000000011
210
0
220
0
230
-1
0
CIRCLE
5
515
100
AcDbEntity
8
0
100
AcDbCircle
10
-141.44624999999999
20
154.6225
30
0
40
0.73499999999999999
210
0
220
0
230
-1
0
CIRCLE
5
516
100
AcDbEntity
8
0
100
AcDbCircle
10
-141.44624999999999
20
192.7225
30
0
40
0.73499999999999999
210
0
220
0
230
-1
0
CIRCLE
5
517
100
AcDbEntity
8
0
100
AcDbCircle
10
-140.17625000000004
20
195.26250000000002
30
0
40
0.87500000000000011
210
0
220
0
230
-1
0
CIRCLE
5
518
100
AcDbEntity
8
0
100
AcDbCircle
10
-145.25624999999999
20
195.26250000000002
30
0
40
1.9939
210
0
220
0
230
-1
0
CIRCLE
5
519
100
AcDbEntity
8
0
100
AcDbCircle
10
-147.79624999999999
20
190.1825
30
0
40
0.73499999999999999
210
0
220
0
230
-1
0
CIRCLE
5
520
100
AcDbEntity
8
0
100
AcDbCircle
10
-147.79624999999999
20
152.08250000000001
30
0
40
0.73499999999999999
210
0
220
0
230
-1
0
CIRCLE
5
521
100
AcDbEntity
8
0
100
AcDbCircle
10
-141.44624999999999
20
211.77250000000001
30
0
40
0.73499999999999999
210
0
220
0
230
-1
0
CIRCLE
5
522
100
AcDbEntity
8
0
100
AcDbCircle
10
-145.25624999999999
20
214.31250000000003
30
0
40
1.9939
210
0
220
0
230
-1
0
CIRCLE
5
523
100
AcDbEntity
8
0
100
AcDbCircle
10
-147.79624999999999
20
209.23249999999999
30
0
40
0.73499999999999999
210
0
220
0
230
-1
0
CIRCLE
5
524
100
AcDbEntity
8
0
100
AcDbCircle
10
-140.17625000000004
20
214.31250000000003
30
0
40
0.87500000000000011
210
0
220
0
230
-1
0
CIRCLE
5
525
100
AcDbEntity
8
0
100
AcDbCircle
10
-138.11250000000001
20
191.36250000000001
30
0
40
0.5
210
0
220
0
230
-1
0
CIRCLE
5
526
100
AcDbEntity
8
0
100
AcDbCircle
10
-138.11250000000001
20
199.16250000000002
30
0
40
0.5
210
0
220
0
230
-1
0
CIRCLE
5
527
100
AcDbEntity
8
0
100
AcDbCircle
10
-138.11250000000001
20
180.11250000000001
30
0
40
0.5
210
0
220
0
230
-1
0
CIRCLE
5
528
100
AcDbEntity
8
0
100
AcDbCircle
10
-138.11250000000001
20
153.26249999999999
30
0
40
0.5
210
0
220
0
230
-1
0
CIRCLE
5
529
100
AcDbEntity
8
0
100
AcDbCircle
10
-138.11250000000001
20
161.0625
30
0
40
0.5
210
0
220
0
230
-1
0
CIRCLE
5
530
100
AcDbEntity
8
0
100
AcDbCircle
10
-138.11250000000001
20
172.3125
30
0
40
0.5
210
0
220
0
230
-1
0
CIRCLE
5
531
100
AcDbEntity
8
0
100
AcDbCircle
10
-138.11250000000001
20
210.41250000000002
30
0
40
0.5
210
0
220
0
230
-1
0
CIRCLE
5
532
100
AcDbEntity
8
0
100
AcDbCircle
10
-138.11250000000001
20
218.21250000000003
30
0
40
0.5
210
0
220
0
230
-1
0
CIRCLE
5
533
100
AcDbEntity
8
0
100
AcDbCircle
10
-416.71875
20
218.21250000000003
30
0
40
0.5
210
0
220
0
230
-1
0
LWPOLYLINE
5
534
100
AcDbEntity
8
0
100
AcDbPolyline
90
32
70
1
43
0.0
10
202.40625
20
223.83750000000003
42
-0.99999999999999989
10
197.64375000000001
20
223.83750000000003
42
0.41421356237309503
10
195.26250000000002
20
226.21875000000003
10
140.49375000000001
20
226.21875000000003
42
0.41421356237309503
10
138.11249999999998
20
223.83750000000003
42
-0.41421356237309503
10
135.73124999999999
20
221.45625000000001
42
0.41421356237309503
10
133.35000000000002
20
219.07499999999999
10
133.35000000000002
20
153.64375000000001
42
0.41421356237309503
10
135.73124999999999
20
151.26250000000002
42
-0.41421356237309503
10
138.11249999999998
20
148.88124999999999
42
0.41421356237309503
10
140.49375000000001
20
146.5
10
235.74375000000003
20
146.5
42
0.41421356237309503
10
238.125
20
148.88124999999999
42
-0.99999999999999989
10
242.88749999999999
20
148.88124999999999
42
0.41421356237309503
10
245.26875000000004
20
146.5
10
330.99375000000003
20
146.5
42
0.41421356237309503
10
333.37500000000006
20
148.88124999999999
42
-0.99999999999999989
10
338.13749999999999
20
148.88124999999999
42
0.41421356237309503
10
340.51875000000001
20
146.5
10
416.71875
20
146.5
42
0.41421356237309503
10
419.09999999999997
20
148.88124999999999
42
-0.41421356237309503
10
421.48124999999999
20
151.26250000000002
42
0.41421356237309503
10
423.86249999999995
20
153.64375000000001
10
423.86250000000007
20
219.07499999999999
42
0.41421356237309503
10
421.48124999999999
20
221.45625000000007
42
-0.41421356237309503
10
419.10000000000002
20
223.83750000000003
42
0.41421356237309503
10
416.71875
20
226.21875000000003
10
361.94999999999999
20
226.21875000000003
42
0.41421356237309503
10
359.56874999999997
20
223.83750000000003
42
-0.99999999999999989
10
354.80625000000003
20
223.83750000000003
42
0.41421356237309503
10
352.42500000000001
20
226.21875000000003
10
204.78750000000002
20
226.21875000000003
42
0.41421356237309503
0
LWPOLYLINE
5
535
100
AcDbEntity
8
0
100
AcDbPolyline
90
4
70
1
43
0.0
10
187.62
20
151.22999999999999
42
-0.99999999999999989
10
187.01999999999998
20
151.22999999999999
10
187.01999999999998
20
152.33000000000001
42
-0.99999999999999989
10
187.62
20
152.33000000000001
0
LWPOLYLINE
5
536
100
AcDbEntity
8
0
100
AcDbPolyline
90
4
70
1
43
0.0
10
187.62
20
147.30000000000001
42
-0.99999999999999989
10
187.01999999999998
20
147.30000000000001
10
187.01999999999998
20
147.90000000000001
42
-0.99999999999999989
10
187.62
20
147.90000000000001
0
LWPOLYLINE
5
537
100
AcDbEntity
8
0
100
AcDbPolyline
90
4
70
1
43
0.0
10
178.38
20
152.33000000000001
42
-0.99999999999999989
10
178.98000000000002
20
152.33000000000001
10
178.98000000000002
20
151.22999999999999
42
-0.99999999999999989
10
178.38
20
151.22999999999999
0
LWPOLYLINE
5
538
100
AcDbEntity
8
0
100
AcDbPolyline
90
4
70
1
43
0.0
10
178.38000000000005
20
147.90000000000001
42
-0.99999999999999989
10
178.97999999999999
20
147.90000000000001
10
178.98000000000002
20
147.30000000000001
42
-0.99999999999999989
10
178.38
20
147.30000000000001
0
ENDSEC
0
SECTION
2
OBJECTS
0
DICTIONARY
5
C
100
AcDbDictionary
3
ACAD_GROUP
350
D
3
ACAD_MLINESTYLE
350
17
0
DICTIONARY
5
D
100
AcDbDictionary
0
DICTIONARY
5
1A
330
C
100
AcDbDictionary
0
DICTIONARY
5
17
100
AcDbDictionary
0
ENDSEC
0
EOF
