0
SECTION
2
HEADER
9
$INSUNITS
70
4
0
ENDSEC
0
SECTION
2
TABLES
0
TABLE
2
LTYPE
0
LTYPE
72
65
70
64
2
CONTINUOUS
3
______
73
0
40
0
0
ENDTAB
0
TABLE
2
LAYER
0
ENDTAB
0
ENDSEC
0
SECTION
2
ENTITIES
0
LINE
8
0
10
3.025
20
-2.525
11
16.025
21
-2.525
0
LINE
8
0
10
3.025
20
-16.525
11
16.025
21
-16.525
0
LINE
8
0
10
2.525
20
-3.025
11
2.525
21
-16.025
0
LINE
8
0
10
16.525
20
-3.025
11
16.525
21
-16.025
0
ARC
8
0
10
3.025
20
-3.025
40
0.5
50
90
51
180
0
ARC
8
0
10
16.025
20
-3.025
40
0.5
50
0
51
90
0
ARC
8
0
10
3.025
20
-16.025
40
0.5
50
180
51
270
0
ARC
8
0
10
16.025
20
-16.025
40
0.5
50
270
51
0
0
LINE
8
0
10
22.075
20
-2.525
11
35.075
21
-2.525
0
LINE
8
0
10
22.075
20
-16.525
11
35.075
21
-16.525
0
LINE
8
0
10
21.575
20
-3.025
11
21.575
21
-16.025
0
LINE
8
0
10
35.575
20
-3.025
11
35.575
21
-16.025
0
ARC
8
0
10
22.075
20
-3.025
40
0.5
50
90
51
180
0
ARC
8
0
10
35.075
20
-3.025
40
0.5
50
0
51
90
0
ARC
8
0
10
22.075
20
-16.025
40
0.5
50
180
51
270
0
ARC
8
0
10
35.075
20
-16.025
40
0.5
50
270
51
0
0
LINE
8
0
10
41.125
20
-2.525
11
54.125
21
-2.525
0
LINE
8
0
10
41.125
20
-16.525
11
54.125
21
-16.525
0
LINE
8
0
10
40.625
20
-3.025
11
40.625
21
-16.025
0
LINE
8
0
10
54.625
20
-3.025
11
54.625
21
-16.025
0
ARC
8
0
10
41.125
20
-3.025
40
0.5
50
90
51
180
0
ARC
8
0
10
54.125
20
-3.025
40
0.5
50
0
51
90
0
ARC
8
0
10
41.125
20
-16.025
40
0.5
50
180
51
270
0
ARC
8
0
10
54.125
20
-16.025
40
0.5
50
270
51
0
0
LINE
8
0
10
60.175
20
-2.525
11
73.175
21
-2.525
0
LINE
8
0
10
60.175
20
-16.525
11
73.175
21
-16.525
0
LINE
8
0
10
59.675
20
-3.025
11
59.675
21
-16.025
0
LINE
8
0
10
73.675
20
-3.025
11
73.675
21
-16.025
0
ARC
8
0
10
60.175
20
-3.025
40
0.5
50
90
51
180
0
ARC
8
0
10
73.175
20
-3.025
40
0.5
50
0
51
90
0
ARC
8
0
10
60.175
20
-16.025
40
0.5
50
180
51
270
0
ARC
8
0
10
73.175
20
-16.025
40
0.5
50
270
51
0
0
LINE
8
0
10
79.225
20
-2.525
11
92.225
21
-2.525
0
LINE
8
0
10
79.225
20
-16.525
11
92.225
21
-16.525
0
LINE
8
0
10
78.725
20
-3.025
11
78.725
21
-16.025
0
LINE
8
0
10
92.725
20
-3.025
11
92.725
21
-16.025
0
ARC
8
0
10
79.225
20
-3.025
40
0.5
50
90
51
180
0
ARC
8
0
10
92.225
20
-3.025
40
0.5
50
0
51
90
0
ARC
8
0
10
79.225
20
-16.025
40
0.5
50
180
51
270
0
ARC
8
0
10
92.225
20
-16.025
40
0.5
50
270
51
0
0
LINE
8
0
10
98.275
20
-2.525
11
111.275
21
-2.525
0
LINE
8
0
10
98.275
20
-16.525
11
111.275
21
-16.525
0
LINE
8
0
10
97.775
20
-3.025
11
97.775
21
-16.025
0
LINE
8
0
10
111.775
20
-3.025
11
111.775
21
-16.025
0
ARC
8
0
10
98.275
20
-3.025
40
0.5
50
90
51
180
0
ARC
8
0
10
111.275
20
-3.025
40
0.5
50
0
51
90
0
ARC
8
0
10
98.275
20
-16.025
40
0.5
50
180
51
270
0
ARC
8
0
10
111.275
20
-16.025
40
0.5
50
270
51
0
0
LINE
8
0
10
117.325
20
-2.525
11
130.325
21
-2.525
0
LINE
8
0
10
117.325
20
-16.525
11
130.325
21
-16.525
0
LINE
8
0
10
116.825
20
-3.025
11
116.825
21
-16.025
0
LINE
8
0
10
130.825
20
-3.025
11
130.825
21
-16.025
0
ARC
8
0
10
117.325
20
-3.025
40
0.5
50
90
51
180
0
ARC
8
0
10
130.325
20
-3.025
40
0.5
50
0
51
90
0
ARC
8
0
10
117.325
20
-16.025
40
0.5
50
180
51
270
0
ARC
8
0
10
130.325
20
-16.025
40
0.5
50
270
51
0
0
LINE
8
0
10
136.375
20
-2.525
11
149.375
21
-2.525
0
LINE
8
0
10
136.375
20
-16.525
11
149.375
21
-16.525
0
LINE
8
0
10
135.875
20
-3.025
11
135.875
21
-16.025
0
LINE
8
0
10
149.875
20
-3.025
11
149.875
21
-16.025
0
ARC
8
0
10
136.375
20
-3.025
40
0.5
50
90
51
180
0
ARC
8
0
10
149.375
20
-3.025
40
0.5
50
0
51
90
0
ARC
8
0
10
136.375
20
-16.025
40
0.5
50
180
51
270
0
ARC
8
0
10
149.375
20
-16.025
40
0.5
50
270
51
0
0
LINE
8
0
10
155.425
20
-2.525
11
168.425
21
-2.525
0
LINE
8
0
10
155.425
20
-16.525
11
168.425
21
-16.525
0
LINE
8
0
10
154.925
20
-3.025
11
154.925
21
-16.025
0
LINE
8
0
10
168.925
20
-3.025
11
168.925
21
-16.025
0
ARC
8
0
10
155.425
20
-3.025
40
0.5
50
90
51
180
0
ARC
8
0
10
168.425
20
-3.025
40
0.5
50
0
51
90
0
ARC
8
0
10
155.425
20
-16.025
40
0.5
50
180
51
270
0
ARC
8
0
10
168.425
20
-16.025
40
0.5
50
270
51
0
0
LINE
8
0
10
174.475
20
-2.525
11
187.475
21
-2.525
0
LINE
8
0
10
174.475
20
-16.525
11
187.475
21
-16.525
0
LINE
8
0
10
173.975
20
-3.025
11
173.975
21
-16.025
0
LINE
8
0
10
187.975
20
-3.025
11
187.975
21
-16.025
0
ARC
8
0
10
174.475
20
-3.025
40
0.5
50
90
51
180
0
ARC
8
0
10
187.475
20
-3.025
40
0.5
50
0
51
90
0
ARC
8
0
10
174.475
20
-16.025
40
0.5
50
180
51
270
0
ARC
8
0
10
187.475
20
-16.025
40
0.5
50
270
51
0
0
LINE
8
0
10
193.525
20
-2.525
11
206.525
21
-2.525
0
LINE
8
0
10
193.525
20
-16.525
11
206.525
21
-16.525
0
LINE
8
0
10
193.025
20
-3.025
11
193.025
21
-16.025
0
LINE
8
0
10
207.025
20
-3.025
11
207.025
21
-16.025
0
ARC
8
0
10
193.525
20
-3.025
40
0.5
50
90
51
180
0
ARC
8
0
10
206.525
20
-3.025
40
0.5
50
0
51
90
0
ARC
8
0
10
193.525
20
-16.025
40
0.5
50
180
51
270
0
ARC
8
0
10
206.525
20
-16.025
40
0.5
50
270
51
0
0
LINE
8
0
10
212.575
20
-2.525
11
225.575
21
-2.525
0
LINE
8
0
10
212.575
20
-16.525
11
225.575
21
-16.525
0
LINE
8
0
10
212.075
20
-3.025
11
212.075
21
-16.025
0
LINE
8
0
10
226.075
20
-3.025
11
226.075
21
-16.025
0
ARC
8
0
10
212.575
20
-3.025
40
0.5
50
90
51
180
0
ARC
8
0
10
225.575
20
-3.025
40
0.5
50
0
51
90
0
ARC
8
0
10
212.575
20
-16.025
40
0.5
50
180
51
270
0
ARC
8
0
10
225.575
20
-16.025
40
0.5
50
270
51
0
0
LINE
8
0
10
231.625
20
-2.525
11
244.625
21
-2.525
0
LINE
8
0
10
231.625
20
-16.525
11
244.625
21
-16.525
0
LINE
8
0
10
231.125
20
-3.025
11
231.125
21
-16.025
0
LINE
8
0
10
245.125
20
-3.025
11
245.125
21
-16.025
0
ARC
8
0
10
231.625
20
-3.025
40
0.5
50
90
51
180
0
ARC
8
0
10
244.625
20
-3.025
40
0.5
50
0
51
90
0
ARC
8
0
10
231.625
20
-16.025
40
0.5
50
180
51
270
0
ARC
8
0
10
244.625
20
-16.025
40
0.5
50
270
51
0
0
LINE
8
0
10
250.675
20
-2.525
11
263.675
21
-2.525
0
LINE
8
0
10
250.675
20
-16.525
11
263.675
21
-16.525
0
LINE
8
0
10
250.175
20
-3.025
11
250.175
21
-16.025
0
LINE
8
0
10
264.175
20
-3.025
11
264.175
21
-16.025
0
ARC
8
0
10
250.675
20
-3.025
40
0.5
50
90
51
180
0
ARC
8
0
10
263.675
20
-3.025
40
0.5
50
0
51
90
0
ARC
8
0
10
250.675
20
-16.025
40
0.5
50
180
51
270
0
ARC
8
0
10
263.675
20
-16.025
40
0.5
50
270
51
0
0
LINE
8
0
10
260.2
20
-2.525
11
273.2
21
-2.525
0
LINE
8
0
10
260.2
20
-16.525
11
273.2
21
-16.525
0
LINE
8
0
10
259.7
20
-3.025
11
259.7
21
-16.025
0
LINE
8
0
10
273.7
20
-3.025
11
273.7
21
-16.025
0
ARC
8
0
10
260.2
20
-3.025
40
0.5
50
90
51
180
0
ARC
8
0
10
273.2
20
-3.025
40
0.5
50
0
51
90
0
ARC
8
0
10
260.2
20
-16.025
40
0.5
50
180
51
270
0
ARC
8
0
10
273.2
20
-16.025
40
0.5
50
270
51
0
0
LINE
8
0
10
251.762
20
-3.525
11
257.762
21
-3.525
0
LINE
8
0
10
251.762
20
-18.525
11
257.762
21
-18.525
0
LINE
8
0
10
251.262
20
-4.025
11
251.262
21
-18.025
0
LINE
8
0
10
258.262
20
-4.025
11
258.262
21
-18.025
0
ARC
8
0
10
251.762
20
-4.025
40
0.5
50
90
51
180
0
ARC
8
0
10
257.762
20
-4.025
40
0.5
50
0
51
90
0
ARC
8
0
10
251.762
20
-18.025
40
0.5
50
180
51
270
0
ARC
8
0
10
257.762
20
-18.025
40
0.5
50
270
51
0
0
LINE
8
0
10
275.638
20
-3.525
11
281.638
21
-3.525
0
LINE
8
0
10
275.638
20
-18.525
11
281.638
21
-18.525
0
LINE
8
0
10
275.138
20
-4.025
11
275.138
21
-18.025
0
LINE
8
0
10
282.138
20
-4.025
11
282.138
21
-18.025
0
ARC
8
0
10
275.638
20
-4.025
40
0.5
50
90
51
180
0
ARC
8
0
10
281.638
20
-4.025
40
0.5
50
0
51
90
0
ARC
8
0
10
275.638
20
-18.025
40
0.5
50
180
51
270
0
ARC
8
0
10
281.638
20
-18.025
40
0.5
50
270
51
0
0
LINE
8
0
10
283.225
20
-12.55
11
283.225
21
-25.55
0
LINE
8
0
10
269.225
20
-12.55
11
269.225
21
-25.55
0
LINE
8
0
10
282.725
20
-12.05
11
269.725
21
-12.05
0
LINE
8
0
10
282.725
20
-26.05
11
269.725
21
-26.05
0
ARC
8
0
10
282.725
20
-12.55
40
0.5
50
0
51
90
0
ARC
8
0
10
282.725
20
-25.55
40
0.5
50
270
51
0
0
ARC
8
0
10
269.725
20
-12.55
40
0.5
50
90
51
180
0
ARC
8
0
10
269.725
20
-25.55
40
0.5
50
180
51
270
0
LINE
8
0
10
282.225
20
-4.112
11
282.225
21
-10.112
0
LINE
8
0
10
267.225
20
-4.112
11
267.225
21
-10.112
0
LINE
8
0
10
281.725
20
-3.612
11
267.725
21
-3.612
0
LINE
8
0
10
281.725
20
-10.612
11
267.725
21
-10.612
0
ARC
8
0
10
281.725
20
-4.112
40
0.5
50
0
51
90
0
ARC
8
0
10
281.725
20
-10.112
40
0.5
50
270
51
0
0
ARC
8
0
10
267.725
20
-4.112
40
0.5
50
90
51
180
0
ARC
8
0
10
267.725
20
-10.112
40
0.5
50
180
51
270
0
LINE
8
0
10
282.225
20
-27.988
11
282.225
21
-33.988
0
LINE
8
0
10
267.225
20
-27.988
11
267.225
21
-33.988
0
LINE
8
0
10
281.725
20
-27.488
11
267.725
21
-27.488
0
LINE
8
0
10
281.725
20
-34.488
11
267.725
21
-34.488
0
ARC
8
0
10
281.725
20
-27.988
40
0.5
50
0
51
90
0
ARC
8
0
10
281.725
20
-33.988
40
0.5
50
270
51
0
0
ARC
8
0
10
267.725
20
-27.988
40
0.5
50
90
51
180
0
ARC
8
0
10
267.725
20
-33.988
40
0.5
50
180
51
270
0
LINE
8
0
10
5.40625
20
-21.575
11
18.40625
21
-21.575
0
LINE
8
0
10
5.40625
20
-35.575
11
18.40625
21
-35.575
0
LINE
8
0
10
4.90625
20
-22.075
11
4.90625
21
-35.075
0
LINE
8
0
10
18.90625
20
-22.075
11
18.90625
21
-35.075
0
ARC
8
0
10
5.40625
20
-22.075
40
0.5
50
90
51
180
0
ARC
8
0
10
18.40625
20
-22.075
40
0.5
50
0
51
90
0
ARC
8
0
10
5.40625
20
-35.075
40
0.5
50
180
51
270
0
ARC
8
0
10
18.40625
20
-35.075
40
0.5
50
270
51
0
0
LINE
8
0
10
26.8375
20
-21.575
11
39.8375
21
-21.575
0
LINE
8
0
10
26.8375
20
-35.575
11
39.8375
21
-35.575
0
LINE
8
0
10
26.3375
20
-22.075
11
26.3375
21
-35.075
0
LINE
8
0
10
40.3375
20
-22.075
11
40.3375
21
-35.075
0
ARC
8
0
10
26.8375
20
-22.075
40
0.5
50
90
51
180
0
ARC
8
0
10
39.8375
20
-22.075
40
0.5
50
0
51
90
0
ARC
8
0
10
26.8375
20
-35.075
40
0.5
50
180
51
270
0
ARC
8
0
10
39.8375
20
-35.075
40
0.5
50
270
51
0
0
LINE
8
0
10
45.8875
20
-21.575
11
58.8875
21
-21.575
0
LINE
8
0
10
45.8875
20
-35.575
11
58.8875
21
-35.575
0
LINE
8
0
10
45.3875
20
-22.075
11
45.3875
21
-35.075
0
LINE
8
0
10
59.3875
20
-22.075
11
59.3875
21
-35.075
0
ARC
8
0
10
45.8875
20
-22.075
40
0.5
50
90
51
180
0
ARC
8
0
10
58.8875
20
-22.075
40
0.5
50
0
51
90
0
ARC
8
0
10
45.8875
20
-35.075
40
0.5
50
180
51
270
0
ARC
8
0
10
58.8875
20
-35.075
40
0.5
50
270
51
0
0
LINE
8
0
10
64.9375
20
-21.575
11
77.9375
21
-21.575
0
LINE
8
0
10
64.9375
20
-35.575
11
77.9375
21
-35.575
0
LINE
8
0
10
64.4375
20
-22.075
11
64.4375
21
-35.075
0
LINE
8
0
10
78.4375
20
-22.075
11
78.4375
21
-35.075
0
ARC
8
0
10
64.9375
20
-22.075
40
0.5
50
90
51
180
0
ARC
8
0
10
77.9375
20
-22.075
40
0.5
50
0
51
90
0
ARC
8
0
10
64.9375
20
-35.075
40
0.5
50
180
51
270
0
ARC
8
0
10
77.9375
20
-35.075
40
0.5
50
270
51
0
0
LINE
8
0
10
83.9875
20
-21.575
11
96.9875
21
-21.575
0
LINE
8
0
10
83.9875
20
-35.575
11
96.9875
21
-35.575
0
LINE
8
0
10
83.4875
20
-22.075
11
83.4875
21
-35.075
0
LINE
8
0
10
97.4875
20
-22.075
11
97.4875
21
-35.075
0
ARC
8
0
10
83.9875
20
-22.075
40
0.5
50
90
51
180
0
ARC
8
0
10
96.9875
20
-22.075
40
0.5
50
0
51
90
0
ARC
8
0
10
83.9875
20
-35.075
40
0.5
50
180
51
270
0
ARC
8
0
10
96.9875
20
-35.075
40
0.5
50
270
51
0
0
LINE
8
0
10
103.0375
20
-21.575
11
116.0375
21
-21.575
0
LINE
8
0
10
103.0375
20
-35.575
11
116.0375
21
-35.575
0
LINE
8
0
10
102.5375
20
-22.075
11
102.5375
21
-35.075
0
LINE
8
0
10
116.5375
20
-22.075
11
116.5375
21
-35.075
0
ARC
8
0
10
103.0375
20
-22.075
40
0.5
50
90
51
180
0
ARC
8
0
10
116.0375
20
-22.075
40
0.5
50
0
51
90
0
ARC
8
0
10
103.0375
20
-35.075
40
0.5
50
180
51
270
0
ARC
8
0
10
116.0375
20
-35.075
40
0.5
50
270
51
0
0
LINE
8
0
10
122.0875
20
-21.575
11
135.0875
21
-21.575
0
LINE
8
0
10
122.0875
20
-35.575
11
135.0875
21
-35.575
0
LINE
8
0
10
121.5875
20
-22.075
11
121.5875
21
-35.075
0
LINE
8
0
10
135.5875
20
-22.075
11
135.5875
21
-35.075
0
ARC
8
0
10
122.0875
20
-22.075
40
0.5
50
90
51
180
0
ARC
8
0
10
135.0875
20
-22.075
40
0.5
50
0
51
90
0
ARC
8
0
10
122.0875
20
-35.075
40
0.5
50
180
51
270
0
ARC
8
0
10
135.0875
20
-35.075
40
0.5
50
270
51
0
0
LINE
8
0
10
141.1375
20
-21.575
11
154.1375
21
-21.575
0
LINE
8
0
10
141.1375
20
-35.575
11
154.1375
21
-35.575
0
LINE
8
0
10
140.6375
20
-22.075
11
140.6375
21
-35.075
0
LINE
8
0
10
154.6375
20
-22.075
11
154.6375
21
-35.075
0
ARC
8
0
10
141.1375
20
-22.075
40
0.5
50
90
51
180
0
ARC
8
0
10
154.1375
20
-22.075
40
0.5
50
0
51
90
0
ARC
8
0
10
141.1375
20
-35.075
40
0.5
50
180
51
270
0
ARC
8
0
10
154.1375
20
-35.075
40
0.5
50
270
51
0
0
LINE
8
0
10
160.1875
20
-21.575
11
173.1875
21
-21.575
0
LINE
8
0
10
160.1875
20
-35.575
11
173.1875
21
-35.575
0
LINE
8
0
10
159.6875
20
-22.075
11
159.6875
21
-35.075
0
LINE
8
0
10
173.6875
20
-22.075
11
173.6875
21
-35.075
0
ARC
8
0
10
160.1875
20
-22.075
40
0.5
50
90
51
180
0
ARC
8
0
10
173.1875
20
-22.075
40
0.5
50
0
51
90
0
ARC
8
0
10
160.1875
20
-35.075
40
0.5
50
180
51
270
0
ARC
8
0
10
173.1875
20
-35.075
40
0.5
50
270
51
0
0
LINE
8
0
10
179.2375
20
-21.575
11
192.2375
21
-21.575
0
LINE
8
0
10
179.2375
20
-35.575
11
192.2375
21
-35.575
0
LINE
8
0
10
178.7375
20
-22.075
11
178.7375
21
-35.075
0
LINE
8
0
10
192.7375
20
-22.075
11
192.7375
21
-35.075
0
ARC
8
0
10
179.2375
20
-22.075
40
0.5
50
90
51
180
0
ARC
8
0
10
192.2375
20
-22.075
40
0.5
50
0
51
90
0
ARC
8
0
10
179.2375
20
-35.075
40
0.5
50
180
51
270
0
ARC
8
0
10
192.2375
20
-35.075
40
0.5
50
270
51
0
0
LINE
8
0
10
198.2875
20
-21.575
11
211.2875
21
-21.575
0
LINE
8
0
10
198.2875
20
-35.575
11
211.2875
21
-35.575
0
LINE
8
0
10
197.7875
20
-22.075
11
197.7875
21
-35.075
0
LINE
8
0
10
211.7875
20
-22.075
11
211.7875
21
-35.075
0
ARC
8
0
10
198.2875
20
-22.075
40
0.5
50
90
51
180
0
ARC
8
0
10
211.2875
20
-22.075
40
0.5
50
0
51
90
0
ARC
8
0
10
198.2875
20
-35.075
40
0.5
50
180
51
270
0
ARC
8
0
10
211.2875
20
-35.075
40
0.5
50
270
51
0
0
LINE
8
0
10
217.3375
20
-21.575
11
230.3375
21
-21.575
0
LINE
8
0
10
217.3375
20
-35.575
11
230.3375
21
-35.575
0
LINE
8
0
10
216.8375
20
-22.075
11
216.8375
21
-35.075
0
LINE
8
0
10
230.8375
20
-22.075
11
230.8375
21
-35.075
0
ARC
8
0
10
217.3375
20
-22.075
40
0.5
50
90
51
180
0
ARC
8
0
10
230.3375
20
-22.075
40
0.5
50
0
51
90
0
ARC
8
0
10
217.3375
20
-35.075
40
0.5
50
180
51
270
0
ARC
8
0
10
230.3375
20
-35.075
40
0.5
50
270
51
0
0
LINE
8
0
10
236.3875
20
-21.575
11
249.3875
21
-21.575
0
LINE
8
0
10
236.3875
20
-35.575
11
249.3875
21
-35.575
0
LINE
8
0
10
235.8875
20
-22.075
11
235.8875
21
-35.075
0
LINE
8
0
10
249.8875
20
-22.075
11
249.8875
21
-35.075
0
ARC
8
0
10
236.3875
20
-22.075
40
0.5
50
90
51
180
0
ARC
8
0
10
249.3875
20
-22.075
40
0.5
50
0
51
90
0
ARC
8
0
10
236.3875
20
-35.075
40
0.5
50
180
51
270
0
ARC
8
0
10
249.3875
20
-35.075
40
0.5
50
270
51
0
0
LINE
8
0
10
262.58125
20
-21.575
11
275.58125
21
-21.575
0
LINE
8
0
10
262.58125
20
-35.575
11
275.58125
21
-35.575
0
LINE
8
0
10
262.08125
20
-22.075
11
262.08125
21
-35.075
0
LINE
8
0
10
276.08125
20
-22.075
11
276.08125
21
-35.075
0
ARC
8
0
10
262.58125
20
-22.075
40
0.5
50
90
51
180
0
ARC
8
0
10
275.58125
20
-22.075
40
0.5
50
0
51
90
0
ARC
8
0
10
262.58125
20
-35.075
40
0.5
50
180
51
270
0
ARC
8
0
10
275.58125
20
-35.075
40
0.5
50
270
51
0
0
LINE
8
0
10
262.58125
20
-21.575
11
275.58125
21
-21.575
0
LINE
8
0
10
262.58125
20
-35.575
11
275.58125
21
-35.575
0
LINE
8
0
10
262.08125
20
-22.075
11
262.08125
21
-35.075
0
LINE
8
0
10
276.08125
20
-22.075
11
276.08125
21
-35.075
0
ARC
8
0
10
262.58125
20
-22.075
40
0.5
50
90
51
180
0
ARC
8
0
10
275.58125
20
-22.075
40
0.5
50
0
51
90
0
ARC
8
0
10
262.58125
20
-35.075
40
0.5
50
180
51
270
0
ARC
8
0
10
275.58125
20
-35.075
40
0.5
50
270
51
0
0
LINE
8
0
10
10.16875
20
-40.625
11
23.16875
21
-40.625
0
LINE
8
0
10
10.16875
20
-54.625
11
23.16875
21
-54.625
0
LINE
8
0
10
9.66875
20
-41.125
11
9.66875
21
-54.125
0
LINE
8
0
10
23.66875
20
-41.125
11
23.66875
21
-54.125
0
ARC
8
0
10
10.16875
20
-41.125
40
0.5
50
90
51
180
0
ARC
8
0
10
23.16875
20
-41.125
40
0.5
50
0
51
90
0
ARC
8
0
10
10.16875
20
-54.125
40
0.5
50
180
51
270
0
ARC
8
0
10
23.16875
20
-54.125
40
0.5
50
270
51
0
0
LINE
8
0
10
36.3625
20
-40.625
11
49.3625
21
-40.625
0
LINE
8
0
10
36.3625
20
-54.625
11
49.3625
21
-54.625
0
LINE
8
0
10
35.8625
20
-41.125
11
35.8625
21
-54.125
0
LINE
8
0
10
49.8625
20
-41.125
11
49.8625
21
-54.125
0
ARC
8
0
10
36.3625
20
-41.125
40
0.5
50
90
51
180
0
ARC
8
0
10
49.3625
20
-41.125
40
0.5
50
0
51
90
0
ARC
8
0
10
36.3625
20
-54.125
40
0.5
50
180
51
270
0
ARC
8
0
10
49.3625
20
-54.125
40
0.5
50
270
51
0
0
LINE
8
0
10
55.4125
20
-40.625
11
68.4125
21
-40.625
0
LINE
8
0
10
55.4125
20
-54.625
11
68.4125
21
-54.625
0
LINE
8
0
10
54.9125
20
-41.125
11
54.9125
21
-54.125
0
LINE
8
0
10
68.9125
20
-41.125
11
68.9125
21
-54.125
0
ARC
8
0
10
55.4125
20
-41.125
40
0.5
50
90
51
180
0
ARC
8
0
10
68.4125
20
-41.125
40
0.5
50
0
51
90
0
ARC
8
0
10
55.4125
20
-54.125
40
0.5
50
180
51
270
0
ARC
8
0
10
68.4125
20
-54.125
40
0.5
50
270
51
0
0
LINE
8
0
10
74.4625
20
-40.625
11
87.4625
21
-40.625
0
LINE
8
0
10
74.4625
20
-54.625
11
87.4625
21
-54.625
0
LINE
8
0
10
73.9625
20
-41.125
11
73.9625
21
-54.125
0
LINE
8
0
10
87.9625
20
-41.125
11
87.9625
21
-54.125
0
ARC
8
0
10
74.4625
20
-41.125
40
0.5
50
90
51
180
0
ARC
8
0
10
87.4625
20
-41.125
40
0.5
50
0
51
90
0
ARC
8
0
10
74.4625
20
-54.125
40
0.5
50
180
51
270
0
ARC
8
0
10
87.4625
20
-54.125
40
0.5
50
270
51
0
0
LINE
8
0
10
93.5125
20
-40.625
11
106.5125
21
-40.625
0
LINE
8
0
10
93.5125
20
-54.625
11
106.5125
21
-54.625
0
LINE
8
0
10
93.0125
20
-41.125
11
93.0125
21
-54.125
0
LINE
8
0
10
107.0125
20
-41.125
11
107.0125
21
-54.125
0
ARC
8
0
10
93.5125
20
-41.125
40
0.5
50
90
51
180
0
ARC
8
0
10
106.5125
20
-41.125
40
0.5
50
0
51
90
0
ARC
8
0
10
93.5125
20
-54.125
40
0.5
50
180
51
270
0
ARC
8
0
10
106.5125
20
-54.125
40
0.5
50
270
51
0
0
LINE
8
0
10
112.5625
20
-40.625
11
125.5625
21
-40.625
0
LINE
8
0
10
112.5625
20
-54.625
11
125.5625
21
-54.625
0
LINE
8
0
10
112.0625
20
-41.125
11
112.0625
21
-54.125
0
LINE
8
0
10
126.0625
20
-41.125
11
126.0625
21
-54.125
0
ARC
8
0
10
112.5625
20
-41.125
40
0.5
50
90
51
180
0
ARC
8
0
10
125.5625
20
-41.125
40
0.5
50
0
51
90
0
ARC
8
0
10
112.5625
20
-54.125
40
0.5
50
180
51
270
0
ARC
8
0
10
125.5625
20
-54.125
40
0.5
50
270
51
0
0
LINE
8
0
10
131.6125
20
-40.625
11
144.6125
21
-40.625
0
LINE
8
0
10
131.6125
20
-54.625
11
144.6125
21
-54.625
0
LINE
8
0
10
131.1125
20
-41.125
11
131.1125
21
-54.125
0
LINE
8
0
10
145.1125
20
-41.125
11
145.1125
21
-54.125
0
ARC
8
0
10
131.6125
20
-41.125
40
0.5
50
90
51
180
0
ARC
8
0
10
144.6125
20
-41.125
40
0.5
50
0
51
90
0
ARC
8
0
10
131.6125
20
-54.125
40
0.5
50
180
51
270
0
ARC
8
0
10
144.6125
20
-54.125
40
0.5
50
270
51
0
0
LINE
8
0
10
150.6625
20
-40.625
11
163.6625
21
-40.625
0
LINE
8
0
10
150.6625
20
-54.625
11
163.6625
21
-54.625
0
LINE
8
0
10
150.1625
20
-41.125
11
150.1625
21
-54.125
0
LINE
8
0
10
164.1625
20
-41.125
11
164.1625
21
-54.125
0
ARC
8
0
10
150.6625
20
-41.125
40
0.5
50
90
51
180
0
ARC
8
0
10
163.6625
20
-41.125
40
0.5
50
0
51
90
0
ARC
8
0
10
150.6625
20
-54.125
40
0.5
50
180
51
270
0
ARC
8
0
10
163.6625
20
-54.125
40
0.5
50
270
51
0
0
LINE
8
0
10
169.7125
20
-40.625
11
182.7125
21
-40.625
0
LINE
8
0
10
169.7125
20
-54.625
11
182.7125
21
-54.625
0
LINE
8
0
10
169.2125
20
-41.125
11
169.2125
21
-54.125
0
LINE
8
0
10
183.2125
20
-41.125
11
183.2125
21
-54.125
0
ARC
8
0
10
169.7125
20
-41.125
40
0.5
50
90
51
180
0
ARC
8
0
10
182.7125
20
-41.125
40
0.5
50
0
51
90
0
ARC
8
0
10
169.7125
20
-54.125
40
0.5
50
180
51
270
0
ARC
8
0
10
182.7125
20
-54.125
40
0.5
50
270
51
0
0
LINE
8
0
10
188.7625
20
-40.625
11
201.7625
21
-40.625
0
LINE
8
0
10
188.7625
20
-54.625
11
201.7625
21
-54.625
0
LINE
8
0
10
188.2625
20
-41.125
11
188.2625
21
-54.125
0
LINE
8
0
10
202.2625
20
-41.125
11
202.2625
21
-54.125
0
ARC
8
0
10
188.7625
20
-41.125
40
0.5
50
90
51
180
0
ARC
8
0
10
201.7625
20
-41.125
40
0.5
50
0
51
90
0
ARC
8
0
10
188.7625
20
-54.125
40
0.5
50
180
51
270
0
ARC
8
0
10
201.7625
20
-54.125
40
0.5
50
270
51
0
0
LINE
8
0
10
207.8125
20
-40.625
11
220.8125
21
-40.625
0
LINE
8
0
10
207.8125
20
-54.625
11
220.8125
21
-54.625
0
LINE
8
0
10
207.3125
20
-41.125
11
207.3125
21
-54.125
0
LINE
8
0
10
221.3125
20
-41.125
11
221.3125
21
-54.125
0
ARC
8
0
10
207.8125
20
-41.125
40
0.5
50
90
51
180
0
ARC
8
0
10
220.8125
20
-41.125
40
0.5
50
0
51
90
0
ARC
8
0
10
207.8125
20
-54.125
40
0.5
50
180
51
270
0
ARC
8
0
10
220.8125
20
-54.125
40
0.5
50
270
51
0
0
LINE
8
0
10
226.8625
20
-40.625
11
239.8625
21
-40.625
0
LINE
8
0
10
226.8625
20
-54.625
11
239.8625
21
-54.625
0
LINE
8
0
10
226.3625
20
-41.125
11
226.3625
21
-54.125
0
LINE
8
0
10
240.3625
20
-41.125
11
240.3625
21
-54.125
0
ARC
8
0
10
226.8625
20
-41.125
40
0.5
50
90
51
180
0
ARC
8
0
10
239.8625
20
-41.125
40
0.5
50
0
51
90
0
ARC
8
0
10
226.8625
20
-54.125
40
0.5
50
180
51
270
0
ARC
8
0
10
239.8625
20
-54.125
40
0.5
50
270
51
0
0
LINE
8
0
10
238.76875
20
-40.625
11
251.76875
21
-40.625
0
LINE
8
0
10
238.76875
20
-54.625
11
251.76875
21
-54.625
0
LINE
8
0
10
238.26875
20
-41.125
11
238.26875
21
-54.125
0
LINE
8
0
10
252.26875
20
-41.125
11
252.26875
21
-54.125
0
ARC
8
0
10
238.76875
20
-41.125
40
0.5
50
90
51
180
0
ARC
8
0
10
251.76875
20
-41.125
40
0.5
50
0
51
90
0
ARC
8
0
10
238.76875
20
-54.125
40
0.5
50
180
51
270
0
ARC
8
0
10
251.76875
20
-54.125
40
0.5
50
270
51
0
0
LINE
8
0
10
230.33075
20
-41.625
11
236.33075
21
-41.625
0
LINE
8
0
10
230.33075
20
-56.625
11
236.33075
21
-56.625
0
LINE
8
0
10
229.83075
20
-42.125
11
229.83075
21
-56.125
0
LINE
8
0
10
236.83075
20
-42.125
11
236.83075
21
-56.125
0
ARC
8
0
10
230.33075
20
-42.125
40
0.5
50
90
51
180
0
ARC
8
0
10
236.33075
20
-42.125
40
0.5
50
0
51
90
0
ARC
8
0
10
230.33075
20
-56.125
40
0.5
50
180
51
270
0
ARC
8
0
10
236.33075
20
-56.125
40
0.5
50
270
51
0
0
LINE
8
0
10
254.20675
20
-41.625
11
260.20675
21
-41.625
0
LINE
8
0
10
254.20675
20
-56.625
11
260.20675
21
-56.625
0
LINE
8
0
10
253.70675
20
-42.125
11
253.70675
21
-56.125
0
LINE
8
0
10
260.70675
20
-42.125
11
260.70675
21
-56.125
0
ARC
8
0
10
254.20675
20
-42.125
40
0.5
50
90
51
180
0
ARC
8
0
10
260.20675
20
-42.125
40
0.5
50
0
51
90
0
ARC
8
0
10
254.20675
20
-56.125
40
0.5
50
180
51
270
0
ARC
8
0
10
260.20675
20
-56.125
40
0.5
50
270
51
0
0
LINE
8
0
10
226.8625
20
-40.625
11
239.8625
21
-40.625
0
LINE
8
0
10
226.8625
20
-54.625
11
239.8625
21
-54.625
0
LINE
8
0
10
226.3625
20
-41.125
11
226.3625
21
-54.125
0
LINE
8
0
10
240.3625
20
-41.125
11
240.3625
21
-54.125
0
ARC
8
0
10
226.8625
20
-41.125
40
0.5
50
90
51
180
0
ARC
8
0
10
239.8625
20
-41.125
40
0.5
50
0
51
90
0
ARC
8
0
10
226.8625
20
-54.125
40
0.5
50
180
51
270
0
ARC
8
0
10
239.8625
20
-54.125
40
0.5
50
270
51
0
0
LINE
8
0
10
257.81875
20
-40.625
11
270.81875
21
-40.625
0
LINE
8
0
10
257.81875
20
-54.625
11
270.81875
21
-54.625
0
LINE
8
0
10
257.31875
20
-41.125
11
257.31875
21
-54.125
0
LINE
8
0
10
271.31875
20
-41.125
11
271.31875
21
-54.125
0
ARC
8
0
10
257.81875
20
-41.125
40
0.5
50
90
51
180
0
ARC
8
0
10
270.81875
20
-41.125
40
0.5
50
0
51
90
0
ARC
8
0
10
257.81875
20
-54.125
40
0.5
50
180
51
270
0
ARC
8
0
10
270.81875
20
-54.125
40
0.5
50
270
51
0
0
LINE
8
0
10
249.38075
20
-41.625
11
255.38075
21
-41.625
0
LINE
8
0
10
249.38075
20
-56.625
11
255.38075
21
-56.625
0
LINE
8
0
10
248.88075
20
-42.125
11
248.88075
21
-56.125
0
LINE
8
0
10
255.88075
20
-42.125
11
255.88075
21
-56.125
0
ARC
8
0
10
249.38075
20
-42.125
40
0.5
50
90
51
180
0
ARC
8
0
10
255.38075
20
-42.125
40
0.5
50
0
51
90
0
ARC
8
0
10
249.38075
20
-56.125
40
0.5
50
180
51
270
0
ARC
8
0
10
255.38075
20
-56.125
40
0.5
50
270
51
0
0
LINE
8
0
10
273.25675
20
-41.625
11
279.25675
21
-41.625
0
LINE
8
0
10
273.25675
20
-56.625
11
279.25675
21
-56.625
0
LINE
8
0
10
272.75675
20
-42.125
11
272.75675
21
-56.125
0
LINE
8
0
10
279.75675
20
-42.125
11
279.75675
21
-56.125
0
ARC
8
0
10
273.25675
20
-42.125
40
0.5
50
90
51
180
0
ARC
8
0
10
279.25675
20
-42.125
40
0.5
50
0
51
90
0
ARC
8
0
10
273.25675
20
-56.125
40
0.5
50
180
51
270
0
ARC
8
0
10
279.25675
20
-56.125
40
0.5
50
270
51
0
0
LINE
8
0
10
269.725
20
-40.625
11
282.725
21
-40.625
0
LINE
8
0
10
269.725
20
-54.625
11
282.725
21
-54.625
0
LINE
8
0
10
269.225
20
-41.125
11
269.225
21
-54.125
0
LINE
8
0
10
283.225
20
-41.125
11
283.225
21
-54.125
0
ARC
8
0
10
269.725
20
-41.125
40
0.5
50
90
51
180
0
ARC
8
0
10
282.725
20
-41.125
40
0.5
50
0
51
90
0
ARC
8
0
10
269.725
20
-54.125
40
0.5
50
180
51
270
0
ARC
8
0
10
282.725
20
-54.125
40
0.5
50
270
51
0
0
LINE
8
0
10
7.7875
20
-59.675
11
20.7875
21
-59.675
0
LINE
8
0
10
7.7875
20
-73.675
11
20.7875
21
-73.675
0
LINE
8
0
10
7.2875
20
-60.175
11
7.2875
21
-73.175
0
LINE
8
0
10
21.2875
20
-60.175
11
21.2875
21
-73.175
0
ARC
8
0
10
7.7875
20
-60.175
40
0.5
50
90
51
180
0
ARC
8
0
10
20.7875
20
-60.175
40
0.5
50
0
51
90
0
ARC
8
0
10
7.7875
20
-73.175
40
0.5
50
180
51
270
0
ARC
8
0
10
20.7875
20
-73.175
40
0.5
50
270
51
0
0
LINE
8
0
10
7.7875
20
-59.675
11
20.7875
21
-59.675
0
LINE
8
0
10
7.7875
20
-73.675
11
20.7875
21
-73.675
0
LINE
8
0
10
7.2875
20
-60.175
11
7.2875
21
-73.175
0
LINE
8
0
10
21.2875
20
-60.175
11
21.2875
21
-73.175
0
ARC
8
0
10
7.7875
20
-60.175
40
0.5
50
90
51
180
0
ARC
8
0
10
20.7875
20
-60.175
40
0.5
50
0
51
90
0
ARC
8
0
10
7.7875
20
-73.175
40
0.5
50
180
51
270
0
ARC
8
0
10
20.7875
20
-73.175
40
0.5
50
270
51
0
0
LINE
8
0
10
7.7875
20
-59.675
11
20.7875
21
-59.675
0
LINE
8
0
10
7.7875
20
-73.675
11
20.7875
21
-73.675
0
LINE
8
0
10
7.2875
20
-60.175
11
7.2875
21
-73.175
0
LINE
8
0
10
21.2875
20
-60.175
11
21.2875
21
-73.175
0
ARC
8
0
10
7.7875
20
-60.175
40
0.5
50
90
51
180
0
ARC
8
0
10
20.7875
20
-60.175
40
0.5
50
0
51
90
0
ARC
8
0
10
7.7875
20
-73.175
40
0.5
50
180
51
270
0
ARC
8
0
10
20.7875
20
-73.175
40
0.5
50
270
51
0
0
LINE
8
0
10
22.075
20
-59.675
11
35.075
21
-59.675
0
LINE
8
0
10
22.075
20
-73.675
11
35.075
21
-73.675
0
LINE
8
0
10
21.575
20
-60.175
11
21.575
21
-73.175
0
LINE
8
0
10
35.575
20
-60.175
11
35.575
21
-73.175
0
ARC
8
0
10
22.075
20
-60.175
40
0.5
50
90
51
180
0
ARC
8
0
10
35.075
20
-60.175
40
0.5
50
0
51
90
0
ARC
8
0
10
22.075
20
-73.175
40
0.5
50
180
51
270
0
ARC
8
0
10
35.075
20
-73.175
40
0.5
50
270
51
0
0
LINE
8
0
10
6.525
20
-60.675
11
12.525
21
-60.675
0
LINE
8
0
10
6.525
20
-75.675
11
12.525
21
-75.675
0
LINE
8
0
10
6.025
20
-61.175
11
6.025
21
-75.175
0
LINE
8
0
10
13.025
20
-61.175
11
13.025
21
-75.175
0
ARC
8
0
10
6.525
20
-61.175
40
0.5
50
90
51
180
0
ARC
8
0
10
12.525
20
-61.175
40
0.5
50
0
51
90
0
ARC
8
0
10
6.525
20
-75.175
40
0.5
50
180
51
270
0
ARC
8
0
10
12.525
20
-75.175
40
0.5
50
270
51
0
0
LINE
8
0
10
44.625
20
-60.675
11
50.625
21
-60.675
0
LINE
8
0
10
44.625
20
-75.675
11
50.625
21
-75.675
0
LINE
8
0
10
44.125
20
-61.175
11
44.125
21
-75.175
0
LINE
8
0
10
51.125
20
-61.175
11
51.125
21
-75.175
0
ARC
8
0
10
44.625
20
-61.175
40
0.5
50
90
51
180
0
ARC
8
0
10
50.625
20
-61.175
40
0.5
50
0
51
90
0
ARC
8
0
10
44.625
20
-75.175
40
0.5
50
180
51
270
0
ARC
8
0
10
50.625
20
-75.175
40
0.5
50
270
51
0
0
LINE
8
0
10
31.6
20
-59.675
11
44.6
21
-59.675
0
LINE
8
0
10
31.6
20
-73.675
11
44.6
21
-73.675
0
LINE
8
0
10
31.1
20
-60.175
11
31.1
21
-73.175
0
LINE
8
0
10
45.1
20
-60.175
11
45.1
21
-73.175
0
ARC
8
0
10
31.6
20
-60.175
40
0.5
50
90
51
180
0
ARC
8
0
10
44.6
20
-60.175
40
0.5
50
0
51
90
0
ARC
8
0
10
31.6
20
-73.175
40
0.5
50
180
51
270
0
ARC
8
0
10
44.6
20
-73.175
40
0.5
50
270
51
0
0
LINE
8
0
10
31.6
20
-59.675
11
44.6
21
-59.675
0
LINE
8
0
10
31.6
20
-73.675
11
44.6
21
-73.675
0
LINE
8
0
10
31.1
20
-60.175
11
31.1
21
-73.175
0
LINE
8
0
10
45.1
20
-60.175
11
45.1
21
-73.175
0
ARC
8
0
10
31.6
20
-60.175
40
0.5
50
90
51
180
0
ARC
8
0
10
44.6
20
-60.175
40
0.5
50
0
51
90
0
ARC
8
0
10
31.6
20
-73.175
40
0.5
50
180
51
270
0
ARC
8
0
10
44.6
20
-73.175
40
0.5
50
270
51
0
0
LINE
8
0
10
31.6
20
-59.675
11
44.6
21
-59.675
0
LINE
8
0
10
31.6
20
-73.675
11
44.6
21
-73.675
0
LINE
8
0
10
31.1
20
-60.175
11
31.1
21
-73.175
0
LINE
8
0
10
45.1
20
-60.175
11
45.1
21
-73.175
0
ARC
8
0
10
31.6
20
-60.175
40
0.5
50
90
51
180
0
ARC
8
0
10
44.6
20
-60.175
40
0.5
50
0
51
90
0
ARC
8
0
10
31.6
20
-73.175
40
0.5
50
180
51
270
0
ARC
8
0
10
44.6
20
-73.175
40
0.5
50
270
51
0
0
LINE
8
0
10
50.65
20
-59.675
11
63.65
21
-59.675
0
LINE
8
0
10
50.65
20
-73.675
11
63.65
21
-73.675
0
LINE
8
0
10
50.15
20
-60.175
11
50.15
21
-73.175
0
LINE
8
0
10
64.15
20
-60.175
11
64.15
21
-73.175
0
ARC
8
0
10
50.65
20
-60.175
40
0.5
50
90
51
180
0
ARC
8
0
10
63.65
20
-60.175
40
0.5
50
0
51
90
0
ARC
8
0
10
50.65
20
-73.175
40
0.5
50
180
51
270
0
ARC
8
0
10
63.65
20
-73.175
40
0.5
50
270
51
0
0
LINE
8
0
10
55.4125
20
-59.675
11
68.4125
21
-59.675
0
LINE
8
0
10
55.4125
20
-73.675
11
68.4125
21
-73.675
0
LINE
8
0
10
54.9125
20
-60.175
11
54.9125
21
-73.175
0
LINE
8
0
10
68.9125
20
-60.175
11
68.9125
21
-73.175
0
ARC
8
0
10
55.4125
20
-60.175
40
0.5
50
90
51
180
0
ARC
8
0
10
68.4125
20
-60.175
40
0.5
50
0
51
90
0
ARC
8
0
10
55.4125
20
-73.175
40
0.5
50
180
51
270
0
ARC
8
0
10
68.4125
20
-73.175
40
0.5
50
270
51
0
0
LINE
8
0
10
55.4125
20
-59.675
11
68.4125
21
-59.675
0
LINE
8
0
10
55.4125
20
-73.675
11
68.4125
21
-73.675
0
LINE
8
0
10
54.9125
20
-60.175
11
54.9125
21
-73.175
0
LINE
8
0
10
68.9125
20
-60.175
11
68.9125
21
-73.175
0
ARC
8
0
10
55.4125
20
-60.175
40
0.5
50
90
51
180
0
ARC
8
0
10
68.4125
20
-60.175
40
0.5
50
0
51
90
0
ARC
8
0
10
55.4125
20
-73.175
40
0.5
50
180
51
270
0
ARC
8
0
10
68.4125
20
-73.175
40
0.5
50
270
51
0
0
LINE
8
0
10
136.375
20
-59.675
11
149.375
21
-59.675
0
LINE
8
0
10
136.375
20
-73.675
11
149.375
21
-73.675
0
LINE
8
0
10
135.875
20
-60.175
11
135.875
21
-73.175
0
LINE
8
0
10
149.875
20
-60.175
11
149.875
21
-73.175
0
ARC
8
0
10
136.375
20
-60.175
40
0.5
50
90
51
180
0
ARC
8
0
10
149.375
20
-60.175
40
0.5
50
0
51
90
0
ARC
8
0
10
136.375
20
-73.175
40
0.5
50
180
51
270
0
ARC
8
0
10
149.375
20
-73.175
40
0.5
50
270
51
0
0
LINE
8
0
10
73.2
20
-60.675
11
79.2
21
-60.675
0
LINE
8
0
10
73.2
20
-75.675
11
79.2
21
-75.675
0
LINE
8
0
10
72.7
20
-61.175
11
72.7
21
-75.175
0
LINE
8
0
10
79.7
20
-61.175
11
79.7
21
-75.175
0
ARC
8
0
10
73.2
20
-61.175
40
0.5
50
90
51
180
0
ARC
8
0
10
79.2
20
-61.175
40
0.5
50
0
51
90
0
ARC
8
0
10
73.2
20
-75.175
40
0.5
50
180
51
270
0
ARC
8
0
10
79.2
20
-75.175
40
0.5
50
270
51
0
0
LINE
8
0
10
206.55
20
-60.675
11
212.55
21
-60.675
0
LINE
8
0
10
206.55
20
-75.675
11
212.55
21
-75.675
0
LINE
8
0
10
206.05
20
-61.175
11
206.05
21
-75.175
0
LINE
8
0
10
213.05
20
-61.175
11
213.05
21
-75.175
0
ARC
8
0
10
206.55
20
-61.175
40
0.5
50
90
51
180
0
ARC
8
0
10
212.55
20
-61.175
40
0.5
50
0
51
90
0
ARC
8
0
10
206.55
20
-75.175
40
0.5
50
180
51
270
0
ARC
8
0
10
212.55
20
-75.175
40
0.5
50
270
51
0
0
LINE
8
0
10
136.375
20
-59.675
11
149.375
21
-59.675
0
LINE
8
0
10
136.375
20
-73.675
11
149.375
21
-73.675
0
LINE
8
0
10
135.875
20
-60.175
11
135.875
21
-73.175
0
LINE
8
0
10
149.875
20
-60.175
11
149.875
21
-73.175
0
ARC
8
0
10
136.375
20
-60.175
40
0.5
50
90
51
180
0
ARC
8
0
10
149.375
20
-60.175
40
0.5
50
0
51
90
0
ARC
8
0
10
136.375
20
-73.175
40
0.5
50
180
51
270
0
ARC
8
0
10
149.375
20
-73.175
40
0.5
50
270
51
0
0
LINE
8
0
10
82.725
20
-60.675
11
88.725
21
-60.675
0
LINE
8
0
10
82.725
20
-75.675
11
88.725
21
-75.675
0
LINE
8
0
10
82.225
20
-61.175
11
82.225
21
-75.175
0
LINE
8
0
10
89.225
20
-61.175
11
89.225
21
-75.175
0
ARC
8
0
10
82.725
20
-61.175
40
0.5
50
90
51
180
0
ARC
8
0
10
88.725
20
-61.175
40
0.5
50
0
51
90
0
ARC
8
0
10
82.725
20
-75.175
40
0.5
50
180
51
270
0
ARC
8
0
10
88.725
20
-75.175
40
0.5
50
270
51
0
0
LINE
8
0
10
197.025
20
-60.675
11
203.025
21
-60.675
0
LINE
8
0
10
197.025
20
-75.675
11
203.025
21
-75.675
0
LINE
8
0
10
196.525
20
-61.175
11
196.525
21
-75.175
0
LINE
8
0
10
203.525
20
-61.175
11
203.525
21
-75.175
0
ARC
8
0
10
197.025
20
-61.175
40
0.5
50
90
51
180
0
ARC
8
0
10
203.025
20
-61.175
40
0.5
50
0
51
90
0
ARC
8
0
10
197.025
20
-75.175
40
0.5
50
180
51
270
0
ARC
8
0
10
203.025
20
-75.175
40
0.5
50
270
51
0
0
LINE
8
0
10
98.275
20
-59.675
11
111.275
21
-59.675
0
LINE
8
0
10
98.275
20
-73.675
11
111.275
21
-73.675
0
LINE
8
0
10
97.775
20
-60.175
11
97.775
21
-73.175
0
LINE
8
0
10
111.775
20
-60.175
11
111.775
21
-73.175
0
ARC
8
0
10
98.275
20
-60.175
40
0.5
50
90
51
180
0
ARC
8
0
10
111.275
20
-60.175
40
0.5
50
0
51
90
0
ARC
8
0
10
98.275
20
-73.175
40
0.5
50
180
51
270
0
ARC
8
0
10
111.275
20
-73.175
40
0.5
50
270
51
0
0
LINE
8
0
10
82.725
20
-60.675
11
88.725
21
-60.675
0
LINE
8
0
10
82.725
20
-75.675
11
88.725
21
-75.675
0
LINE
8
0
10
82.225
20
-61.175
11
82.225
21
-75.175
0
LINE
8
0
10
89.225
20
-61.175
11
89.225
21
-75.175
0
ARC
8
0
10
82.725
20
-61.175
40
0.5
50
90
51
180
0
ARC
8
0
10
88.725
20
-61.175
40
0.5
50
0
51
90
0
ARC
8
0
10
82.725
20
-75.175
40
0.5
50
180
51
270
0
ARC
8
0
10
88.725
20
-75.175
40
0.5
50
270
51
0
0
LINE
8
0
10
120.825
20
-60.675
11
126.825
21
-60.675
0
LINE
8
0
10
120.825
20
-75.675
11
126.825
21
-75.675
0
LINE
8
0
10
120.325
20
-61.175
11
120.325
21
-75.175
0
LINE
8
0
10
127.325
20
-61.175
11
127.325
21
-75.175
0
ARC
8
0
10
120.825
20
-61.175
40
0.5
50
90
51
180
0
ARC
8
0
10
126.825
20
-61.175
40
0.5
50
0
51
90
0
ARC
8
0
10
120.825
20
-75.175
40
0.5
50
180
51
270
0
ARC
8
0
10
126.825
20
-75.175
40
0.5
50
270
51
0
0
LINE
8
0
10
136.375
20
-59.675
11
149.375
21
-59.675
0
LINE
8
0
10
136.375
20
-73.675
11
149.375
21
-73.675
0
LINE
8
0
10
135.875
20
-60.175
11
135.875
21
-73.175
0
LINE
8
0
10
149.875
20
-60.175
11
149.875
21
-73.175
0
ARC
8
0
10
136.375
20
-60.175
40
0.5
50
90
51
180
0
ARC
8
0
10
149.375
20
-60.175
40
0.5
50
0
51
90
0
ARC
8
0
10
136.375
20
-73.175
40
0.5
50
180
51
270
0
ARC
8
0
10
149.375
20
-73.175
40
0.5
50
270
51
0
0
LINE
8
0
10
174.475
20
-59.675
11
187.475
21
-59.675
0
LINE
8
0
10
174.475
20
-73.675
11
187.475
21
-73.675
0
LINE
8
0
10
173.975
20
-60.175
11
173.975
21
-73.175
0
LINE
8
0
10
187.975
20
-60.175
11
187.975
21
-73.175
0
ARC
8
0
10
174.475
20
-60.175
40
0.5
50
90
51
180
0
ARC
8
0
10
187.475
20
-60.175
40
0.5
50
0
51
90
0
ARC
8
0
10
174.475
20
-73.175
40
0.5
50
180
51
270
0
ARC
8
0
10
187.475
20
-73.175
40
0.5
50
270
51
0
0
LINE
8
0
10
158.925
20
-60.675
11
164.925
21
-60.675
0
LINE
8
0
10
158.925
20
-75.675
11
164.925
21
-75.675
0
LINE
8
0
10
158.425
20
-61.175
11
158.425
21
-75.175
0
LINE
8
0
10
165.425
20
-61.175
11
165.425
21
-75.175
0
ARC
8
0
10
158.925
20
-61.175
40
0.5
50
90
51
180
0
ARC
8
0
10
164.925
20
-61.175
40
0.5
50
0
51
90
0
ARC
8
0
10
158.925
20
-75.175
40
0.5
50
180
51
270
0
ARC
8
0
10
164.925
20
-75.175
40
0.5
50
270
51
0
0
LINE
8
0
10
197.025
20
-60.675
11
203.025
21
-60.675
0
LINE
8
0
10
197.025
20
-75.675
11
203.025
21
-75.675
0
LINE
8
0
10
196.525
20
-61.175
11
196.525
21
-75.175
0
LINE
8
0
10
203.525
20
-61.175
11
203.525
21
-75.175
0
ARC
8
0
10
197.025
20
-61.175
40
0.5
50
90
51
180
0
ARC
8
0
10
203.025
20
-61.175
40
0.5
50
0
51
90
0
ARC
8
0
10
197.025
20
-75.175
40
0.5
50
180
51
270
0
ARC
8
0
10
203.025
20
-75.175
40
0.5
50
270
51
0
0
LINE
8
0
10
217.3375
20
-59.675
11
230.3375
21
-59.675
0
LINE
8
0
10
217.3375
20
-73.675
11
230.3375
21
-73.675
0
LINE
8
0
10
216.8375
20
-60.175
11
216.8375
21
-73.175
0
LINE
8
0
10
230.8375
20
-60.175
11
230.8375
21
-73.175
0
ARC
8
0
10
217.3375
20
-60.175
40
0.5
50
90
51
180
0
ARC
8
0
10
230.3375
20
-60.175
40
0.5
50
0
51
90
0
ARC
8
0
10
217.3375
20
-73.175
40
0.5
50
180
51
270
0
ARC
8
0
10
230.3375
20
-73.175
40
0.5
50
270
51
0
0
LINE
8
0
10
217.3375
20
-59.675
11
230.3375
21
-59.675
0
LINE
8
0
10
217.3375
20
-73.675
11
230.3375
21
-73.675
0
LINE
8
0
10
216.8375
20
-60.175
11
216.8375
21
-73.175
0
LINE
8
0
10
230.8375
20
-60.175
11
230.8375
21
-73.175
0
ARC
8
0
10
217.3375
20
-60.175
40
0.5
50
90
51
180
0
ARC
8
0
10
230.3375
20
-60.175
40
0.5
50
0
51
90
0
ARC
8
0
10
217.3375
20
-73.175
40
0.5
50
180
51
270
0
ARC
8
0
10
230.3375
20
-73.175
40
0.5
50
270
51
0
0
LINE
8
0
10
222.1
20
-59.675
11
235.1
21
-59.675
0
LINE
8
0
10
222.1
20
-73.675
11
235.1
21
-73.675
0
LINE
8
0
10
221.6
20
-60.175
11
221.6
21
-73.175
0
LINE
8
0
10
235.6
20
-60.175
11
235.6
21
-73.175
0
ARC
8
0
10
222.1
20
-60.175
40
0.5
50
90
51
180
0
ARC
8
0
10
235.1
20
-60.175
40
0.5
50
0
51
90
0
ARC
8
0
10
222.1
20
-73.175
40
0.5
50
180
51
270
0
ARC
8
0
10
235.1
20
-73.175
40
0.5
50
270
51
0
0
LINE
8
0
10
241.15
20
-59.675
11
254.15
21
-59.675
0
LINE
8
0
10
241.15
20
-73.675
11
254.15
21
-73.675
0
LINE
8
0
10
240.65
20
-60.175
11
240.65
21
-73.175
0
LINE
8
0
10
254.65
20
-60.175
11
254.65
21
-73.175
0
ARC
8
0
10
241.15
20
-60.175
40
0.5
50
90
51
180
0
ARC
8
0
10
254.15
20
-60.175
40
0.5
50
0
51
90
0
ARC
8
0
10
241.15
20
-73.175
40
0.5
50
180
51
270
0
ARC
8
0
10
254.15
20
-73.175
40
0.5
50
270
51
0
0
LINE
8
0
10
241.15
20
-59.675
11
254.15
21
-59.675
0
LINE
8
0
10
241.15
20
-73.675
11
254.15
21
-73.675
0
LINE
8
0
10
240.65
20
-60.175
11
240.65
21
-73.175
0
LINE
8
0
10
254.65
20
-60.175
11
254.65
21
-73.175
0
ARC
8
0
10
241.15
20
-60.175
40
0.5
50
90
51
180
0
ARC
8
0
10
254.15
20
-60.175
40
0.5
50
0
51
90
0
ARC
8
0
10
241.15
20
-73.175
40
0.5
50
180
51
270
0
ARC
8
0
10
254.15
20
-73.175
40
0.5
50
270
51
0
0
LINE
8
0
10
241.15
20
-59.675
11
254.15
21
-59.675
0
LINE
8
0
10
241.15
20
-73.675
11
254.15
21
-73.675
0
LINE
8
0
10
240.65
20
-60.175
11
240.65
21
-73.175
0
LINE
8
0
10
254.65
20
-60.175
11
254.65
21
-73.175
0
ARC
8
0
10
241.15
20
-60.175
40
0.5
50
90
51
180
0
ARC
8
0
10
254.15
20
-60.175
40
0.5
50
0
51
90
0
ARC
8
0
10
241.15
20
-73.175
40
0.5
50
180
51
270
0
ARC
8
0
10
254.15
20
-73.175
40
0.5
50
270
51
0
0
LINE
8
0
10
264.9625
20
-59.675
11
277.9625
21
-59.675
0
LINE
8
0
10
264.9625
20
-73.675
11
277.9625
21
-73.675
0
LINE
8
0
10
264.4625
20
-60.175
11
264.4625
21
-73.175
0
LINE
8
0
10
278.4625
20
-60.175
11
278.4625
21
-73.175
0
ARC
8
0
10
264.9625
20
-60.175
40
0.5
50
90
51
180
0
ARC
8
0
10
277.9625
20
-60.175
40
0.5
50
0
51
90
0
ARC
8
0
10
264.9625
20
-73.175
40
0.5
50
180
51
270
0
ARC
8
0
10
277.9625
20
-73.175
40
0.5
50
270
51
0
0
LINE
8
0
10
264.9625
20
-59.675
11
277.9625
21
-59.675
0
LINE
8
0
10
264.9625
20
-73.675
11
277.9625
21
-73.675
0
LINE
8
0
10
264.4625
20
-60.175
11
264.4625
21
-73.175
0
LINE
8
0
10
278.4625
20
-60.175
11
278.4625
21
-73.175
0
ARC
8
0
10
264.9625
20
-60.175
40
0.5
50
90
51
180
0
ARC
8
0
10
277.9625
20
-60.175
40
0.5
50
0
51
90
0
ARC
8
0
10
264.9625
20
-73.175
40
0.5
50
180
51
270
0
ARC
8
0
10
277.9625
20
-73.175
40
0.5
50
270
51
0
0
LINE
8
0
10
264.9625
20
-59.675
11
277.9625
21
-59.675
0
LINE
8
0
10
264.9625
20
-73.675
11
277.9625
21
-73.675
0
LINE
8
0
10
264.4625
20
-60.175
11
264.4625
21
-73.175
0
LINE
8
0
10
278.4625
20
-60.175
11
278.4625
21
-73.175
0
ARC
8
0
10
264.9625
20
-60.175
40
0.5
50
90
51
180
0
ARC
8
0
10
277.9625
20
-60.175
40
0.5
50
0
51
90
0
ARC
8
0
10
264.9625
20
-73.175
40
0.5
50
180
51
270
0
ARC
8
0
10
277.9625
20
-73.175
40
0.5
50
270
51
0
0
LINE
8
0
10
0
20
-76.2
11
285.75
21
-76.2
0
LINE
8
0
10
0
20
0
11
285.75
21
0
0
LINE
8
0
10
0
20
-76.2
11
0
21
0
0
LINE
8
0
10
285.75
20
-76.2
11
285.75
21
0
0
ENDSEC
0
EOF