%TF.GenerationSoftware,KiCad,Pcbnew,(6.0.4)*%
%TF.CreationDate,2022-03-30T13:59:28+02:00*%
%TF.ProjectId,32u2,33327532-2e6b-4696-9361-645f70636258,rev?*%
%TF.SameCoordinates,Original*%
%TF.FileFunction,Legend,Bot*%
%TF.FilePolarity,Positive*%
%FSLAX46Y46*%
G04 Gerber Fmt 4.6, Leading zero omitted, Abs format (unit mm)*
G04 Created by KiCad (PCBNEW (6.0.4)) date 2022-03-30 13:59:28*
%MOMM*%
%LPD*%
G01*
G04 APERTURE LIST*
%ADD10C,0.150000*%
%ADD11C,0.120000*%
%ADD12C,0.010000*%
G04 APERTURE END LIST*
D10*
%TO.C,C1*%
X48270389Y-87234687D02*
X48337732Y-87234687D01*
X48472419Y-87167343D01*
X48539763Y-87100000D01*
X48607106Y-86965312D01*
X48607106Y-86830625D01*
X48573435Y-86729610D01*
X48472419Y-86561251D01*
X48371404Y-86460236D01*
X48203045Y-86359221D01*
X48102030Y-86325549D01*
X47967343Y-86325549D01*
X47832656Y-86392893D01*
X47765312Y-86460236D01*
X47697969Y-86594923D01*
X47697969Y-86662267D01*
X47664297Y-87975465D02*
X48068358Y-87571404D01*
X47866328Y-87773435D02*
X47159221Y-87066328D01*
X47327580Y-87100000D01*
X47462267Y-87100000D01*
X47563282Y-87066328D01*
%TO.C,SW0*%
X28283333Y-84683333D02*
X28183333Y-84716666D01*
X28016666Y-84716666D01*
X27950000Y-84683333D01*
X27916666Y-84650000D01*
X27883333Y-84583333D01*
X27883333Y-84516666D01*
X27916666Y-84450000D01*
X27950000Y-84416666D01*
X28016666Y-84383333D01*
X28150000Y-84350000D01*
X28216666Y-84316666D01*
X28250000Y-84283333D01*
X28283333Y-84216666D01*
X28283333Y-84150000D01*
X28250000Y-84083333D01*
X28216666Y-84050000D01*
X28150000Y-84016666D01*
X27983333Y-84016666D01*
X27883333Y-84050000D01*
X27650000Y-84016666D02*
X27483333Y-84716666D01*
X27350000Y-84216666D01*
X27216666Y-84716666D01*
X27050000Y-84016666D01*
X26650000Y-84016666D02*
X26583333Y-84016666D01*
X26516666Y-84050000D01*
X26483333Y-84083333D01*
X26450000Y-84150000D01*
X26416666Y-84283333D01*
X26416666Y-84450000D01*
X26450000Y-84583333D01*
X26483333Y-84650000D01*
X26516666Y-84683333D01*
X26583333Y-84716666D01*
X26650000Y-84716666D01*
X26716666Y-84683333D01*
X26750000Y-84650000D01*
X26783333Y-84583333D01*
X26816666Y-84450000D01*
X26816666Y-84283333D01*
X26783333Y-84150000D01*
X26750000Y-84083333D01*
X26716666Y-84050000D01*
X26650000Y-84016666D01*
%TO.C,C3*%
X53266666Y-62507142D02*
X53314285Y-62554761D01*
X53457142Y-62602380D01*
X53552380Y-62602380D01*
X53695238Y-62554761D01*
X53790476Y-62459523D01*
X53838095Y-62364285D01*
X53885714Y-62173809D01*
X53885714Y-62030952D01*
X53838095Y-61840476D01*
X53790476Y-61745238D01*
X53695238Y-61650000D01*
X53552380Y-61602380D01*
X53457142Y-61602380D01*
X53314285Y-61650000D01*
X53266666Y-61697619D01*
X52933333Y-61602380D02*
X52314285Y-61602380D01*
X52647619Y-61983333D01*
X52504761Y-61983333D01*
X52409523Y-62030952D01*
X52361904Y-62078571D01*
X52314285Y-62173809D01*
X52314285Y-62411904D01*
X52361904Y-62507142D01*
X52409523Y-62554761D01*
X52504761Y-62602380D01*
X52790476Y-62602380D01*
X52885714Y-62554761D01*
X52933333Y-62507142D01*
%TO.C,Y0*%
X45819880Y-84396446D02*
X46156598Y-84733164D01*
X45685193Y-83790355D02*
X45819880Y-84396446D01*
X45213789Y-84261759D01*
X44843399Y-84632148D02*
X44776056Y-84699492D01*
X44742384Y-84800507D01*
X44742384Y-84867851D01*
X44776056Y-84968866D01*
X44877071Y-85137225D01*
X45045430Y-85305583D01*
X45213789Y-85406599D01*
X45314804Y-85440270D01*
X45382147Y-85440270D01*
X45483163Y-85406599D01*
X45550506Y-85339255D01*
X45584178Y-85238240D01*
X45584178Y-85170896D01*
X45550506Y-85069881D01*
X45449491Y-84901522D01*
X45281132Y-84733164D01*
X45112773Y-84632148D01*
X45011758Y-84598477D01*
X44944415Y-84598477D01*
X44843399Y-84632148D01*
%TO.C,R4*%
X57416666Y-52452380D02*
X57750000Y-51976190D01*
X57988095Y-52452380D02*
X57988095Y-51452380D01*
X57607142Y-51452380D01*
X57511904Y-51500000D01*
X57464285Y-51547619D01*
X57416666Y-51642857D01*
X57416666Y-51785714D01*
X57464285Y-51880952D01*
X57511904Y-51928571D01*
X57607142Y-51976190D01*
X57988095Y-51976190D01*
X56559523Y-51785714D02*
X56559523Y-52452380D01*
X56797619Y-51404761D02*
X57035714Y-52119047D01*
X56416666Y-52119047D01*
%TO.C,F0*%
X48483333Y-58228571D02*
X48816666Y-58228571D01*
X48816666Y-58752380D02*
X48816666Y-57752380D01*
X48340476Y-57752380D01*
X47769047Y-57752380D02*
X47673809Y-57752380D01*
X47578571Y-57800000D01*
X47530952Y-57847619D01*
X47483333Y-57942857D01*
X47435714Y-58133333D01*
X47435714Y-58371428D01*
X47483333Y-58561904D01*
X47530952Y-58657142D01*
X47578571Y-58704761D01*
X47673809Y-58752380D01*
X47769047Y-58752380D01*
X47864285Y-58704761D01*
X47911904Y-58657142D01*
X47959523Y-58561904D01*
X48007142Y-58371428D01*
X48007142Y-58133333D01*
X47959523Y-57942857D01*
X47911904Y-57847619D01*
X47864285Y-57800000D01*
X47769047Y-57752380D01*
%TO.C,C0*%
X43620388Y-82484687D02*
X43687731Y-82484687D01*
X43822418Y-82417343D01*
X43889762Y-82350000D01*
X43957105Y-82215312D01*
X43957105Y-82080625D01*
X43923434Y-81979610D01*
X43822418Y-81811251D01*
X43721403Y-81710236D01*
X43553044Y-81609221D01*
X43452029Y-81575549D01*
X43317342Y-81575549D01*
X43182655Y-81642893D01*
X43115311Y-81710236D01*
X43047968Y-81844923D01*
X43047968Y-81912267D01*
X42542892Y-82282656D02*
X42475548Y-82350000D01*
X42441876Y-82451015D01*
X42441876Y-82518358D01*
X42475548Y-82619374D01*
X42576563Y-82787732D01*
X42744922Y-82956091D01*
X42913281Y-83057106D01*
X43014296Y-83090778D01*
X43081640Y-83090778D01*
X43182655Y-83057106D01*
X43249999Y-82989763D01*
X43283670Y-82888748D01*
X43283670Y-82821404D01*
X43249999Y-82720389D01*
X43148983Y-82552030D01*
X42980624Y-82383671D01*
X42812266Y-82282656D01*
X42711250Y-82248984D01*
X42643907Y-82248984D01*
X42542892Y-82282656D01*
%TO.C,C2*%
X39316666Y-64307142D02*
X39364285Y-64354761D01*
X39507142Y-64402380D01*
X39602380Y-64402380D01*
X39745238Y-64354761D01*
X39840476Y-64259523D01*
X39888095Y-64164285D01*
X39935714Y-63973809D01*
X39935714Y-63830952D01*
X39888095Y-63640476D01*
X39840476Y-63545238D01*
X39745238Y-63450000D01*
X39602380Y-63402380D01*
X39507142Y-63402380D01*
X39364285Y-63450000D01*
X39316666Y-63497619D01*
X38935714Y-63497619D02*
X38888095Y-63450000D01*
X38792857Y-63402380D01*
X38554761Y-63402380D01*
X38459523Y-63450000D01*
X38411904Y-63497619D01*
X38364285Y-63592857D01*
X38364285Y-63688095D01*
X38411904Y-63830952D01*
X38983333Y-64402380D01*
X38364285Y-64402380D01*
%TO.C,R5*%
X42887733Y-98752030D02*
X42786718Y-98179610D01*
X43291794Y-98347969D02*
X42584688Y-97640862D01*
X42315313Y-97910236D01*
X42281642Y-98011251D01*
X42281642Y-98078595D01*
X42315313Y-98179610D01*
X42416329Y-98280625D01*
X42517344Y-98314297D01*
X42584688Y-98314297D01*
X42685703Y-98280625D01*
X42955077Y-98011251D01*
X41540863Y-98684687D02*
X41877581Y-98347969D01*
X42247970Y-98651015D01*
X42180626Y-98651015D01*
X42079611Y-98684687D01*
X41911252Y-98853045D01*
X41877581Y-98954061D01*
X41877581Y-99021404D01*
X41911252Y-99122419D01*
X42079611Y-99290778D01*
X42180626Y-99324450D01*
X42247970Y-99324450D01*
X42348985Y-99290778D01*
X42517344Y-99122419D01*
X42551016Y-99021404D01*
X42551016Y-98954061D01*
%TO.C,C5*%
X53266666Y-66757142D02*
X53314285Y-66804761D01*
X53457142Y-66852380D01*
X53552380Y-66852380D01*
X53695238Y-66804761D01*
X53790476Y-66709523D01*
X53838095Y-66614285D01*
X53885714Y-66423809D01*
X53885714Y-66280952D01*
X53838095Y-66090476D01*
X53790476Y-65995238D01*
X53695238Y-65900000D01*
X53552380Y-65852380D01*
X53457142Y-65852380D01*
X53314285Y-65900000D01*
X53266666Y-65947619D01*
X52361904Y-65852380D02*
X52838095Y-65852380D01*
X52885714Y-66328571D01*
X52838095Y-66280952D01*
X52742857Y-66233333D01*
X52504761Y-66233333D01*
X52409523Y-66280952D01*
X52361904Y-66328571D01*
X52314285Y-66423809D01*
X52314285Y-66661904D01*
X52361904Y-66757142D01*
X52409523Y-66804761D01*
X52504761Y-66852380D01*
X52742857Y-66852380D01*
X52838095Y-66804761D01*
X52885714Y-66757142D01*
%TO.C,J0*%
X47220834Y-47652380D02*
X47220834Y-48366666D01*
X47268453Y-48509523D01*
X47363691Y-48604761D01*
X47506548Y-48652380D01*
X47601786Y-48652380D01*
X46554167Y-47652380D02*
X46458929Y-47652380D01*
X46363691Y-47700000D01*
X46316072Y-47747619D01*
X46268453Y-47842857D01*
X46220834Y-48033333D01*
X46220834Y-48271428D01*
X46268453Y-48461904D01*
X46316072Y-48557142D01*
X46363691Y-48604761D01*
X46458929Y-48652380D01*
X46554167Y-48652380D01*
X46649405Y-48604761D01*
X46697024Y-48557142D01*
X46744643Y-48461904D01*
X46792262Y-48271428D01*
X46792262Y-48033333D01*
X46744643Y-47842857D01*
X46697024Y-47747619D01*
X46649405Y-47700000D01*
X46554167Y-47652380D01*
%TO.C,U1*%
X37251522Y-85374026D02*
X37823942Y-85946446D01*
X37857614Y-86047461D01*
X37857614Y-86114805D01*
X37823942Y-86215820D01*
X37689255Y-86350507D01*
X37588240Y-86384179D01*
X37520896Y-86384179D01*
X37419881Y-86350507D01*
X36847461Y-85778087D01*
X36847461Y-87192301D02*
X37251522Y-86788240D01*
X37049492Y-86990270D02*
X36342385Y-86283164D01*
X36510744Y-86316835D01*
X36645431Y-86316835D01*
X36746446Y-86283164D01*
%TO.C,U2*%
X42761904Y-57402380D02*
X42761904Y-58211904D01*
X42714285Y-58307142D01*
X42666666Y-58354761D01*
X42571428Y-58402380D01*
X42380952Y-58402380D01*
X42285714Y-58354761D01*
X42238095Y-58307142D01*
X42190476Y-58211904D01*
X42190476Y-57402380D01*
X41761904Y-57497619D02*
X41714285Y-57450000D01*
X41619047Y-57402380D01*
X41380952Y-57402380D01*
X41285714Y-57450000D01*
X41238095Y-57497619D01*
X41190476Y-57592857D01*
X41190476Y-57688095D01*
X41238095Y-57830952D01*
X41809523Y-58402380D01*
X41190476Y-58402380D01*
%TO.C,R3*%
X36766666Y-52452380D02*
X37100000Y-51976190D01*
X37338095Y-52452380D02*
X37338095Y-51452380D01*
X36957142Y-51452380D01*
X36861904Y-51500000D01*
X36814285Y-51547619D01*
X36766666Y-51642857D01*
X36766666Y-51785714D01*
X36814285Y-51880952D01*
X36861904Y-51928571D01*
X36957142Y-51976190D01*
X37338095Y-51976190D01*
X36433333Y-51452380D02*
X35814285Y-51452380D01*
X36147619Y-51833333D01*
X36004761Y-51833333D01*
X35909523Y-51880952D01*
X35861904Y-51928571D01*
X35814285Y-52023809D01*
X35814285Y-52261904D01*
X35861904Y-52357142D01*
X35909523Y-52404761D01*
X36004761Y-52452380D01*
X36290476Y-52452380D01*
X36385714Y-52404761D01*
X36433333Y-52357142D01*
%TO.C,C4*%
X53266666Y-64657142D02*
X53314285Y-64704761D01*
X53457142Y-64752380D01*
X53552380Y-64752380D01*
X53695238Y-64704761D01*
X53790476Y-64609523D01*
X53838095Y-64514285D01*
X53885714Y-64323809D01*
X53885714Y-64180952D01*
X53838095Y-63990476D01*
X53790476Y-63895238D01*
X53695238Y-63800000D01*
X53552380Y-63752380D01*
X53457142Y-63752380D01*
X53314285Y-63800000D01*
X53266666Y-63847619D01*
X52409523Y-64085714D02*
X52409523Y-64752380D01*
X52647619Y-63704761D02*
X52885714Y-64419047D01*
X52266666Y-64419047D01*
%TO.C,R0*%
X51266666Y-69002380D02*
X51600000Y-68526190D01*
X51838095Y-69002380D02*
X51838095Y-68002380D01*
X51457142Y-68002380D01*
X51361904Y-68050000D01*
X51314285Y-68097619D01*
X51266666Y-68192857D01*
X51266666Y-68335714D01*
X51314285Y-68430952D01*
X51361904Y-68478571D01*
X51457142Y-68526190D01*
X51838095Y-68526190D01*
X50647619Y-68002380D02*
X50552380Y-68002380D01*
X50457142Y-68050000D01*
X50409523Y-68097619D01*
X50361904Y-68192857D01*
X50314285Y-68383333D01*
X50314285Y-68621428D01*
X50361904Y-68811904D01*
X50409523Y-68907142D01*
X50457142Y-68954761D01*
X50552380Y-69002380D01*
X50647619Y-69002380D01*
X50742857Y-68954761D01*
X50790476Y-68907142D01*
X50838095Y-68811904D01*
X50885714Y-68621428D01*
X50885714Y-68383333D01*
X50838095Y-68192857D01*
X50790476Y-68097619D01*
X50742857Y-68050000D01*
X50647619Y-68002380D01*
%TO.C,R2*%
X47216666Y-62602380D02*
X47550000Y-62126190D01*
X47788095Y-62602380D02*
X47788095Y-61602380D01*
X47407142Y-61602380D01*
X47311904Y-61650000D01*
X47264285Y-61697619D01*
X47216666Y-61792857D01*
X47216666Y-61935714D01*
X47264285Y-62030952D01*
X47311904Y-62078571D01*
X47407142Y-62126190D01*
X47788095Y-62126190D01*
X46835714Y-61697619D02*
X46788095Y-61650000D01*
X46692857Y-61602380D01*
X46454761Y-61602380D01*
X46359523Y-61650000D01*
X46311904Y-61697619D01*
X46264285Y-61792857D01*
X46264285Y-61888095D01*
X46311904Y-62030952D01*
X46883333Y-62602380D01*
X46264285Y-62602380D01*
%TO.C,R1*%
X47166666Y-64752380D02*
X47500000Y-64276190D01*
X47738095Y-64752380D02*
X47738095Y-63752380D01*
X47357142Y-63752380D01*
X47261904Y-63800000D01*
X47214285Y-63847619D01*
X47166666Y-63942857D01*
X47166666Y-64085714D01*
X47214285Y-64180952D01*
X47261904Y-64228571D01*
X47357142Y-64276190D01*
X47738095Y-64276190D01*
X46214285Y-64752380D02*
X46785714Y-64752380D01*
X46500000Y-64752380D02*
X46500000Y-63752380D01*
X46595238Y-63895238D01*
X46690476Y-63990476D01*
X46785714Y-64038095D01*
D11*
%TO.C,D607*%
X72350000Y-63670000D02*
X73280000Y-63670000D01*
X72350000Y-63670000D02*
X72350000Y-65130000D01*
X75510000Y-63670000D02*
X75510000Y-65830000D01*
X75510000Y-63670000D02*
X74580000Y-63670000D01*
%TO.C,D1011*%
X56610000Y-68770000D02*
X56610000Y-69700000D01*
X56610000Y-68770000D02*
X55150000Y-68770000D01*
X56610000Y-71930000D02*
X54450000Y-71930000D01*
X56610000Y-71930000D02*
X56610000Y-71000000D01*
%TO.C,D2021*%
X56460000Y-99420000D02*
X55000000Y-99420000D01*
X56460000Y-102580000D02*
X56460000Y-101650000D01*
X56460000Y-99420000D02*
X56460000Y-100350000D01*
X56460000Y-102580000D02*
X54300000Y-102580000D01*
%TO.C,C1*%
X46604457Y-89384990D02*
X46234990Y-89754457D01*
X45565010Y-88345543D02*
X45195543Y-88715010D01*
%TO.C,D110111*%
X151750000Y-72630000D02*
X150820000Y-72630000D01*
X148590000Y-72630000D02*
X148590000Y-70470000D01*
X148590000Y-72630000D02*
X149520000Y-72630000D01*
X151750000Y-72630000D02*
X151750000Y-71170000D01*
%TO.C,SW0*%
X29050000Y-85850000D02*
X28600000Y-85400000D01*
X28600000Y-90900000D02*
X26100000Y-90900000D01*
X24600000Y-87150000D02*
X24600000Y-89150000D01*
X29050000Y-90450000D02*
X28600000Y-90900000D01*
X25650000Y-90450000D02*
X26100000Y-90900000D01*
X30100000Y-87150000D02*
X30100000Y-89150000D01*
X25650000Y-85850000D02*
X26100000Y-85400000D01*
X28600000Y-85400000D02*
X26100000Y-85400000D01*
%TO.C,D4*%
X151730000Y-109910000D02*
X150800000Y-109910000D01*
X148570000Y-109910000D02*
X149500000Y-109910000D01*
X151730000Y-109910000D02*
X151730000Y-108450000D01*
X148570000Y-109910000D02*
X148570000Y-107750000D01*
%TO.C,C3*%
X49288748Y-62910000D02*
X49811252Y-62910000D01*
X49288748Y-61440000D02*
X49811252Y-61440000D01*
%TO.C,Y0*%
X43352513Y-84169060D02*
X46180940Y-86997487D01*
X41019060Y-86502513D02*
X43352513Y-84169060D01*
%TO.C,D12013*%
X144900000Y-63560000D02*
X144900000Y-65020000D01*
X144900000Y-63560000D02*
X145830000Y-63560000D01*
X148060000Y-63560000D02*
X148060000Y-65720000D01*
X148060000Y-63560000D02*
X147130000Y-63560000D01*
%TO.C,R4*%
X56097501Y-52978249D02*
X53412501Y-52978249D01*
X56097501Y-51058249D02*
X56097501Y-52978249D01*
X53412501Y-51058249D02*
X56097501Y-51058249D01*
%TO.C,F0*%
X50885000Y-56297936D02*
X50885000Y-57502064D01*
X49065000Y-56297936D02*
X49065000Y-57502064D01*
%TO.C,C0*%
X40495543Y-84015010D02*
X40865010Y-83645543D01*
X41534990Y-85054457D02*
X41904457Y-84684990D01*
%TO.C,D2829*%
X152520000Y-102090000D02*
X152520000Y-103550000D01*
X155680000Y-102090000D02*
X155680000Y-104250000D01*
X152520000Y-102090000D02*
X153450000Y-102090000D01*
X155680000Y-102090000D02*
X154750000Y-102090000D01*
%TO.C,D2425*%
X64480000Y-100190000D02*
X64480000Y-102350000D01*
X61320000Y-100190000D02*
X61320000Y-101650000D01*
X64480000Y-100190000D02*
X63550000Y-100190000D01*
X61320000Y-100190000D02*
X62250000Y-100190000D01*
%TO.C,G\u002A\u002A\u002A*%
G36*
X94165200Y-90047000D02*
G01*
X93555600Y-90047000D01*
X93555600Y-87202200D01*
X94165200Y-87202200D01*
X94165200Y-90047000D01*
G37*
D12*
X94165200Y-90047000D02*
X93555600Y-90047000D01*
X93555600Y-87202200D01*
X94165200Y-87202200D01*
X94165200Y-90047000D01*
G36*
X106839800Y-89553469D02*
G01*
X106840983Y-89564804D01*
X106859852Y-89594033D01*
X106879135Y-89614192D01*
X106917148Y-89667154D01*
X106963744Y-89739955D01*
X107005057Y-89805254D01*
X107051490Y-89873077D01*
X107083392Y-89913220D01*
X107102477Y-89937926D01*
X107119200Y-89985314D01*
X107121715Y-90001151D01*
X107144117Y-90021600D01*
X107164574Y-90037528D01*
X107184970Y-90085100D01*
X107199995Y-90127132D01*
X107218666Y-90148600D01*
X107233730Y-90161368D01*
X107261107Y-90208006D01*
X107290085Y-90272545D01*
X107313053Y-90337587D01*
X107322400Y-90385734D01*
X107325929Y-90407159D01*
X107347800Y-90428000D01*
X107360197Y-90448194D01*
X107369641Y-90507733D01*
X107373200Y-90594599D01*
X107370958Y-90671926D01*
X107362271Y-90731586D01*
X107347800Y-90745500D01*
X107331983Y-90747454D01*
X107322400Y-90783362D01*
X107305905Y-90862533D01*
X107254919Y-90964347D01*
X107179303Y-91069086D01*
X107089136Y-91164727D01*
X106994500Y-91239247D01*
X106905475Y-91280623D01*
X106861359Y-91297203D01*
X106839800Y-91318220D01*
X106838236Y-91322203D01*
X106805783Y-91338119D01*
X106744550Y-91349859D01*
X106725145Y-91350938D01*
X106655149Y-91352570D01*
X106541426Y-91354027D01*
X106388363Y-91355290D01*
X106200345Y-91356339D01*
X105981757Y-91357157D01*
X105736985Y-91357725D01*
X105470413Y-91358024D01*
X105186427Y-91358036D01*
X104889413Y-91357742D01*
X104848877Y-91357679D01*
X104488764Y-91356861D01*
X104176700Y-91355629D01*
X103910194Y-91353935D01*
X103686758Y-91351735D01*
X103503900Y-91348983D01*
X103359132Y-91345634D01*
X103249964Y-91341643D01*
X103173905Y-91336965D01*
X103128467Y-91331553D01*
X103111159Y-91325363D01*
X103082751Y-91301770D01*
X103026266Y-91278930D01*
X103023679Y-91278246D01*
X102974681Y-91254630D01*
X102910143Y-91204640D01*
X102824821Y-91123722D01*
X102713472Y-91007324D01*
X102682170Y-90957324D01*
X102657985Y-90886674D01*
X102657457Y-90884095D01*
X102640070Y-90830970D01*
X102620225Y-90809000D01*
X102615263Y-90803216D01*
X102606407Y-90759116D01*
X102600286Y-90681066D01*
X102598000Y-90580400D01*
X102598572Y-90529354D01*
X102602926Y-90438267D01*
X102610633Y-90375305D01*
X102620574Y-90351800D01*
X102623799Y-90350974D01*
X102643195Y-90321506D01*
X102659825Y-90262900D01*
X102662292Y-90250759D01*
X102679246Y-90196177D01*
X102696752Y-90174000D01*
X102701926Y-90172106D01*
X102729935Y-90141419D01*
X102764877Y-90085100D01*
X102775175Y-90066660D01*
X102808081Y-90016383D01*
X102829623Y-89996200D01*
X102844812Y-89980186D01*
X102862431Y-89932700D01*
X102879209Y-89890751D01*
X102903284Y-89869200D01*
X102913405Y-89866238D01*
X102928200Y-89835050D01*
X102928772Y-89829759D01*
X102949334Y-89784838D01*
X102990254Y-89728685D01*
X103000487Y-89716273D01*
X103032950Y-89666494D01*
X103039555Y-89635834D01*
X103036969Y-89630276D01*
X103049702Y-89615200D01*
X103055361Y-89613339D01*
X103084887Y-89582679D01*
X103120477Y-89526300D01*
X103130775Y-89507860D01*
X103163681Y-89457583D01*
X103185223Y-89437400D01*
X103200412Y-89421386D01*
X103218031Y-89373900D01*
X103219916Y-89369188D01*
X103605734Y-89369188D01*
X103705117Y-89350016D01*
X103731607Y-89344970D01*
X103785529Y-89336287D01*
X103834574Y-89333264D01*
X103892521Y-89336357D01*
X103973153Y-89346017D01*
X104090250Y-89362701D01*
X104125624Y-89368122D01*
X104214587Y-89384582D01*
X104276547Y-89400312D01*
X104299800Y-89412531D01*
X104316885Y-89429820D01*
X104365356Y-89448346D01*
X104374737Y-89451069D01*
X104443386Y-89481253D01*
X104529236Y-89529436D01*
X104613218Y-89584220D01*
X104676265Y-89634205D01*
X104696642Y-89650213D01*
X104735229Y-89666000D01*
X104756714Y-89672926D01*
X104798729Y-89704100D01*
X104827579Y-89724928D01*
X104885815Y-89742200D01*
X104913582Y-89746203D01*
X104934800Y-89764773D01*
X104940054Y-89772196D01*
X104978789Y-89790894D01*
X105038845Y-89809157D01*
X105100579Y-89821560D01*
X105144350Y-89822675D01*
X105149217Y-89822428D01*
X105163400Y-89843800D01*
X105165729Y-89849242D01*
X105200435Y-89863487D01*
X105263501Y-89869200D01*
X105282826Y-89869664D01*
X105345997Y-89878364D01*
X105379300Y-89894600D01*
X105379466Y-89894853D01*
X105411803Y-89907530D01*
X105480097Y-89916559D01*
X105569800Y-89920000D01*
X105571549Y-89919998D01*
X105660991Y-89916438D01*
X105728757Y-89907325D01*
X105760300Y-89894600D01*
X105785693Y-89878225D01*
X105840431Y-89869200D01*
X105844157Y-89869123D01*
X105905409Y-89856278D01*
X105977407Y-89827837D01*
X106040133Y-89793071D01*
X106073567Y-89761250D01*
X106076173Y-89756954D01*
X106109051Y-89742200D01*
X106124222Y-89736689D01*
X106171977Y-89706845D01*
X106235336Y-89660640D01*
X106300232Y-89608996D01*
X106352598Y-89562837D01*
X106378367Y-89533084D01*
X106384844Y-89525235D01*
X106422817Y-89513600D01*
X106438383Y-89511084D01*
X106458800Y-89488200D01*
X106458062Y-89482128D01*
X106433400Y-89462800D01*
X106423934Y-89460481D01*
X106408000Y-89430790D01*
X106407390Y-89425738D01*
X106385983Y-89383013D01*
X106343473Y-89329190D01*
X106331303Y-89315767D01*
X106299215Y-89275717D01*
X106293662Y-89259600D01*
X106294102Y-89259572D01*
X106288450Y-89242684D01*
X106256590Y-89204010D01*
X106220454Y-89159858D01*
X106204800Y-89129624D01*
X106200268Y-89115184D01*
X106173050Y-89077258D01*
X106149391Y-89048063D01*
X106104488Y-88986335D01*
X106052400Y-88910393D01*
X106008196Y-88847508D01*
X105967366Y-88796597D01*
X105944450Y-88777049D01*
X105939554Y-88776145D01*
X105925400Y-88750571D01*
X105923102Y-88739925D01*
X105899805Y-88693080D01*
X105861663Y-88633582D01*
X105821478Y-88580433D01*
X105792050Y-88552633D01*
X105789209Y-88551098D01*
X105773000Y-88519854D01*
X105770403Y-88508821D01*
X105746608Y-88462504D01*
X105708344Y-88403725D01*
X105668421Y-88351297D01*
X105639650Y-88324033D01*
X105636358Y-88322192D01*
X105620600Y-88290469D01*
X105616011Y-88272394D01*
X105588850Y-88229967D01*
X105543801Y-88178540D01*
X105505234Y-88128974D01*
X105493600Y-88102628D01*
X105493553Y-88101871D01*
X105477944Y-88071113D01*
X105442800Y-88021930D01*
X105436288Y-88013324D01*
X105423665Y-87992347D01*
X105413696Y-87964760D01*
X105406068Y-87925038D01*
X105400469Y-87867660D01*
X105396589Y-87787100D01*
X105394113Y-87677835D01*
X105392732Y-87534342D01*
X105392131Y-87351096D01*
X105392000Y-87122574D01*
X105392000Y-86287800D01*
X104553800Y-86287800D01*
X104553800Y-87127072D01*
X104553384Y-87320417D01*
X104551369Y-87554021D01*
X104547698Y-87739027D01*
X104542388Y-87874893D01*
X104535456Y-87961072D01*
X104526919Y-87997022D01*
X104512287Y-88015306D01*
X104471444Y-88072928D01*
X104420889Y-88149235D01*
X104368265Y-88232078D01*
X104321213Y-88309312D01*
X104287377Y-88368788D01*
X104274400Y-88398360D01*
X104274121Y-88402237D01*
X104254820Y-88421400D01*
X104243343Y-88429326D01*
X104211783Y-88470734D01*
X104172800Y-88535700D01*
X104148811Y-88577616D01*
X104114732Y-88629665D01*
X104094781Y-88650000D01*
X104090484Y-88651952D01*
X104065130Y-88682687D01*
X104031324Y-88738900D01*
X104021040Y-88757277D01*
X103987753Y-88807597D01*
X103965536Y-88827800D01*
X103950195Y-88840716D01*
X103929789Y-88884950D01*
X103915469Y-88922854D01*
X103896327Y-88954800D01*
X103887912Y-88964535D01*
X103854680Y-89009189D01*
X103804083Y-89080425D01*
X103743217Y-89168344D01*
X103605734Y-89369188D01*
X103219916Y-89369188D01*
X103234809Y-89331951D01*
X103258884Y-89310400D01*
X103269759Y-89306738D01*
X103283800Y-89274114D01*
X103289953Y-89248018D01*
X103320935Y-89200694D01*
X103346819Y-89166951D01*
X103392641Y-89098648D01*
X103451281Y-89006433D01*
X103516159Y-88900430D01*
X103516878Y-88899234D01*
X103579308Y-88796464D01*
X103632824Y-88710451D01*
X103671754Y-88650170D01*
X103690428Y-88624600D01*
X103699550Y-88614773D01*
X103723642Y-88573800D01*
X103725061Y-88570673D01*
X103755093Y-88514227D01*
X103791147Y-88456739D01*
X103818752Y-88421400D01*
X103820093Y-88420003D01*
X103842686Y-88388368D01*
X103882915Y-88326842D01*
X103933052Y-88247203D01*
X103934369Y-88245078D01*
X103990473Y-88155239D01*
X104041963Y-88073962D01*
X104077846Y-88018603D01*
X104112892Y-87960132D01*
X104137959Y-87907049D01*
X104149719Y-87883217D01*
X104175763Y-87862599D01*
X104178169Y-87858239D01*
X104183593Y-87814338D01*
X104188405Y-87727965D01*
X104192440Y-87604992D01*
X104195529Y-87451291D01*
X104197505Y-87272736D01*
X104198200Y-87075200D01*
X104198200Y-86287800D01*
X103766400Y-86287800D01*
X103766400Y-85855507D01*
X104979250Y-85862103D01*
X106192100Y-85868700D01*
X106199478Y-86078250D01*
X106206855Y-86287800D01*
X105747600Y-86287800D01*
X105747600Y-87053151D01*
X105747604Y-87107675D01*
X105747804Y-87314408D01*
X105748594Y-87477736D01*
X105750367Y-87603667D01*
X105753517Y-87698211D01*
X105758437Y-87767375D01*
X105765518Y-87817168D01*
X105775156Y-87853598D01*
X105787742Y-87882673D01*
X105803669Y-87910401D01*
X105817531Y-87932422D01*
X105855152Y-87985493D01*
X105879869Y-88010766D01*
X105886694Y-88015552D01*
X105900000Y-88051405D01*
X105904757Y-88069133D01*
X105932296Y-88122243D01*
X105976200Y-88188769D01*
X106003736Y-88227731D01*
X106038721Y-88281092D01*
X106052400Y-88307952D01*
X106055474Y-88317892D01*
X106079462Y-88352622D01*
X106082555Y-88356377D01*
X106112946Y-88399444D01*
X106164119Y-88476806D01*
X106231265Y-88580908D01*
X106309579Y-88704190D01*
X106394253Y-88839096D01*
X106480481Y-88978068D01*
X106563455Y-89113550D01*
X106604838Y-89180139D01*
X106657736Y-89260483D01*
X106697715Y-89315437D01*
X106718362Y-89335800D01*
X106726390Y-89338743D01*
X106738200Y-89370013D01*
X106752503Y-89410242D01*
X106789000Y-89462800D01*
X106807014Y-89488200D01*
X106824313Y-89512593D01*
X106839800Y-89553469D01*
G37*
X106839800Y-89553469D02*
X106840983Y-89564804D01*
X106859852Y-89594033D01*
X106879135Y-89614192D01*
X106917148Y-89667154D01*
X106963744Y-89739955D01*
X107005057Y-89805254D01*
X107051490Y-89873077D01*
X107083392Y-89913220D01*
X107102477Y-89937926D01*
X107119200Y-89985314D01*
X107121715Y-90001151D01*
X107144117Y-90021600D01*
X107164574Y-90037528D01*
X107184970Y-90085100D01*
X107199995Y-90127132D01*
X107218666Y-90148600D01*
X107233730Y-90161368D01*
X107261107Y-90208006D01*
X107290085Y-90272545D01*
X107313053Y-90337587D01*
X107322400Y-90385734D01*
X107325929Y-90407159D01*
X107347800Y-90428000D01*
X107360197Y-90448194D01*
X107369641Y-90507733D01*
X107373200Y-90594599D01*
X107370958Y-90671926D01*
X107362271Y-90731586D01*
X107347800Y-90745500D01*
X107331983Y-90747454D01*
X107322400Y-90783362D01*
X107305905Y-90862533D01*
X107254919Y-90964347D01*
X107179303Y-91069086D01*
X107089136Y-91164727D01*
X106994500Y-91239247D01*
X106905475Y-91280623D01*
X106861359Y-91297203D01*
X106839800Y-91318220D01*
X106838236Y-91322203D01*
X106805783Y-91338119D01*
X106744550Y-91349859D01*
X106725145Y-91350938D01*
X106655149Y-91352570D01*
X106541426Y-91354027D01*
X106388363Y-91355290D01*
X106200345Y-91356339D01*
X105981757Y-91357157D01*
X105736985Y-91357725D01*
X105470413Y-91358024D01*
X105186427Y-91358036D01*
X104889413Y-91357742D01*
X104848877Y-91357679D01*
X104488764Y-91356861D01*
X104176700Y-91355629D01*
X103910194Y-91353935D01*
X103686758Y-91351735D01*
X103503900Y-91348983D01*
X103359132Y-91345634D01*
X103249964Y-91341643D01*
X103173905Y-91336965D01*
X103128467Y-91331553D01*
X103111159Y-91325363D01*
X103082751Y-91301770D01*
X103026266Y-91278930D01*
X103023679Y-91278246D01*
X102974681Y-91254630D01*
X102910143Y-91204640D01*
X102824821Y-91123722D01*
X102713472Y-91007324D01*
X102682170Y-90957324D01*
X102657985Y-90886674D01*
X102657457Y-90884095D01*
X102640070Y-90830970D01*
X102620225Y-90809000D01*
X102615263Y-90803216D01*
X102606407Y-90759116D01*
X102600286Y-90681066D01*
X102598000Y-90580400D01*
X102598572Y-90529354D01*
X102602926Y-90438267D01*
X102610633Y-90375305D01*
X102620574Y-90351800D01*
X102623799Y-90350974D01*
X102643195Y-90321506D01*
X102659825Y-90262900D01*
X102662292Y-90250759D01*
X102679246Y-90196177D01*
X102696752Y-90174000D01*
X102701926Y-90172106D01*
X102729935Y-90141419D01*
X102764877Y-90085100D01*
X102775175Y-90066660D01*
X102808081Y-90016383D01*
X102829623Y-89996200D01*
X102844812Y-89980186D01*
X102862431Y-89932700D01*
X102879209Y-89890751D01*
X102903284Y-89869200D01*
X102913405Y-89866238D01*
X102928200Y-89835050D01*
X102928772Y-89829759D01*
X102949334Y-89784838D01*
X102990254Y-89728685D01*
X103000487Y-89716273D01*
X103032950Y-89666494D01*
X103039555Y-89635834D01*
X103036969Y-89630276D01*
X103049702Y-89615200D01*
X103055361Y-89613339D01*
X103084887Y-89582679D01*
X103120477Y-89526300D01*
X103130775Y-89507860D01*
X103163681Y-89457583D01*
X103185223Y-89437400D01*
X103200412Y-89421386D01*
X103218031Y-89373900D01*
X103219916Y-89369188D01*
X103605734Y-89369188D01*
X103705117Y-89350016D01*
X103731607Y-89344970D01*
X103785529Y-89336287D01*
X103834574Y-89333264D01*
X103892521Y-89336357D01*
X103973153Y-89346017D01*
X104090250Y-89362701D01*
X104125624Y-89368122D01*
X104214587Y-89384582D01*
X104276547Y-89400312D01*
X104299800Y-89412531D01*
X104316885Y-89429820D01*
X104365356Y-89448346D01*
X104374737Y-89451069D01*
X104443386Y-89481253D01*
X104529236Y-89529436D01*
X104613218Y-89584220D01*
X104676265Y-89634205D01*
X104696642Y-89650213D01*
X104735229Y-89666000D01*
X104756714Y-89672926D01*
X104798729Y-89704100D01*
X104827579Y-89724928D01*
X104885815Y-89742200D01*
X104913582Y-89746203D01*
X104934800Y-89764773D01*
X104940054Y-89772196D01*
X104978789Y-89790894D01*
X105038845Y-89809157D01*
X105100579Y-89821560D01*
X105144350Y-89822675D01*
X105149217Y-89822428D01*
X105163400Y-89843800D01*
X105165729Y-89849242D01*
X105200435Y-89863487D01*
X105263501Y-89869200D01*
X105282826Y-89869664D01*
X105345997Y-89878364D01*
X105379300Y-89894600D01*
X105379466Y-89894853D01*
X105411803Y-89907530D01*
X105480097Y-89916559D01*
X105569800Y-89920000D01*
X105571549Y-89919998D01*
X105660991Y-89916438D01*
X105728757Y-89907325D01*
X105760300Y-89894600D01*
X105785693Y-89878225D01*
X105840431Y-89869200D01*
X105844157Y-89869123D01*
X105905409Y-89856278D01*
X105977407Y-89827837D01*
X106040133Y-89793071D01*
X106073567Y-89761250D01*
X106076173Y-89756954D01*
X106109051Y-89742200D01*
X106124222Y-89736689D01*
X106171977Y-89706845D01*
X106235336Y-89660640D01*
X106300232Y-89608996D01*
X106352598Y-89562837D01*
X106378367Y-89533084D01*
X106384844Y-89525235D01*
X106422817Y-89513600D01*
X106438383Y-89511084D01*
X106458800Y-89488200D01*
X106458062Y-89482128D01*
X106433400Y-89462800D01*
X106423934Y-89460481D01*
X106408000Y-89430790D01*
X106407390Y-89425738D01*
X106385983Y-89383013D01*
X106343473Y-89329190D01*
X106331303Y-89315767D01*
X106299215Y-89275717D01*
X106293662Y-89259600D01*
X106294102Y-89259572D01*
X106288450Y-89242684D01*
X106256590Y-89204010D01*
X106220454Y-89159858D01*
X106204800Y-89129624D01*
X106200268Y-89115184D01*
X106173050Y-89077258D01*
X106149391Y-89048063D01*
X106104488Y-88986335D01*
X106052400Y-88910393D01*
X106008196Y-88847508D01*
X105967366Y-88796597D01*
X105944450Y-88777049D01*
X105939554Y-88776145D01*
X105925400Y-88750571D01*
X105923102Y-88739925D01*
X105899805Y-88693080D01*
X105861663Y-88633582D01*
X105821478Y-88580433D01*
X105792050Y-88552633D01*
X105789209Y-88551098D01*
X105773000Y-88519854D01*
X105770403Y-88508821D01*
X105746608Y-88462504D01*
X105708344Y-88403725D01*
X105668421Y-88351297D01*
X105639650Y-88324033D01*
X105636358Y-88322192D01*
X105620600Y-88290469D01*
X105616011Y-88272394D01*
X105588850Y-88229967D01*
X105543801Y-88178540D01*
X105505234Y-88128974D01*
X105493600Y-88102628D01*
X105493553Y-88101871D01*
X105477944Y-88071113D01*
X105442800Y-88021930D01*
X105436288Y-88013324D01*
X105423665Y-87992347D01*
X105413696Y-87964760D01*
X105406068Y-87925038D01*
X105400469Y-87867660D01*
X105396589Y-87787100D01*
X105394113Y-87677835D01*
X105392732Y-87534342D01*
X105392131Y-87351096D01*
X105392000Y-87122574D01*
X105392000Y-86287800D01*
X104553800Y-86287800D01*
X104553800Y-87127072D01*
X104553384Y-87320417D01*
X104551369Y-87554021D01*
X104547698Y-87739027D01*
X104542388Y-87874893D01*
X104535456Y-87961072D01*
X104526919Y-87997022D01*
X104512287Y-88015306D01*
X104471444Y-88072928D01*
X104420889Y-88149235D01*
X104368265Y-88232078D01*
X104321213Y-88309312D01*
X104287377Y-88368788D01*
X104274400Y-88398360D01*
X104274121Y-88402237D01*
X104254820Y-88421400D01*
X104243343Y-88429326D01*
X104211783Y-88470734D01*
X104172800Y-88535700D01*
X104148811Y-88577616D01*
X104114732Y-88629665D01*
X104094781Y-88650000D01*
X104090484Y-88651952D01*
X104065130Y-88682687D01*
X104031324Y-88738900D01*
X104021040Y-88757277D01*
X103987753Y-88807597D01*
X103965536Y-88827800D01*
X103950195Y-88840716D01*
X103929789Y-88884950D01*
X103915469Y-88922854D01*
X103896327Y-88954800D01*
X103887912Y-88964535D01*
X103854680Y-89009189D01*
X103804083Y-89080425D01*
X103743217Y-89168344D01*
X103605734Y-89369188D01*
X103219916Y-89369188D01*
X103234809Y-89331951D01*
X103258884Y-89310400D01*
X103269759Y-89306738D01*
X103283800Y-89274114D01*
X103289953Y-89248018D01*
X103320935Y-89200694D01*
X103346819Y-89166951D01*
X103392641Y-89098648D01*
X103451281Y-89006433D01*
X103516159Y-88900430D01*
X103516878Y-88899234D01*
X103579308Y-88796464D01*
X103632824Y-88710451D01*
X103671754Y-88650170D01*
X103690428Y-88624600D01*
X103699550Y-88614773D01*
X103723642Y-88573800D01*
X103725061Y-88570673D01*
X103755093Y-88514227D01*
X103791147Y-88456739D01*
X103818752Y-88421400D01*
X103820093Y-88420003D01*
X103842686Y-88388368D01*
X103882915Y-88326842D01*
X103933052Y-88247203D01*
X103934369Y-88245078D01*
X103990473Y-88155239D01*
X104041963Y-88073962D01*
X104077846Y-88018603D01*
X104112892Y-87960132D01*
X104137959Y-87907049D01*
X104149719Y-87883217D01*
X104175763Y-87862599D01*
X104178169Y-87858239D01*
X104183593Y-87814338D01*
X104188405Y-87727965D01*
X104192440Y-87604992D01*
X104195529Y-87451291D01*
X104197505Y-87272736D01*
X104198200Y-87075200D01*
X104198200Y-86287800D01*
X103766400Y-86287800D01*
X103766400Y-85855507D01*
X104979250Y-85862103D01*
X106192100Y-85868700D01*
X106199478Y-86078250D01*
X106206855Y-86287800D01*
X105747600Y-86287800D01*
X105747600Y-87053151D01*
X105747604Y-87107675D01*
X105747804Y-87314408D01*
X105748594Y-87477736D01*
X105750367Y-87603667D01*
X105753517Y-87698211D01*
X105758437Y-87767375D01*
X105765518Y-87817168D01*
X105775156Y-87853598D01*
X105787742Y-87882673D01*
X105803669Y-87910401D01*
X105817531Y-87932422D01*
X105855152Y-87985493D01*
X105879869Y-88010766D01*
X105886694Y-88015552D01*
X105900000Y-88051405D01*
X105904757Y-88069133D01*
X105932296Y-88122243D01*
X105976200Y-88188769D01*
X106003736Y-88227731D01*
X106038721Y-88281092D01*
X106052400Y-88307952D01*
X106055474Y-88317892D01*
X106079462Y-88352622D01*
X106082555Y-88356377D01*
X106112946Y-88399444D01*
X106164119Y-88476806D01*
X106231265Y-88580908D01*
X106309579Y-88704190D01*
X106394253Y-88839096D01*
X106480481Y-88978068D01*
X106563455Y-89113550D01*
X106604838Y-89180139D01*
X106657736Y-89260483D01*
X106697715Y-89315437D01*
X106718362Y-89335800D01*
X106726390Y-89338743D01*
X106738200Y-89370013D01*
X106752503Y-89410242D01*
X106789000Y-89462800D01*
X106807014Y-89488200D01*
X106824313Y-89512593D01*
X106839800Y-89553469D01*
G36*
X99928005Y-87437150D02*
G01*
X99938433Y-87470071D01*
X99975125Y-87588402D01*
X100019654Y-87734796D01*
X100070150Y-87902861D01*
X100124745Y-88086203D01*
X100181572Y-88278427D01*
X100238763Y-88473139D01*
X100294449Y-88663946D01*
X100346762Y-88844454D01*
X100393834Y-89008269D01*
X100433797Y-89148997D01*
X100464783Y-89260245D01*
X100484924Y-89335618D01*
X100492352Y-89368722D01*
X100493771Y-89382595D01*
X100502099Y-89382165D01*
X100516522Y-89333458D01*
X100523313Y-89308044D01*
X100543786Y-89235870D01*
X100575322Y-89126779D01*
X100615911Y-88987577D01*
X100663540Y-88825073D01*
X100716196Y-88646073D01*
X100771869Y-88457386D01*
X100828545Y-88265819D01*
X100884213Y-88078179D01*
X100936860Y-87901274D01*
X100984475Y-87741911D01*
X101025046Y-87606897D01*
X101056560Y-87503041D01*
X101077006Y-87437150D01*
X101103340Y-87354600D01*
X101782918Y-87354600D01*
X101400443Y-88478550D01*
X101338391Y-88660892D01*
X101259393Y-88893002D01*
X101184434Y-89113219D01*
X101115568Y-89315511D01*
X101054849Y-89493843D01*
X101004331Y-89642182D01*
X100966069Y-89754495D01*
X100942115Y-89824750D01*
X100866262Y-90047000D01*
X100170009Y-90047000D01*
X99716893Y-88732550D01*
X99667507Y-88589302D01*
X99584751Y-88349348D01*
X99507691Y-88126017D01*
X99437878Y-87923795D01*
X99376862Y-87747168D01*
X99326193Y-87600623D01*
X99287422Y-87488647D01*
X99262098Y-87415727D01*
X99251771Y-87386350D01*
X99252757Y-87377466D01*
X99276842Y-87366578D01*
X99333914Y-87359530D01*
X99429896Y-87355734D01*
X99570713Y-87354600D01*
X99901661Y-87354600D01*
X99928005Y-87437150D01*
G37*
X99928005Y-87437150D02*
X99938433Y-87470071D01*
X99975125Y-87588402D01*
X100019654Y-87734796D01*
X100070150Y-87902861D01*
X100124745Y-88086203D01*
X100181572Y-88278427D01*
X100238763Y-88473139D01*
X100294449Y-88663946D01*
X100346762Y-88844454D01*
X100393834Y-89008269D01*
X100433797Y-89148997D01*
X100464783Y-89260245D01*
X100484924Y-89335618D01*
X100492352Y-89368722D01*
X100493771Y-89382595D01*
X100502099Y-89382165D01*
X100516522Y-89333458D01*
X100523313Y-89308044D01*
X100543786Y-89235870D01*
X100575322Y-89126779D01*
X100615911Y-88987577D01*
X100663540Y-88825073D01*
X100716196Y-88646073D01*
X100771869Y-88457386D01*
X100828545Y-88265819D01*
X100884213Y-88078179D01*
X100936860Y-87901274D01*
X100984475Y-87741911D01*
X101025046Y-87606897D01*
X101056560Y-87503041D01*
X101077006Y-87437150D01*
X101103340Y-87354600D01*
X101782918Y-87354600D01*
X101400443Y-88478550D01*
X101338391Y-88660892D01*
X101259393Y-88893002D01*
X101184434Y-89113219D01*
X101115568Y-89315511D01*
X101054849Y-89493843D01*
X101004331Y-89642182D01*
X100966069Y-89754495D01*
X100942115Y-89824750D01*
X100866262Y-90047000D01*
X100170009Y-90047000D01*
X99716893Y-88732550D01*
X99667507Y-88589302D01*
X99584751Y-88349348D01*
X99507691Y-88126017D01*
X99437878Y-87923795D01*
X99376862Y-87747168D01*
X99326193Y-87600623D01*
X99287422Y-87488647D01*
X99262098Y-87415727D01*
X99251771Y-87386350D01*
X99252757Y-87377466D01*
X99276842Y-87366578D01*
X99333914Y-87359530D01*
X99429896Y-87355734D01*
X99570713Y-87354600D01*
X99901661Y-87354600D01*
X99928005Y-87437150D01*
G36*
X98128817Y-87202216D02*
G01*
X98217586Y-87204808D01*
X98275685Y-87216048D01*
X98321005Y-87241957D01*
X98371440Y-87288560D01*
X98384904Y-87302233D01*
X98431987Y-87360181D01*
X98452993Y-87419241D01*
X98457800Y-87504059D01*
X98451024Y-87578824D01*
X98407646Y-87689319D01*
X98327632Y-87768002D01*
X98215046Y-87809754D01*
X98073383Y-87817800D01*
X97947984Y-87789333D01*
X97853085Y-87725575D01*
X97792989Y-87629493D01*
X97772000Y-87504059D01*
X97772141Y-87483786D01*
X97779407Y-87406114D01*
X97804855Y-87349254D01*
X97858360Y-87288559D01*
X97865446Y-87281506D01*
X97914287Y-87237774D01*
X97960214Y-87213995D01*
X98021121Y-87204144D01*
X98114900Y-87202199D01*
X98128817Y-87202216D01*
G37*
X98128817Y-87202216D02*
X98217586Y-87204808D01*
X98275685Y-87216048D01*
X98321005Y-87241957D01*
X98371440Y-87288560D01*
X98384904Y-87302233D01*
X98431987Y-87360181D01*
X98452993Y-87419241D01*
X98457800Y-87504059D01*
X98451024Y-87578824D01*
X98407646Y-87689319D01*
X98327632Y-87768002D01*
X98215046Y-87809754D01*
X98073383Y-87817800D01*
X97947984Y-87789333D01*
X97853085Y-87725575D01*
X97792989Y-87629493D01*
X97772000Y-87504059D01*
X97772141Y-87483786D01*
X97779407Y-87406114D01*
X97804855Y-87349254D01*
X97858360Y-87288559D01*
X97865446Y-87281506D01*
X97914287Y-87237774D01*
X97960214Y-87213995D01*
X98021121Y-87204144D01*
X98114900Y-87202199D01*
X98128817Y-87202216D01*
G36*
X98432400Y-90047000D02*
G01*
X97822800Y-90047000D01*
X97822800Y-88116600D01*
X98432400Y-88116600D01*
X98432400Y-90047000D01*
G37*
X98432400Y-90047000D02*
X97822800Y-90047000D01*
X97822800Y-88116600D01*
X98432400Y-88116600D01*
X98432400Y-90047000D01*
G36*
X96899398Y-89625528D02*
G01*
X96886197Y-89711426D01*
X96861315Y-89778594D01*
X96819088Y-89846599D01*
X96795650Y-89876464D01*
X96715924Y-89954392D01*
X96631355Y-90013299D01*
X96599081Y-90029296D01*
X96524779Y-90055631D01*
X96437852Y-90068804D01*
X96319390Y-90072400D01*
X96174865Y-90065436D01*
X96045691Y-90038002D01*
X95937317Y-89984869D01*
X95835250Y-89900904D01*
X95740000Y-89808090D01*
X95740000Y-90047000D01*
X95155800Y-90047000D01*
X95155800Y-89433130D01*
X95156153Y-89333584D01*
X95158502Y-89154376D01*
X95159174Y-89128134D01*
X95740000Y-89128134D01*
X95740558Y-89225617D01*
X95743136Y-89266060D01*
X95773667Y-89387640D01*
X95830951Y-89501129D01*
X95905335Y-89585446D01*
X95974078Y-89619552D01*
X96072416Y-89639155D01*
X96172435Y-89638307D01*
X96251020Y-89615029D01*
X96270991Y-89599369D01*
X96314218Y-89534302D01*
X96339947Y-89451670D01*
X96339470Y-89375096D01*
X96323542Y-89328671D01*
X96287696Y-89276919D01*
X96229249Y-89235926D01*
X96141165Y-89202391D01*
X96016411Y-89173013D01*
X95847950Y-89144492D01*
X95740000Y-89128134D01*
X95159174Y-89128134D01*
X95162764Y-88987849D01*
X95168595Y-88843533D01*
X95175653Y-88730956D01*
X95183596Y-88659648D01*
X95200286Y-88582535D01*
X95269004Y-88405930D01*
X95373332Y-88263151D01*
X95511400Y-88157065D01*
X95534973Y-88143877D01*
X95587406Y-88116642D01*
X95635651Y-88098302D01*
X95690705Y-88087133D01*
X95763567Y-88081409D01*
X95865233Y-88079407D01*
X96006700Y-88079403D01*
X96069725Y-88079695D01*
X96203969Y-88082095D01*
X96305253Y-88088083D01*
X96386452Y-88099192D01*
X96460443Y-88116954D01*
X96540100Y-88142903D01*
X96717900Y-88205500D01*
X96732386Y-88696292D01*
X96548405Y-88604515D01*
X96445959Y-88556782D01*
X96358743Y-88527218D01*
X96265873Y-88510942D01*
X96144793Y-88502238D01*
X96045414Y-88498173D01*
X95972718Y-88499172D01*
X95924442Y-88508652D01*
X95886846Y-88529479D01*
X95846188Y-88564519D01*
X95820801Y-88590508D01*
X95775586Y-88653368D01*
X95748901Y-88713718D01*
X95745216Y-88759228D01*
X95768997Y-88777564D01*
X95771035Y-88777646D01*
X95813537Y-88782183D01*
X95894235Y-88792597D01*
X96002381Y-88807455D01*
X96127226Y-88825322D01*
X96167217Y-88831371D01*
X96392181Y-88876299D01*
X96571415Y-88935113D01*
X96708425Y-89011092D01*
X96806714Y-89107514D01*
X96869788Y-89227656D01*
X96901151Y-89374799D01*
X96902519Y-89451670D01*
X96904307Y-89552218D01*
X96899398Y-89625528D01*
G37*
X96899398Y-89625528D02*
X96886197Y-89711426D01*
X96861315Y-89778594D01*
X96819088Y-89846599D01*
X96795650Y-89876464D01*
X96715924Y-89954392D01*
X96631355Y-90013299D01*
X96599081Y-90029296D01*
X96524779Y-90055631D01*
X96437852Y-90068804D01*
X96319390Y-90072400D01*
X96174865Y-90065436D01*
X96045691Y-90038002D01*
X95937317Y-89984869D01*
X95835250Y-89900904D01*
X95740000Y-89808090D01*
X95740000Y-90047000D01*
X95155800Y-90047000D01*
X95155800Y-89433130D01*
X95156153Y-89333584D01*
X95158502Y-89154376D01*
X95159174Y-89128134D01*
X95740000Y-89128134D01*
X95740558Y-89225617D01*
X95743136Y-89266060D01*
X95773667Y-89387640D01*
X95830951Y-89501129D01*
X95905335Y-89585446D01*
X95974078Y-89619552D01*
X96072416Y-89639155D01*
X96172435Y-89638307D01*
X96251020Y-89615029D01*
X96270991Y-89599369D01*
X96314218Y-89534302D01*
X96339947Y-89451670D01*
X96339470Y-89375096D01*
X96323542Y-89328671D01*
X96287696Y-89276919D01*
X96229249Y-89235926D01*
X96141165Y-89202391D01*
X96016411Y-89173013D01*
X95847950Y-89144492D01*
X95740000Y-89128134D01*
X95159174Y-89128134D01*
X95162764Y-88987849D01*
X95168595Y-88843533D01*
X95175653Y-88730956D01*
X95183596Y-88659648D01*
X95200286Y-88582535D01*
X95269004Y-88405930D01*
X95373332Y-88263151D01*
X95511400Y-88157065D01*
X95534973Y-88143877D01*
X95587406Y-88116642D01*
X95635651Y-88098302D01*
X95690705Y-88087133D01*
X95763567Y-88081409D01*
X95865233Y-88079407D01*
X96006700Y-88079403D01*
X96069725Y-88079695D01*
X96203969Y-88082095D01*
X96305253Y-88088083D01*
X96386452Y-88099192D01*
X96460443Y-88116954D01*
X96540100Y-88142903D01*
X96717900Y-88205500D01*
X96732386Y-88696292D01*
X96548405Y-88604515D01*
X96445959Y-88556782D01*
X96358743Y-88527218D01*
X96265873Y-88510942D01*
X96144793Y-88502238D01*
X96045414Y-88498173D01*
X95972718Y-88499172D01*
X95924442Y-88508652D01*
X95886846Y-88529479D01*
X95846188Y-88564519D01*
X95820801Y-88590508D01*
X95775586Y-88653368D01*
X95748901Y-88713718D01*
X95745216Y-88759228D01*
X95768997Y-88777564D01*
X95771035Y-88777646D01*
X95813537Y-88782183D01*
X95894235Y-88792597D01*
X96002381Y-88807455D01*
X96127226Y-88825322D01*
X96167217Y-88831371D01*
X96392181Y-88876299D01*
X96571415Y-88935113D01*
X96708425Y-89011092D01*
X96806714Y-89107514D01*
X96869788Y-89227656D01*
X96901151Y-89374799D01*
X96902519Y-89451670D01*
X96904307Y-89552218D01*
X96899398Y-89625528D01*
D11*
%TO.C,D1415*%
X79150000Y-72450000D02*
X78220000Y-72450000D01*
X79150000Y-72450000D02*
X79150000Y-70990000D01*
X75990000Y-72450000D02*
X76920000Y-72450000D01*
X75990000Y-72450000D02*
X75990000Y-70290000D01*
%TO.C,C2*%
X40465000Y-63211252D02*
X40465000Y-62688748D01*
X41935000Y-63211252D02*
X41935000Y-62688748D01*
%TO.C,R5*%
X43987348Y-98420297D02*
X42629703Y-97062652D01*
X45885929Y-96521716D02*
X43987348Y-98420297D01*
X42629703Y-97062652D02*
X44528284Y-95164071D01*
%TO.C,D2223*%
X68130000Y-100190000D02*
X67200000Y-100190000D01*
X68130000Y-100190000D02*
X68130000Y-102350000D01*
X64970000Y-100190000D02*
X64970000Y-101650000D01*
X64970000Y-100190000D02*
X65900000Y-100190000D01*
%TO.C,C5*%
X49288748Y-67160000D02*
X49811252Y-67160000D01*
X49288748Y-65690000D02*
X49811252Y-65690000D01*
%TO.C,D3233*%
X68130000Y-110810000D02*
X68130000Y-109350000D01*
X64970000Y-110810000D02*
X65900000Y-110810000D01*
X68130000Y-110810000D02*
X67200000Y-110810000D01*
X64970000Y-110810000D02*
X64970000Y-108650000D01*
%TO.C,D1819*%
X152200000Y-72630000D02*
X153130000Y-72630000D01*
X155360000Y-72630000D02*
X155360000Y-71170000D01*
X155360000Y-72630000D02*
X154430000Y-72630000D01*
X152200000Y-72630000D02*
X152200000Y-70470000D01*
%TO.C,G\u002A\u002A\u002A*%
G36*
X67732688Y-90009052D02*
G01*
X67658307Y-90003211D01*
X67603646Y-89988025D01*
X67580775Y-89950683D01*
X67571790Y-89876430D01*
X67561704Y-89753485D01*
X67475350Y-89836218D01*
X67460167Y-89850043D01*
X67366095Y-89920748D01*
X67263186Y-89981710D01*
X67235487Y-89994582D01*
X67051847Y-90041099D01*
X66853599Y-90032694D01*
X66655080Y-89969652D01*
X66523014Y-89889718D01*
X66379167Y-89739134D01*
X66276046Y-89540531D01*
X66213968Y-89294576D01*
X66194186Y-89015125D01*
X66571492Y-89015125D01*
X66583429Y-89234466D01*
X66626045Y-89425093D01*
X66700998Y-89567259D01*
X66809778Y-89665034D01*
X66952216Y-89722525D01*
X67095982Y-89719939D01*
X67243921Y-89656261D01*
X67399313Y-89530745D01*
X67534250Y-89398778D01*
X67533247Y-89032326D01*
X67532925Y-88958660D01*
X67530510Y-88821546D01*
X67523898Y-88728615D01*
X67510757Y-88666249D01*
X67488752Y-88620832D01*
X67455553Y-88578746D01*
X67432796Y-88553842D01*
X67292071Y-88434360D01*
X67143001Y-88357904D01*
X66996333Y-88327023D01*
X66862812Y-88344265D01*
X66753185Y-88412178D01*
X66671542Y-88513653D01*
X66613597Y-88642154D01*
X66581589Y-88804856D01*
X66571492Y-89015125D01*
X66194186Y-89015125D01*
X66193252Y-89001935D01*
X66194321Y-88933239D01*
X66223571Y-88659606D01*
X66291892Y-88431989D01*
X66398041Y-88252054D01*
X66540772Y-88121467D01*
X66718840Y-88041894D01*
X66931000Y-88015000D01*
X67052656Y-88023783D01*
X67239860Y-88079545D01*
X67423113Y-88191768D01*
X67534250Y-88276536D01*
X67534250Y-87187928D01*
X67619141Y-87155652D01*
X67694648Y-87139566D01*
X67793766Y-87143086D01*
X67883500Y-87162795D01*
X67883500Y-90018729D01*
X67732688Y-90009052D01*
G37*
D12*
X67732688Y-90009052D02*
X67658307Y-90003211D01*
X67603646Y-89988025D01*
X67580775Y-89950683D01*
X67571790Y-89876430D01*
X67561704Y-89753485D01*
X67475350Y-89836218D01*
X67460167Y-89850043D01*
X67366095Y-89920748D01*
X67263186Y-89981710D01*
X67235487Y-89994582D01*
X67051847Y-90041099D01*
X66853599Y-90032694D01*
X66655080Y-89969652D01*
X66523014Y-89889718D01*
X66379167Y-89739134D01*
X66276046Y-89540531D01*
X66213968Y-89294576D01*
X66194186Y-89015125D01*
X66571492Y-89015125D01*
X66583429Y-89234466D01*
X66626045Y-89425093D01*
X66700998Y-89567259D01*
X66809778Y-89665034D01*
X66952216Y-89722525D01*
X67095982Y-89719939D01*
X67243921Y-89656261D01*
X67399313Y-89530745D01*
X67534250Y-89398778D01*
X67533247Y-89032326D01*
X67532925Y-88958660D01*
X67530510Y-88821546D01*
X67523898Y-88728615D01*
X67510757Y-88666249D01*
X67488752Y-88620832D01*
X67455553Y-88578746D01*
X67432796Y-88553842D01*
X67292071Y-88434360D01*
X67143001Y-88357904D01*
X66996333Y-88327023D01*
X66862812Y-88344265D01*
X66753185Y-88412178D01*
X66671542Y-88513653D01*
X66613597Y-88642154D01*
X66581589Y-88804856D01*
X66571492Y-89015125D01*
X66194186Y-89015125D01*
X66193252Y-89001935D01*
X66194321Y-88933239D01*
X66223571Y-88659606D01*
X66291892Y-88431989D01*
X66398041Y-88252054D01*
X66540772Y-88121467D01*
X66718840Y-88041894D01*
X66931000Y-88015000D01*
X67052656Y-88023783D01*
X67239860Y-88079545D01*
X67423113Y-88191768D01*
X67534250Y-88276536D01*
X67534250Y-87187928D01*
X67619141Y-87155652D01*
X67694648Y-87139566D01*
X67793766Y-87143086D01*
X67883500Y-87162795D01*
X67883500Y-90018729D01*
X67732688Y-90009052D01*
G36*
X55058071Y-87342811D02*
G01*
X55066986Y-87347598D01*
X55121527Y-87395130D01*
X55207300Y-87485502D01*
X55318853Y-87612555D01*
X55450734Y-87770130D01*
X55597490Y-87952069D01*
X56056625Y-88530803D01*
X56088375Y-87366409D01*
X56183625Y-87339179D01*
X56247650Y-87328623D01*
X56366188Y-87345188D01*
X56453500Y-87378428D01*
X56453500Y-88675672D01*
X56453407Y-88793600D01*
X56452448Y-89067332D01*
X56450542Y-89318395D01*
X56447808Y-89539986D01*
X56444360Y-89725297D01*
X56440317Y-89867525D01*
X56435794Y-89959864D01*
X56430908Y-89995509D01*
X56412963Y-90002791D01*
X56344560Y-90009983D01*
X56248345Y-90008738D01*
X56088375Y-89999375D01*
X56056625Y-88677497D01*
X55598369Y-89302300D01*
X55508428Y-89424611D01*
X55385341Y-89590931D01*
X55276654Y-89736553D01*
X55188118Y-89853825D01*
X55125487Y-89935093D01*
X55094511Y-89972703D01*
X55083249Y-89981726D01*
X55014107Y-90005606D01*
X54920965Y-90012683D01*
X54825454Y-90004392D01*
X54749207Y-89982169D01*
X54713858Y-89947448D01*
X54725819Y-89915863D01*
X54771352Y-89838907D01*
X54846085Y-89725283D01*
X54945043Y-89582316D01*
X55063251Y-89417336D01*
X55195734Y-89237670D01*
X55687474Y-88579819D01*
X55229112Y-88031147D01*
X55190001Y-87984126D01*
X55052299Y-87814964D01*
X54936563Y-87667002D01*
X54847752Y-87546888D01*
X54790828Y-87461272D01*
X54770750Y-87416801D01*
X54797049Y-87365961D01*
X54866505Y-87332547D01*
X54959921Y-87323180D01*
X55058071Y-87342811D01*
G37*
X55058071Y-87342811D02*
X55066986Y-87347598D01*
X55121527Y-87395130D01*
X55207300Y-87485502D01*
X55318853Y-87612555D01*
X55450734Y-87770130D01*
X55597490Y-87952069D01*
X56056625Y-88530803D01*
X56088375Y-87366409D01*
X56183625Y-87339179D01*
X56247650Y-87328623D01*
X56366188Y-87345188D01*
X56453500Y-87378428D01*
X56453500Y-88675672D01*
X56453407Y-88793600D01*
X56452448Y-89067332D01*
X56450542Y-89318395D01*
X56447808Y-89539986D01*
X56444360Y-89725297D01*
X56440317Y-89867525D01*
X56435794Y-89959864D01*
X56430908Y-89995509D01*
X56412963Y-90002791D01*
X56344560Y-90009983D01*
X56248345Y-90008738D01*
X56088375Y-89999375D01*
X56056625Y-88677497D01*
X55598369Y-89302300D01*
X55508428Y-89424611D01*
X55385341Y-89590931D01*
X55276654Y-89736553D01*
X55188118Y-89853825D01*
X55125487Y-89935093D01*
X55094511Y-89972703D01*
X55083249Y-89981726D01*
X55014107Y-90005606D01*
X54920965Y-90012683D01*
X54825454Y-90004392D01*
X54749207Y-89982169D01*
X54713858Y-89947448D01*
X54725819Y-89915863D01*
X54771352Y-89838907D01*
X54846085Y-89725283D01*
X54945043Y-89582316D01*
X55063251Y-89417336D01*
X55195734Y-89237670D01*
X55687474Y-88579819D01*
X55229112Y-88031147D01*
X55190001Y-87984126D01*
X55052299Y-87814964D01*
X54936563Y-87667002D01*
X54847752Y-87546888D01*
X54790828Y-87461272D01*
X54770750Y-87416801D01*
X54797049Y-87365961D01*
X54866505Y-87332547D01*
X54959921Y-87323180D01*
X55058071Y-87342811D01*
G36*
X83785174Y-87844238D02*
G01*
X83788075Y-88072507D01*
X83789727Y-88355933D01*
X83790250Y-88698683D01*
X83790187Y-88797183D01*
X83789336Y-89069498D01*
X83787576Y-89319469D01*
X83785020Y-89540236D01*
X83781781Y-89724940D01*
X83777971Y-89866722D01*
X83773701Y-89958723D01*
X83769084Y-89994083D01*
X83749542Y-90004446D01*
X83678142Y-90014699D01*
X83585862Y-90012614D01*
X83499874Y-89999621D01*
X83447350Y-89977150D01*
X83430922Y-89934946D01*
X83418726Y-89837807D01*
X83411580Y-89683583D01*
X83409250Y-89469150D01*
X83409250Y-88999250D01*
X83161013Y-88999250D01*
X83041690Y-88995403D01*
X82779940Y-88954308D01*
X82561335Y-88869580D01*
X82387813Y-88742901D01*
X82261313Y-88575954D01*
X82183772Y-88370421D01*
X82164739Y-88197220D01*
X82559510Y-88197220D01*
X82567013Y-88277463D01*
X82607320Y-88429179D01*
X82685349Y-88541289D01*
X82808257Y-88626138D01*
X82857816Y-88646761D01*
X82985997Y-88673269D01*
X83163188Y-88681700D01*
X83409250Y-88681750D01*
X83409250Y-87665750D01*
X83146818Y-87665750D01*
X83042292Y-87668905D01*
X82850213Y-87699314D01*
X82709153Y-87764401D01*
X82615855Y-87867115D01*
X82567060Y-88010405D01*
X82559510Y-88197220D01*
X82164739Y-88197220D01*
X82157130Y-88127984D01*
X82165424Y-87997616D01*
X82221720Y-87790200D01*
X82328825Y-87618424D01*
X82483952Y-87486149D01*
X82684316Y-87397237D01*
X82717371Y-87388907D01*
X82830743Y-87371034D01*
X82975802Y-87357900D01*
X83138987Y-87349643D01*
X83306737Y-87346401D01*
X83465490Y-87348313D01*
X83601684Y-87355516D01*
X83701758Y-87368148D01*
X83752151Y-87386350D01*
X83758657Y-87399366D01*
X83767765Y-87448689D01*
X83775139Y-87536496D01*
X83780849Y-87665750D01*
X83780902Y-87666957D01*
X83785174Y-87844238D01*
G37*
X83785174Y-87844238D02*
X83788075Y-88072507D01*
X83789727Y-88355933D01*
X83790250Y-88698683D01*
X83790187Y-88797183D01*
X83789336Y-89069498D01*
X83787576Y-89319469D01*
X83785020Y-89540236D01*
X83781781Y-89724940D01*
X83777971Y-89866722D01*
X83773701Y-89958723D01*
X83769084Y-89994083D01*
X83749542Y-90004446D01*
X83678142Y-90014699D01*
X83585862Y-90012614D01*
X83499874Y-89999621D01*
X83447350Y-89977150D01*
X83430922Y-89934946D01*
X83418726Y-89837807D01*
X83411580Y-89683583D01*
X83409250Y-89469150D01*
X83409250Y-88999250D01*
X83161013Y-88999250D01*
X83041690Y-88995403D01*
X82779940Y-88954308D01*
X82561335Y-88869580D01*
X82387813Y-88742901D01*
X82261313Y-88575954D01*
X82183772Y-88370421D01*
X82164739Y-88197220D01*
X82559510Y-88197220D01*
X82567013Y-88277463D01*
X82607320Y-88429179D01*
X82685349Y-88541289D01*
X82808257Y-88626138D01*
X82857816Y-88646761D01*
X82985997Y-88673269D01*
X83163188Y-88681700D01*
X83409250Y-88681750D01*
X83409250Y-87665750D01*
X83146818Y-87665750D01*
X83042292Y-87668905D01*
X82850213Y-87699314D01*
X82709153Y-87764401D01*
X82615855Y-87867115D01*
X82567060Y-88010405D01*
X82559510Y-88197220D01*
X82164739Y-88197220D01*
X82157130Y-88127984D01*
X82165424Y-87997616D01*
X82221720Y-87790200D01*
X82328825Y-87618424D01*
X82483952Y-87486149D01*
X82684316Y-87397237D01*
X82717371Y-87388907D01*
X82830743Y-87371034D01*
X82975802Y-87357900D01*
X83138987Y-87349643D01*
X83306737Y-87346401D01*
X83465490Y-87348313D01*
X83601684Y-87355516D01*
X83701758Y-87368148D01*
X83752151Y-87386350D01*
X83758657Y-87399366D01*
X83767765Y-87448689D01*
X83775139Y-87536496D01*
X83780849Y-87665750D01*
X83780902Y-87666957D01*
X83785174Y-87844238D01*
G36*
X71129203Y-89314772D02*
G01*
X71069119Y-89559466D01*
X70969964Y-89756563D01*
X70832543Y-89904644D01*
X70657664Y-90002290D01*
X70546282Y-90030855D01*
X70354871Y-90034966D01*
X70160137Y-89993415D01*
X69980927Y-89911011D01*
X69836087Y-89792566D01*
X69772625Y-89722052D01*
X69756750Y-89860713D01*
X69740875Y-89999375D01*
X69455125Y-89999375D01*
X69455125Y-88631137D01*
X69820250Y-88631137D01*
X69821254Y-89013631D01*
X69821300Y-89028553D01*
X69824443Y-89205977D01*
X69836407Y-89335055D01*
X69863213Y-89429889D01*
X69910880Y-89504580D01*
X69985428Y-89573230D01*
X70092875Y-89649940D01*
X70184147Y-89700061D01*
X70332874Y-89733849D01*
X70473791Y-89708623D01*
X70598028Y-89624822D01*
X70674302Y-89529927D01*
X70731328Y-89402978D01*
X70762762Y-89240976D01*
X70772396Y-89031000D01*
X70772387Y-89022904D01*
X70763477Y-88824299D01*
X70734893Y-88671759D01*
X70682230Y-88550212D01*
X70601086Y-88444584D01*
X70593025Y-88436094D01*
X70518820Y-88369349D01*
X70447004Y-88339414D01*
X70346227Y-88332500D01*
X70250672Y-88337168D01*
X70148011Y-88362702D01*
X70051534Y-88419433D01*
X69939313Y-88517322D01*
X69820250Y-88631137D01*
X69455125Y-88631137D01*
X69455125Y-87173625D01*
X69610804Y-87163749D01*
X69626775Y-87162858D01*
X69738665Y-87167717D01*
X69792880Y-87195499D01*
X69798145Y-87213793D01*
X69806582Y-87289210D01*
X69813393Y-87409433D01*
X69817985Y-87562521D01*
X69819764Y-87736533D01*
X69820250Y-88235941D01*
X69963626Y-88134881D01*
X69978679Y-88124415D01*
X70077544Y-88067012D01*
X70178941Y-88035739D01*
X70313196Y-88020691D01*
X70314294Y-88020621D01*
X70537770Y-88033294D01*
X70729591Y-88099475D01*
X70887829Y-88216569D01*
X71010554Y-88381977D01*
X71095837Y-88593104D01*
X71141748Y-88847352D01*
X71144620Y-89031000D01*
X71146357Y-89142125D01*
X71129203Y-89314772D01*
G37*
X71129203Y-89314772D02*
X71069119Y-89559466D01*
X70969964Y-89756563D01*
X70832543Y-89904644D01*
X70657664Y-90002290D01*
X70546282Y-90030855D01*
X70354871Y-90034966D01*
X70160137Y-89993415D01*
X69980927Y-89911011D01*
X69836087Y-89792566D01*
X69772625Y-89722052D01*
X69756750Y-89860713D01*
X69740875Y-89999375D01*
X69455125Y-89999375D01*
X69455125Y-88631137D01*
X69820250Y-88631137D01*
X69821254Y-89013631D01*
X69821300Y-89028553D01*
X69824443Y-89205977D01*
X69836407Y-89335055D01*
X69863213Y-89429889D01*
X69910880Y-89504580D01*
X69985428Y-89573230D01*
X70092875Y-89649940D01*
X70184147Y-89700061D01*
X70332874Y-89733849D01*
X70473791Y-89708623D01*
X70598028Y-89624822D01*
X70674302Y-89529927D01*
X70731328Y-89402978D01*
X70762762Y-89240976D01*
X70772396Y-89031000D01*
X70772387Y-89022904D01*
X70763477Y-88824299D01*
X70734893Y-88671759D01*
X70682230Y-88550212D01*
X70601086Y-88444584D01*
X70593025Y-88436094D01*
X70518820Y-88369349D01*
X70447004Y-88339414D01*
X70346227Y-88332500D01*
X70250672Y-88337168D01*
X70148011Y-88362702D01*
X70051534Y-88419433D01*
X69939313Y-88517322D01*
X69820250Y-88631137D01*
X69455125Y-88631137D01*
X69455125Y-87173625D01*
X69610804Y-87163749D01*
X69626775Y-87162858D01*
X69738665Y-87167717D01*
X69792880Y-87195499D01*
X69798145Y-87213793D01*
X69806582Y-87289210D01*
X69813393Y-87409433D01*
X69817985Y-87562521D01*
X69819764Y-87736533D01*
X69820250Y-88235941D01*
X69963626Y-88134881D01*
X69978679Y-88124415D01*
X70077544Y-88067012D01*
X70178941Y-88035739D01*
X70313196Y-88020691D01*
X70314294Y-88020621D01*
X70537770Y-88033294D01*
X70729591Y-88099475D01*
X70887829Y-88216569D01*
X71010554Y-88381977D01*
X71095837Y-88593104D01*
X71141748Y-88847352D01*
X71144620Y-89031000D01*
X71146357Y-89142125D01*
X71129203Y-89314772D01*
G36*
X65832404Y-88047346D02*
G01*
X65906054Y-88054228D01*
X65939107Y-88073416D01*
X65946750Y-88110567D01*
X65944426Y-88124170D01*
X65924213Y-88193516D01*
X65885453Y-88310924D01*
X65830855Y-88468636D01*
X65763129Y-88658893D01*
X65684984Y-88873936D01*
X65599130Y-89106007D01*
X65251510Y-90037630D01*
X65378284Y-90360575D01*
X65419657Y-90470605D01*
X65459270Y-90588240D01*
X65482710Y-90674007D01*
X65485906Y-90714510D01*
X65485181Y-90715589D01*
X65439467Y-90735897D01*
X65356739Y-90744480D01*
X65261288Y-90741932D01*
X65177404Y-90728845D01*
X65129378Y-90705812D01*
X65122104Y-90692435D01*
X65093435Y-90624740D01*
X65048129Y-90508744D01*
X64988947Y-90352152D01*
X64918647Y-90162670D01*
X64839987Y-89948003D01*
X64755726Y-89715857D01*
X64668622Y-89473935D01*
X64581435Y-89229945D01*
X64496922Y-88991590D01*
X64417843Y-88766577D01*
X64346956Y-88562610D01*
X64287020Y-88387395D01*
X64240793Y-88248637D01*
X64211033Y-88154041D01*
X64200500Y-88111312D01*
X64201147Y-88096407D01*
X64216140Y-88064498D01*
X64262966Y-88050106D01*
X64357377Y-88046750D01*
X64411439Y-88048665D01*
X64493378Y-88060418D01*
X64534384Y-88079322D01*
X64542413Y-88097851D01*
X64569700Y-88170391D01*
X64612357Y-88288608D01*
X64667274Y-88443768D01*
X64731345Y-88627135D01*
X64801461Y-88829975D01*
X64850743Y-88971500D01*
X64916393Y-89154216D01*
X64973989Y-89307790D01*
X65020510Y-89424453D01*
X65052933Y-89496435D01*
X65068239Y-89515966D01*
X65072850Y-89506090D01*
X65097063Y-89444560D01*
X65137592Y-89336196D01*
X65191102Y-89190076D01*
X65254256Y-89015276D01*
X65323717Y-88820876D01*
X65353419Y-88737367D01*
X65421084Y-88547589D01*
X65481166Y-88379705D01*
X65530256Y-88243205D01*
X65564947Y-88147577D01*
X65581829Y-88102312D01*
X65608449Y-88069738D01*
X65668234Y-88051760D01*
X65775522Y-88046750D01*
X65832404Y-88047346D01*
G37*
X65832404Y-88047346D02*
X65906054Y-88054228D01*
X65939107Y-88073416D01*
X65946750Y-88110567D01*
X65944426Y-88124170D01*
X65924213Y-88193516D01*
X65885453Y-88310924D01*
X65830855Y-88468636D01*
X65763129Y-88658893D01*
X65684984Y-88873936D01*
X65599130Y-89106007D01*
X65251510Y-90037630D01*
X65378284Y-90360575D01*
X65419657Y-90470605D01*
X65459270Y-90588240D01*
X65482710Y-90674007D01*
X65485906Y-90714510D01*
X65485181Y-90715589D01*
X65439467Y-90735897D01*
X65356739Y-90744480D01*
X65261288Y-90741932D01*
X65177404Y-90728845D01*
X65129378Y-90705812D01*
X65122104Y-90692435D01*
X65093435Y-90624740D01*
X65048129Y-90508744D01*
X64988947Y-90352152D01*
X64918647Y-90162670D01*
X64839987Y-89948003D01*
X64755726Y-89715857D01*
X64668622Y-89473935D01*
X64581435Y-89229945D01*
X64496922Y-88991590D01*
X64417843Y-88766577D01*
X64346956Y-88562610D01*
X64287020Y-88387395D01*
X64240793Y-88248637D01*
X64211033Y-88154041D01*
X64200500Y-88111312D01*
X64201147Y-88096407D01*
X64216140Y-88064498D01*
X64262966Y-88050106D01*
X64357377Y-88046750D01*
X64411439Y-88048665D01*
X64493378Y-88060418D01*
X64534384Y-88079322D01*
X64542413Y-88097851D01*
X64569700Y-88170391D01*
X64612357Y-88288608D01*
X64667274Y-88443768D01*
X64731345Y-88627135D01*
X64801461Y-88829975D01*
X64850743Y-88971500D01*
X64916393Y-89154216D01*
X64973989Y-89307790D01*
X65020510Y-89424453D01*
X65052933Y-89496435D01*
X65068239Y-89515966D01*
X65072850Y-89506090D01*
X65097063Y-89444560D01*
X65137592Y-89336196D01*
X65191102Y-89190076D01*
X65254256Y-89015276D01*
X65323717Y-88820876D01*
X65353419Y-88737367D01*
X65421084Y-88547589D01*
X65481166Y-88379705D01*
X65530256Y-88243205D01*
X65564947Y-88147577D01*
X65581829Y-88102312D01*
X65608449Y-88069738D01*
X65668234Y-88051760D01*
X65775522Y-88046750D01*
X65832404Y-88047346D01*
G36*
X73828574Y-88031674D02*
G01*
X73967696Y-88097163D01*
X74100007Y-88218830D01*
X74198190Y-88330653D01*
X74207908Y-88196639D01*
X74217625Y-88062625D01*
X74368438Y-88052947D01*
X74519250Y-88043270D01*
X74519250Y-89008093D01*
X74519139Y-89103829D01*
X74517889Y-89338286D01*
X74515394Y-89549014D01*
X74511838Y-89728057D01*
X74507402Y-89867463D01*
X74502268Y-89959278D01*
X74496620Y-89995547D01*
X74484197Y-90001598D01*
X74421276Y-90009843D01*
X74329933Y-90008776D01*
X74185875Y-89999375D01*
X74168627Y-88736011D01*
X74060222Y-88588333D01*
X74052906Y-88578428D01*
X73954763Y-88462531D01*
X73861400Y-88395963D01*
X73754537Y-88369984D01*
X73615898Y-88375852D01*
X73439750Y-88396554D01*
X73439750Y-88238644D01*
X73449757Y-88127524D01*
X73487885Y-88058434D01*
X73565319Y-88024214D01*
X73693240Y-88015000D01*
X73828574Y-88031674D01*
G37*
X73828574Y-88031674D02*
X73967696Y-88097163D01*
X74100007Y-88218830D01*
X74198190Y-88330653D01*
X74207908Y-88196639D01*
X74217625Y-88062625D01*
X74368438Y-88052947D01*
X74519250Y-88043270D01*
X74519250Y-89008093D01*
X74519139Y-89103829D01*
X74517889Y-89338286D01*
X74515394Y-89549014D01*
X74511838Y-89728057D01*
X74507402Y-89867463D01*
X74502268Y-89959278D01*
X74496620Y-89995547D01*
X74484197Y-90001598D01*
X74421276Y-90009843D01*
X74329933Y-90008776D01*
X74185875Y-89999375D01*
X74168627Y-88736011D01*
X74060222Y-88588333D01*
X74052906Y-88578428D01*
X73954763Y-88462531D01*
X73861400Y-88395963D01*
X73754537Y-88369984D01*
X73615898Y-88375852D01*
X73439750Y-88396554D01*
X73439750Y-88238644D01*
X73449757Y-88127524D01*
X73487885Y-88058434D01*
X73565319Y-88024214D01*
X73693240Y-88015000D01*
X73828574Y-88031674D01*
G36*
X62940905Y-89153329D02*
G01*
X62873945Y-89398902D01*
X62841656Y-89472162D01*
X62735224Y-89636887D01*
X62595998Y-89787685D01*
X62443173Y-89902132D01*
X62423116Y-89913279D01*
X62235320Y-89986150D01*
X62013884Y-90028906D01*
X61779219Y-90040374D01*
X61551731Y-90019384D01*
X61351831Y-89964764D01*
X61344510Y-89961845D01*
X61258700Y-89932559D01*
X61204242Y-89930740D01*
X61157407Y-89955222D01*
X61057371Y-90027462D01*
X60853514Y-90167062D01*
X60689099Y-90267151D01*
X60559468Y-90330653D01*
X60529447Y-90342721D01*
X60424954Y-90380221D01*
X60360742Y-90389732D01*
X60322935Y-90370858D01*
X60297657Y-90323205D01*
X60275447Y-90229500D01*
X60294699Y-90138033D01*
X60367117Y-90057016D01*
X60497688Y-89977841D01*
X60595392Y-89925222D01*
X60717278Y-89851590D01*
X60811356Y-89786103D01*
X60930586Y-89692148D01*
X60858981Y-89592167D01*
X60820008Y-89534482D01*
X60717732Y-89333674D01*
X60651805Y-89106015D01*
X60620032Y-88841758D01*
X60620207Y-88554982D01*
X61003649Y-88554982D01*
X61005396Y-88794546D01*
X61033199Y-89024564D01*
X61087556Y-89226225D01*
X61157711Y-89367866D01*
X61289737Y-89527876D01*
X61454125Y-89642109D01*
X61524321Y-89669990D01*
X61699820Y-89704054D01*
X61892581Y-89705365D01*
X62078202Y-89674825D01*
X62232283Y-89613336D01*
X62289547Y-89572112D01*
X62399620Y-89447661D01*
X62489342Y-89284465D01*
X62548527Y-89099086D01*
X62563995Y-89007680D01*
X62579170Y-88816172D01*
X62578306Y-88609751D01*
X62562516Y-88407752D01*
X62532915Y-88229515D01*
X62490619Y-88094375D01*
X62468045Y-88046960D01*
X62347821Y-87863426D01*
X62198033Y-87735226D01*
X62014843Y-87659827D01*
X61794418Y-87634697D01*
X61594007Y-87653661D01*
X61398735Y-87723765D01*
X61240489Y-87845355D01*
X61119588Y-88018251D01*
X61076328Y-88122449D01*
X61027460Y-88324679D01*
X61003649Y-88554982D01*
X60620207Y-88554982D01*
X60620222Y-88531158D01*
X60622687Y-88485647D01*
X60663914Y-88173744D01*
X60745608Y-87910697D01*
X60868071Y-87696187D01*
X61031603Y-87529899D01*
X61236506Y-87411514D01*
X61483080Y-87340716D01*
X61771625Y-87317187D01*
X61979176Y-87329203D01*
X62243805Y-87388495D01*
X62468621Y-87497226D01*
X62653481Y-87655261D01*
X62798239Y-87862468D01*
X62902751Y-88118712D01*
X62966872Y-88423858D01*
X62981641Y-88591359D01*
X62978447Y-88816172D01*
X62977601Y-88875787D01*
X62940905Y-89153329D01*
G37*
X62940905Y-89153329D02*
X62873945Y-89398902D01*
X62841656Y-89472162D01*
X62735224Y-89636887D01*
X62595998Y-89787685D01*
X62443173Y-89902132D01*
X62423116Y-89913279D01*
X62235320Y-89986150D01*
X62013884Y-90028906D01*
X61779219Y-90040374D01*
X61551731Y-90019384D01*
X61351831Y-89964764D01*
X61344510Y-89961845D01*
X61258700Y-89932559D01*
X61204242Y-89930740D01*
X61157407Y-89955222D01*
X61057371Y-90027462D01*
X60853514Y-90167062D01*
X60689099Y-90267151D01*
X60559468Y-90330653D01*
X60529447Y-90342721D01*
X60424954Y-90380221D01*
X60360742Y-90389732D01*
X60322935Y-90370858D01*
X60297657Y-90323205D01*
X60275447Y-90229500D01*
X60294699Y-90138033D01*
X60367117Y-90057016D01*
X60497688Y-89977841D01*
X60595392Y-89925222D01*
X60717278Y-89851590D01*
X60811356Y-89786103D01*
X60930586Y-89692148D01*
X60858981Y-89592167D01*
X60820008Y-89534482D01*
X60717732Y-89333674D01*
X60651805Y-89106015D01*
X60620032Y-88841758D01*
X60620207Y-88554982D01*
X61003649Y-88554982D01*
X61005396Y-88794546D01*
X61033199Y-89024564D01*
X61087556Y-89226225D01*
X61157711Y-89367866D01*
X61289737Y-89527876D01*
X61454125Y-89642109D01*
X61524321Y-89669990D01*
X61699820Y-89704054D01*
X61892581Y-89705365D01*
X62078202Y-89674825D01*
X62232283Y-89613336D01*
X62289547Y-89572112D01*
X62399620Y-89447661D01*
X62489342Y-89284465D01*
X62548527Y-89099086D01*
X62563995Y-89007680D01*
X62579170Y-88816172D01*
X62578306Y-88609751D01*
X62562516Y-88407752D01*
X62532915Y-88229515D01*
X62490619Y-88094375D01*
X62468045Y-88046960D01*
X62347821Y-87863426D01*
X62198033Y-87735226D01*
X62014843Y-87659827D01*
X61794418Y-87634697D01*
X61594007Y-87653661D01*
X61398735Y-87723765D01*
X61240489Y-87845355D01*
X61119588Y-88018251D01*
X61076328Y-88122449D01*
X61027460Y-88324679D01*
X61003649Y-88554982D01*
X60620207Y-88554982D01*
X60620222Y-88531158D01*
X60622687Y-88485647D01*
X60663914Y-88173744D01*
X60745608Y-87910697D01*
X60868071Y-87696187D01*
X61031603Y-87529899D01*
X61236506Y-87411514D01*
X61483080Y-87340716D01*
X61771625Y-87317187D01*
X61979176Y-87329203D01*
X62243805Y-87388495D01*
X62468621Y-87497226D01*
X62653481Y-87655261D01*
X62798239Y-87862468D01*
X62902751Y-88118712D01*
X62966872Y-88423858D01*
X62981641Y-88591359D01*
X62978447Y-88816172D01*
X62977601Y-88875787D01*
X62940905Y-89153329D01*
G36*
X81840322Y-89380250D02*
G01*
X81759167Y-89605907D01*
X81638188Y-89789298D01*
X81478112Y-89923675D01*
X81277573Y-90010569D01*
X81210440Y-90025953D01*
X81026838Y-90042431D01*
X80829280Y-90032475D01*
X80648068Y-89996750D01*
X80637618Y-89993540D01*
X80461008Y-89907638D01*
X80300629Y-89774104D01*
X80171165Y-89607929D01*
X80087295Y-89424107D01*
X80068944Y-89355286D01*
X80034914Y-89122342D01*
X80402895Y-89122342D01*
X80437222Y-89320529D01*
X80506326Y-89489606D01*
X80605879Y-89619395D01*
X80731552Y-89699718D01*
X80817581Y-89719072D01*
X80948492Y-89726504D01*
X81082068Y-89717954D01*
X81186734Y-89693830D01*
X81206435Y-89685336D01*
X81332604Y-89592821D01*
X81426130Y-89450530D01*
X81484262Y-89264132D01*
X81504250Y-89039296D01*
X81503277Y-88987290D01*
X81473029Y-88763324D01*
X81403266Y-88580124D01*
X81297822Y-88441565D01*
X81160526Y-88351526D01*
X80995211Y-88313882D01*
X80805708Y-88332510D01*
X80706027Y-88364546D01*
X80584114Y-88440830D01*
X80496464Y-88556040D01*
X80438317Y-88717292D01*
X80404914Y-88931702D01*
X80402895Y-89122342D01*
X80034914Y-89122342D01*
X80034906Y-89122287D01*
X80037192Y-88883168D01*
X80073669Y-88653733D01*
X80142206Y-88449784D01*
X80240670Y-88287125D01*
X80323082Y-88200999D01*
X80464174Y-88106722D01*
X80638120Y-88048743D01*
X80857596Y-88021606D01*
X80860833Y-88021431D01*
X81093609Y-88024122D01*
X81285216Y-88062861D01*
X81449492Y-88142215D01*
X81600276Y-88266752D01*
X81720083Y-88420113D01*
X81817534Y-88630936D01*
X81871820Y-88869408D01*
X81877494Y-89039296D01*
X81880297Y-89123266D01*
X81840322Y-89380250D01*
G37*
X81840322Y-89380250D02*
X81759167Y-89605907D01*
X81638188Y-89789298D01*
X81478112Y-89923675D01*
X81277573Y-90010569D01*
X81210440Y-90025953D01*
X81026838Y-90042431D01*
X80829280Y-90032475D01*
X80648068Y-89996750D01*
X80637618Y-89993540D01*
X80461008Y-89907638D01*
X80300629Y-89774104D01*
X80171165Y-89607929D01*
X80087295Y-89424107D01*
X80068944Y-89355286D01*
X80034914Y-89122342D01*
X80402895Y-89122342D01*
X80437222Y-89320529D01*
X80506326Y-89489606D01*
X80605879Y-89619395D01*
X80731552Y-89699718D01*
X80817581Y-89719072D01*
X80948492Y-89726504D01*
X81082068Y-89717954D01*
X81186734Y-89693830D01*
X81206435Y-89685336D01*
X81332604Y-89592821D01*
X81426130Y-89450530D01*
X81484262Y-89264132D01*
X81504250Y-89039296D01*
X81503277Y-88987290D01*
X81473029Y-88763324D01*
X81403266Y-88580124D01*
X81297822Y-88441565D01*
X81160526Y-88351526D01*
X80995211Y-88313882D01*
X80805708Y-88332510D01*
X80706027Y-88364546D01*
X80584114Y-88440830D01*
X80496464Y-88556040D01*
X80438317Y-88717292D01*
X80404914Y-88931702D01*
X80402895Y-89122342D01*
X80034914Y-89122342D01*
X80034906Y-89122287D01*
X80037192Y-88883168D01*
X80073669Y-88653733D01*
X80142206Y-88449784D01*
X80240670Y-88287125D01*
X80323082Y-88200999D01*
X80464174Y-88106722D01*
X80638120Y-88048743D01*
X80857596Y-88021606D01*
X80860833Y-88021431D01*
X81093609Y-88024122D01*
X81285216Y-88062861D01*
X81449492Y-88142215D01*
X81600276Y-88266752D01*
X81720083Y-88420113D01*
X81817534Y-88630936D01*
X81871820Y-88869408D01*
X81877494Y-89039296D01*
X81880297Y-89123266D01*
X81840322Y-89380250D01*
G36*
X76725848Y-89030675D02*
G01*
X76710348Y-89264913D01*
X76692779Y-89358836D01*
X76616741Y-89587648D01*
X76499397Y-89769463D01*
X76338798Y-89906769D01*
X76132998Y-90002052D01*
X76075547Y-90017097D01*
X75920839Y-90035340D01*
X75741970Y-90034665D01*
X75556356Y-90017130D01*
X75381410Y-89984792D01*
X75234546Y-89939709D01*
X75133179Y-89883937D01*
X75124890Y-89875552D01*
X75097063Y-89806940D01*
X75093744Y-89718104D01*
X75117115Y-89641877D01*
X75121936Y-89635598D01*
X75155701Y-89622630D01*
X75220981Y-89632712D01*
X75330941Y-89667416D01*
X75448354Y-89700357D01*
X75622020Y-89728107D01*
X75794884Y-89735998D01*
X75947318Y-89723427D01*
X76059692Y-89689791D01*
X76127035Y-89647440D01*
X76247972Y-89521536D01*
X76328502Y-89361090D01*
X76359357Y-89181812D01*
X76360750Y-89094500D01*
X75732100Y-89094500D01*
X75511666Y-89093358D01*
X75322130Y-89089242D01*
X75187547Y-89081881D01*
X75103445Y-89071018D01*
X75065350Y-89056400D01*
X75045745Y-89018703D01*
X75030701Y-88925607D01*
X75030261Y-88802742D01*
X75032111Y-88784937D01*
X75376678Y-88784937D01*
X75376775Y-88789048D01*
X75383868Y-88809074D01*
X75408717Y-88823142D01*
X75460469Y-88832286D01*
X75548272Y-88837538D01*
X75681275Y-88839931D01*
X75868625Y-88840500D01*
X75938880Y-88840504D01*
X76118630Y-88839374D01*
X76243841Y-88833334D01*
X76321300Y-88818271D01*
X76357791Y-88790073D01*
X76360100Y-88744627D01*
X76335012Y-88677822D01*
X76289313Y-88585546D01*
X76238474Y-88498811D01*
X76126374Y-88381231D01*
X75986725Y-88318858D01*
X75813031Y-88307905D01*
X75811832Y-88307990D01*
X75691836Y-88323172D01*
X75608379Y-88354572D01*
X75535017Y-88412098D01*
X75469497Y-88493541D01*
X75402436Y-88636940D01*
X75376678Y-88784937D01*
X75032111Y-88784937D01*
X75044177Y-88668804D01*
X75072199Y-88542489D01*
X75124502Y-88408994D01*
X75241755Y-88239094D01*
X75400989Y-88115920D01*
X75600072Y-88040940D01*
X75836875Y-88015620D01*
X75944564Y-88021156D01*
X76168827Y-88072580D01*
X76362540Y-88174444D01*
X76518801Y-88322431D01*
X76630710Y-88512223D01*
X76652276Y-88569240D01*
X76694654Y-88744627D01*
X76705519Y-88789595D01*
X76725848Y-89030675D01*
G37*
X76725848Y-89030675D02*
X76710348Y-89264913D01*
X76692779Y-89358836D01*
X76616741Y-89587648D01*
X76499397Y-89769463D01*
X76338798Y-89906769D01*
X76132998Y-90002052D01*
X76075547Y-90017097D01*
X75920839Y-90035340D01*
X75741970Y-90034665D01*
X75556356Y-90017130D01*
X75381410Y-89984792D01*
X75234546Y-89939709D01*
X75133179Y-89883937D01*
X75124890Y-89875552D01*
X75097063Y-89806940D01*
X75093744Y-89718104D01*
X75117115Y-89641877D01*
X75121936Y-89635598D01*
X75155701Y-89622630D01*
X75220981Y-89632712D01*
X75330941Y-89667416D01*
X75448354Y-89700357D01*
X75622020Y-89728107D01*
X75794884Y-89735998D01*
X75947318Y-89723427D01*
X76059692Y-89689791D01*
X76127035Y-89647440D01*
X76247972Y-89521536D01*
X76328502Y-89361090D01*
X76359357Y-89181812D01*
X76360750Y-89094500D01*
X75732100Y-89094500D01*
X75511666Y-89093358D01*
X75322130Y-89089242D01*
X75187547Y-89081881D01*
X75103445Y-89071018D01*
X75065350Y-89056400D01*
X75045745Y-89018703D01*
X75030701Y-88925607D01*
X75030261Y-88802742D01*
X75032111Y-88784937D01*
X75376678Y-88784937D01*
X75376775Y-88789048D01*
X75383868Y-88809074D01*
X75408717Y-88823142D01*
X75460469Y-88832286D01*
X75548272Y-88837538D01*
X75681275Y-88839931D01*
X75868625Y-88840500D01*
X75938880Y-88840504D01*
X76118630Y-88839374D01*
X76243841Y-88833334D01*
X76321300Y-88818271D01*
X76357791Y-88790073D01*
X76360100Y-88744627D01*
X76335012Y-88677822D01*
X76289313Y-88585546D01*
X76238474Y-88498811D01*
X76126374Y-88381231D01*
X75986725Y-88318858D01*
X75813031Y-88307905D01*
X75811832Y-88307990D01*
X75691836Y-88323172D01*
X75608379Y-88354572D01*
X75535017Y-88412098D01*
X75469497Y-88493541D01*
X75402436Y-88636940D01*
X75376678Y-88784937D01*
X75032111Y-88784937D01*
X75044177Y-88668804D01*
X75072199Y-88542489D01*
X75124502Y-88408994D01*
X75241755Y-88239094D01*
X75400989Y-88115920D01*
X75600072Y-88040940D01*
X75836875Y-88015620D01*
X75944564Y-88021156D01*
X76168827Y-88072580D01*
X76362540Y-88174444D01*
X76518801Y-88322431D01*
X76630710Y-88512223D01*
X76652276Y-88569240D01*
X76694654Y-88744627D01*
X76705519Y-88789595D01*
X76725848Y-89030675D01*
G36*
X77369739Y-88245187D02*
G01*
X77388860Y-88309750D01*
X77427425Y-88441827D01*
X77475941Y-88609357D01*
X77530089Y-88797419D01*
X77585552Y-88991087D01*
X77632372Y-89152408D01*
X77678847Y-89306862D01*
X77717472Y-89429196D01*
X77745182Y-89509729D01*
X77758913Y-89538775D01*
X77768027Y-89519728D01*
X77792939Y-89447697D01*
X77830499Y-89330114D01*
X77878118Y-89175586D01*
X77933209Y-88992717D01*
X77993185Y-88790113D01*
X78055457Y-88576378D01*
X78117439Y-88360118D01*
X78176542Y-88149937D01*
X78190013Y-88106420D01*
X78216451Y-88065863D01*
X78266713Y-88049676D01*
X78360619Y-88046750D01*
X78413160Y-88048704D01*
X78495567Y-88061191D01*
X78537419Y-88081401D01*
X78544936Y-88100903D01*
X78568254Y-88175707D01*
X78603664Y-88297080D01*
X78648619Y-88456095D01*
X78700573Y-88643823D01*
X78756980Y-88851339D01*
X78955125Y-89586625D01*
X79036506Y-89316750D01*
X79041144Y-89301353D01*
X79090582Y-89135778D01*
X79142540Y-88959703D01*
X79186500Y-88808750D01*
X79188293Y-88802532D01*
X79233453Y-88647445D01*
X79285617Y-88470464D01*
X79333854Y-88308687D01*
X79412593Y-88046750D01*
X79585297Y-88046750D01*
X79635765Y-88047222D01*
X79713591Y-88053711D01*
X79749377Y-88071948D01*
X79758000Y-88107137D01*
X79750664Y-88146784D01*
X79726617Y-88239583D01*
X79688639Y-88374415D01*
X79639625Y-88541921D01*
X79582471Y-88732743D01*
X79520075Y-88937520D01*
X79455332Y-89146894D01*
X79391138Y-89351506D01*
X79330390Y-89541996D01*
X79275985Y-89709006D01*
X79230818Y-89843176D01*
X79197786Y-89935148D01*
X79179785Y-89975562D01*
X79158001Y-89989071D01*
X79085185Y-90005876D01*
X78986686Y-90014163D01*
X78884593Y-90013507D01*
X78800995Y-90003484D01*
X78757980Y-89983669D01*
X78757248Y-89982378D01*
X78744695Y-89948591D01*
X78722050Y-89874560D01*
X78688331Y-89756749D01*
X78642558Y-89591623D01*
X78583749Y-89375646D01*
X78510923Y-89105283D01*
X78423099Y-88777000D01*
X78384971Y-88634125D01*
X78195290Y-89285000D01*
X78176125Y-89350401D01*
X78119316Y-89540048D01*
X78067516Y-89706979D01*
X78023813Y-89841603D01*
X77991292Y-89934328D01*
X77973042Y-89975562D01*
X77950095Y-89990173D01*
X77870000Y-90008476D01*
X77753182Y-90015250D01*
X77681672Y-90014295D01*
X77603558Y-90006039D01*
X77560704Y-89984464D01*
X77535574Y-89943812D01*
X77519864Y-89903155D01*
X77484515Y-89800794D01*
X77438395Y-89659120D01*
X77384211Y-89487217D01*
X77324666Y-89294166D01*
X77262467Y-89089050D01*
X77200318Y-88880952D01*
X77140925Y-88678953D01*
X77086991Y-88492138D01*
X77041224Y-88329587D01*
X77006327Y-88200384D01*
X76985006Y-88113612D01*
X76979967Y-88078352D01*
X76995293Y-88067866D01*
X77060668Y-88052707D01*
X77154874Y-88046750D01*
X77310250Y-88046750D01*
X77369739Y-88245187D01*
G37*
X77369739Y-88245187D02*
X77388860Y-88309750D01*
X77427425Y-88441827D01*
X77475941Y-88609357D01*
X77530089Y-88797419D01*
X77585552Y-88991087D01*
X77632372Y-89152408D01*
X77678847Y-89306862D01*
X77717472Y-89429196D01*
X77745182Y-89509729D01*
X77758913Y-89538775D01*
X77768027Y-89519728D01*
X77792939Y-89447697D01*
X77830499Y-89330114D01*
X77878118Y-89175586D01*
X77933209Y-88992717D01*
X77993185Y-88790113D01*
X78055457Y-88576378D01*
X78117439Y-88360118D01*
X78176542Y-88149937D01*
X78190013Y-88106420D01*
X78216451Y-88065863D01*
X78266713Y-88049676D01*
X78360619Y-88046750D01*
X78413160Y-88048704D01*
X78495567Y-88061191D01*
X78537419Y-88081401D01*
X78544936Y-88100903D01*
X78568254Y-88175707D01*
X78603664Y-88297080D01*
X78648619Y-88456095D01*
X78700573Y-88643823D01*
X78756980Y-88851339D01*
X78955125Y-89586625D01*
X79036506Y-89316750D01*
X79041144Y-89301353D01*
X79090582Y-89135778D01*
X79142540Y-88959703D01*
X79186500Y-88808750D01*
X79188293Y-88802532D01*
X79233453Y-88647445D01*
X79285617Y-88470464D01*
X79333854Y-88308687D01*
X79412593Y-88046750D01*
X79585297Y-88046750D01*
X79635765Y-88047222D01*
X79713591Y-88053711D01*
X79749377Y-88071948D01*
X79758000Y-88107137D01*
X79750664Y-88146784D01*
X79726617Y-88239583D01*
X79688639Y-88374415D01*
X79639625Y-88541921D01*
X79582471Y-88732743D01*
X79520075Y-88937520D01*
X79455332Y-89146894D01*
X79391138Y-89351506D01*
X79330390Y-89541996D01*
X79275985Y-89709006D01*
X79230818Y-89843176D01*
X79197786Y-89935148D01*
X79179785Y-89975562D01*
X79158001Y-89989071D01*
X79085185Y-90005876D01*
X78986686Y-90014163D01*
X78884593Y-90013507D01*
X78800995Y-90003484D01*
X78757980Y-89983669D01*
X78757248Y-89982378D01*
X78744695Y-89948591D01*
X78722050Y-89874560D01*
X78688331Y-89756749D01*
X78642558Y-89591623D01*
X78583749Y-89375646D01*
X78510923Y-89105283D01*
X78423099Y-88777000D01*
X78384971Y-88634125D01*
X78195290Y-89285000D01*
X78176125Y-89350401D01*
X78119316Y-89540048D01*
X78067516Y-89706979D01*
X78023813Y-89841603D01*
X77991292Y-89934328D01*
X77973042Y-89975562D01*
X77950095Y-89990173D01*
X77870000Y-90008476D01*
X77753182Y-90015250D01*
X77681672Y-90014295D01*
X77603558Y-90006039D01*
X77560704Y-89984464D01*
X77535574Y-89943812D01*
X77519864Y-89903155D01*
X77484515Y-89800794D01*
X77438395Y-89659120D01*
X77384211Y-89487217D01*
X77324666Y-89294166D01*
X77262467Y-89089050D01*
X77200318Y-88880952D01*
X77140925Y-88678953D01*
X77086991Y-88492138D01*
X77041224Y-88329587D01*
X77006327Y-88200384D01*
X76985006Y-88113612D01*
X76979967Y-88078352D01*
X76995293Y-88067866D01*
X77060668Y-88052707D01*
X77154874Y-88046750D01*
X77310250Y-88046750D01*
X77369739Y-88245187D01*
G36*
X90926063Y-87856736D02*
G01*
X90948183Y-87856884D01*
X91068709Y-87861422D01*
X91163577Y-87870949D01*
X91213873Y-87883695D01*
X91215895Y-87885077D01*
X91242688Y-87941508D01*
X91245623Y-88049896D01*
X91235625Y-88189625D01*
X90957813Y-88198798D01*
X90680000Y-88207972D01*
X90680000Y-88520527D01*
X90957813Y-88529701D01*
X91235625Y-88538875D01*
X91235625Y-88824625D01*
X90957813Y-88833798D01*
X90680000Y-88842972D01*
X90680000Y-89155527D01*
X90957813Y-89164701D01*
X91235625Y-89173875D01*
X91245623Y-89313603D01*
X91246080Y-89320414D01*
X91241870Y-89426272D01*
X91213873Y-89479804D01*
X91209170Y-89482168D01*
X91149789Y-89494483D01*
X91049116Y-89503271D01*
X90926063Y-89506763D01*
X90680000Y-89507250D01*
X90680000Y-89822277D01*
X90957813Y-89831451D01*
X91235625Y-89840625D01*
X91235625Y-90126375D01*
X90961647Y-90135492D01*
X90687668Y-90144610D01*
X90673866Y-90311047D01*
X90648177Y-90444428D01*
X90565657Y-90616241D01*
X90438004Y-90755517D01*
X90274798Y-90852695D01*
X90085618Y-90898213D01*
X89918000Y-90912113D01*
X89918000Y-91172764D01*
X89917771Y-91211285D01*
X89914022Y-91328406D01*
X89906630Y-91414999D01*
X89896834Y-91454583D01*
X89888020Y-91459586D01*
X89829485Y-91471136D01*
X89741481Y-91475750D01*
X89716012Y-91475522D01*
X89647660Y-91468176D01*
X89604510Y-91442116D01*
X89580809Y-91386154D01*
X89570807Y-91289103D01*
X89568750Y-91139778D01*
X89568750Y-90904250D01*
X89251250Y-90904250D01*
X89251250Y-91479229D01*
X89100438Y-91469552D01*
X88949625Y-91459875D01*
X88940452Y-91182062D01*
X88931278Y-90904250D01*
X88618723Y-90904250D01*
X88609549Y-91182062D01*
X88600375Y-91459875D01*
X88314625Y-91459875D01*
X88305452Y-91182062D01*
X88296278Y-90904250D01*
X87983723Y-90904250D01*
X87974549Y-91182062D01*
X87965375Y-91459875D01*
X87825647Y-91469872D01*
X87818836Y-91470329D01*
X87712978Y-91466119D01*
X87659446Y-91438122D01*
X87657082Y-91433419D01*
X87644767Y-91374038D01*
X87635979Y-91273365D01*
X87632487Y-91150312D01*
X87632000Y-90904250D01*
X87314500Y-90904250D01*
X87314500Y-91479229D01*
X87163688Y-91469552D01*
X87012875Y-91459875D01*
X87003702Y-91182062D01*
X86994528Y-90904250D01*
X86857883Y-90904250D01*
X86854217Y-90904237D01*
X86674314Y-90873225D01*
X86512673Y-90789288D01*
X86379742Y-90662352D01*
X86285971Y-90502337D01*
X86241809Y-90319168D01*
X86227333Y-90144610D01*
X85953354Y-90135492D01*
X85679375Y-90126375D01*
X85669750Y-89976823D01*
X85660124Y-89827271D01*
X85939625Y-89818073D01*
X86219125Y-89808875D01*
X86228803Y-89658062D01*
X86238480Y-89507250D01*
X85990678Y-89506763D01*
X85967002Y-89506598D01*
X85846258Y-89502024D01*
X85751361Y-89492508D01*
X85701128Y-89479804D01*
X85699106Y-89478422D01*
X85672313Y-89421991D01*
X85669378Y-89313603D01*
X85679375Y-89173875D01*
X85957188Y-89164701D01*
X86235000Y-89155527D01*
X86235000Y-88842972D01*
X85957188Y-88833798D01*
X85679375Y-88824625D01*
X85679375Y-88538875D01*
X86235001Y-88520527D01*
X86235001Y-88207972D01*
X85957188Y-88198798D01*
X85679375Y-88189625D01*
X85669378Y-88049896D01*
X85668921Y-88043085D01*
X85672490Y-87953334D01*
X87187500Y-87953334D01*
X87187906Y-88060961D01*
X87193731Y-88325506D01*
X87207212Y-88537878D01*
X87229297Y-88706207D01*
X87260937Y-88838624D01*
X87303080Y-88943258D01*
X87337353Y-89002961D01*
X87476284Y-89168541D01*
X87658335Y-89306155D01*
X87869745Y-89406818D01*
X88096758Y-89461546D01*
X88267000Y-89482816D01*
X88267000Y-89732041D01*
X88267006Y-89740873D01*
X88269395Y-89866642D01*
X88278311Y-89944391D01*
X88296925Y-89988695D01*
X88328413Y-90014132D01*
X88361349Y-90027890D01*
X88471676Y-90043703D01*
X88576563Y-90025972D01*
X88598748Y-89989711D01*
X88611966Y-89897992D01*
X88616250Y-89747171D01*
X88616250Y-89484383D01*
X88782938Y-89465494D01*
X88914871Y-89446207D01*
X89145588Y-89382884D01*
X89331425Y-89283322D01*
X89480174Y-89142659D01*
X89599628Y-88956034D01*
X89710396Y-88738193D01*
X89722605Y-88090569D01*
X89724320Y-87991047D01*
X89726353Y-87775474D01*
X89724737Y-87614499D01*
X89719224Y-87501764D01*
X89709568Y-87430916D01*
X89695520Y-87395597D01*
X89667818Y-87375144D01*
X89587436Y-87352673D01*
X89494644Y-87350951D01*
X89420871Y-87372609D01*
X89409692Y-87394878D01*
X89397035Y-87471810D01*
X89386856Y-87604918D01*
X89378983Y-87796632D01*
X89373246Y-88049386D01*
X89362375Y-88702774D01*
X89266958Y-88858949D01*
X89266461Y-88859760D01*
X89137834Y-89010366D01*
X88965028Y-89116701D01*
X88751188Y-89176827D01*
X88616250Y-89197865D01*
X88616250Y-88292329D01*
X88616315Y-88048841D01*
X88615747Y-87830309D01*
X88613226Y-87662589D01*
X88607426Y-87538978D01*
X88597020Y-87452772D01*
X88580682Y-87397271D01*
X88557088Y-87365770D01*
X88524910Y-87351568D01*
X88482824Y-87347962D01*
X88429504Y-87348250D01*
X88409283Y-87348397D01*
X88367416Y-87352189D01*
X88334690Y-87366202D01*
X88309979Y-87397094D01*
X88292157Y-87451527D01*
X88280100Y-87536160D01*
X88272681Y-87657652D01*
X88268775Y-87822665D01*
X88267256Y-88037858D01*
X88267000Y-88309890D01*
X88267000Y-89195331D01*
X88132063Y-89173473D01*
X87954603Y-89123442D01*
X87782187Y-89019774D01*
X87651671Y-88872068D01*
X87569010Y-88685484D01*
X87559664Y-88625848D01*
X87550616Y-88510818D01*
X87543431Y-88356246D01*
X87538678Y-88174691D01*
X87536928Y-87978709D01*
X87536741Y-87797148D01*
X87534912Y-87628703D01*
X87529179Y-87508739D01*
X87517260Y-87429030D01*
X87496876Y-87381351D01*
X87465745Y-87357478D01*
X87421589Y-87349186D01*
X87362126Y-87348249D01*
X87321290Y-87348482D01*
X87271255Y-87353546D01*
X87235567Y-87371729D01*
X87211801Y-87411430D01*
X87197535Y-87481044D01*
X87190345Y-87588969D01*
X87187808Y-87743600D01*
X87187500Y-87953334D01*
X85672490Y-87953334D01*
X85673131Y-87937227D01*
X85701128Y-87883695D01*
X85705831Y-87881331D01*
X85765212Y-87869016D01*
X85865885Y-87860228D01*
X85988938Y-87856736D01*
X86235000Y-87856250D01*
X86235000Y-87570500D01*
X85988938Y-87570013D01*
X85966818Y-87569865D01*
X85846292Y-87565327D01*
X85751424Y-87555800D01*
X85701128Y-87543054D01*
X85699106Y-87541672D01*
X85672313Y-87485241D01*
X85669378Y-87376853D01*
X85679375Y-87237125D01*
X86227333Y-87218889D01*
X86241809Y-87044331D01*
X86242134Y-87040554D01*
X86287377Y-86857745D01*
X86382023Y-86698288D01*
X86515621Y-86572104D01*
X86677724Y-86489117D01*
X86857883Y-86459250D01*
X86994528Y-86459250D01*
X87003702Y-86181437D01*
X87012875Y-85903625D01*
X87298625Y-85903625D01*
X87307799Y-86181437D01*
X87316973Y-86459250D01*
X87632000Y-86459250D01*
X87632487Y-86213187D01*
X87632635Y-86191067D01*
X87637173Y-86070541D01*
X87646700Y-85975673D01*
X87659446Y-85925377D01*
X87660828Y-85923355D01*
X87717259Y-85896562D01*
X87825647Y-85893627D01*
X87965375Y-85903625D01*
X87974549Y-86181437D01*
X87983723Y-86459250D01*
X88296278Y-86459250D01*
X88305452Y-86181437D01*
X88314625Y-85903625D01*
X88600375Y-85903625D01*
X88609549Y-86181437D01*
X88618723Y-86459250D01*
X88931278Y-86459250D01*
X88940452Y-86181437D01*
X88949625Y-85903625D01*
X89100438Y-85893947D01*
X89251250Y-85884270D01*
X89251250Y-86459250D01*
X89568750Y-86459250D01*
X89569237Y-86213187D01*
X89569385Y-86191067D01*
X89573923Y-86070541D01*
X89583450Y-85975673D01*
X89596196Y-85925377D01*
X89597578Y-85923355D01*
X89654009Y-85896562D01*
X89762397Y-85893627D01*
X89902125Y-85903625D01*
X89911243Y-86177603D01*
X89920361Y-86451582D01*
X90086798Y-86465384D01*
X90207495Y-86487066D01*
X90381394Y-86565897D01*
X90522395Y-86691343D01*
X90621809Y-86854746D01*
X90670946Y-87047446D01*
X90688642Y-87218903D01*
X90962134Y-87228014D01*
X91235625Y-87237125D01*
X91245877Y-87362858D01*
X91246755Y-87431581D01*
X91225024Y-87500936D01*
X91168127Y-87543395D01*
X91066869Y-87564677D01*
X90912057Y-87570500D01*
X90680000Y-87570500D01*
X90680000Y-87856250D01*
X90926063Y-87856736D01*
G37*
X90926063Y-87856736D02*
X90948183Y-87856884D01*
X91068709Y-87861422D01*
X91163577Y-87870949D01*
X91213873Y-87883695D01*
X91215895Y-87885077D01*
X91242688Y-87941508D01*
X91245623Y-88049896D01*
X91235625Y-88189625D01*
X90957813Y-88198798D01*
X90680000Y-88207972D01*
X90680000Y-88520527D01*
X90957813Y-88529701D01*
X91235625Y-88538875D01*
X91235625Y-88824625D01*
X90957813Y-88833798D01*
X90680000Y-88842972D01*
X90680000Y-89155527D01*
X90957813Y-89164701D01*
X91235625Y-89173875D01*
X91245623Y-89313603D01*
X91246080Y-89320414D01*
X91241870Y-89426272D01*
X91213873Y-89479804D01*
X91209170Y-89482168D01*
X91149789Y-89494483D01*
X91049116Y-89503271D01*
X90926063Y-89506763D01*
X90680000Y-89507250D01*
X90680000Y-89822277D01*
X90957813Y-89831451D01*
X91235625Y-89840625D01*
X91235625Y-90126375D01*
X90961647Y-90135492D01*
X90687668Y-90144610D01*
X90673866Y-90311047D01*
X90648177Y-90444428D01*
X90565657Y-90616241D01*
X90438004Y-90755517D01*
X90274798Y-90852695D01*
X90085618Y-90898213D01*
X89918000Y-90912113D01*
X89918000Y-91172764D01*
X89917771Y-91211285D01*
X89914022Y-91328406D01*
X89906630Y-91414999D01*
X89896834Y-91454583D01*
X89888020Y-91459586D01*
X89829485Y-91471136D01*
X89741481Y-91475750D01*
X89716012Y-91475522D01*
X89647660Y-91468176D01*
X89604510Y-91442116D01*
X89580809Y-91386154D01*
X89570807Y-91289103D01*
X89568750Y-91139778D01*
X89568750Y-90904250D01*
X89251250Y-90904250D01*
X89251250Y-91479229D01*
X89100438Y-91469552D01*
X88949625Y-91459875D01*
X88940452Y-91182062D01*
X88931278Y-90904250D01*
X88618723Y-90904250D01*
X88609549Y-91182062D01*
X88600375Y-91459875D01*
X88314625Y-91459875D01*
X88305452Y-91182062D01*
X88296278Y-90904250D01*
X87983723Y-90904250D01*
X87974549Y-91182062D01*
X87965375Y-91459875D01*
X87825647Y-91469872D01*
X87818836Y-91470329D01*
X87712978Y-91466119D01*
X87659446Y-91438122D01*
X87657082Y-91433419D01*
X87644767Y-91374038D01*
X87635979Y-91273365D01*
X87632487Y-91150312D01*
X87632000Y-90904250D01*
X87314500Y-90904250D01*
X87314500Y-91479229D01*
X87163688Y-91469552D01*
X87012875Y-91459875D01*
X87003702Y-91182062D01*
X86994528Y-90904250D01*
X86857883Y-90904250D01*
X86854217Y-90904237D01*
X86674314Y-90873225D01*
X86512673Y-90789288D01*
X86379742Y-90662352D01*
X86285971Y-90502337D01*
X86241809Y-90319168D01*
X86227333Y-90144610D01*
X85953354Y-90135492D01*
X85679375Y-90126375D01*
X85669750Y-89976823D01*
X85660124Y-89827271D01*
X85939625Y-89818073D01*
X86219125Y-89808875D01*
X86228803Y-89658062D01*
X86238480Y-89507250D01*
X85990678Y-89506763D01*
X85967002Y-89506598D01*
X85846258Y-89502024D01*
X85751361Y-89492508D01*
X85701128Y-89479804D01*
X85699106Y-89478422D01*
X85672313Y-89421991D01*
X85669378Y-89313603D01*
X85679375Y-89173875D01*
X85957188Y-89164701D01*
X86235000Y-89155527D01*
X86235000Y-88842972D01*
X85957188Y-88833798D01*
X85679375Y-88824625D01*
X85679375Y-88538875D01*
X86235001Y-88520527D01*
X86235001Y-88207972D01*
X85957188Y-88198798D01*
X85679375Y-88189625D01*
X85669378Y-88049896D01*
X85668921Y-88043085D01*
X85672490Y-87953334D01*
X87187500Y-87953334D01*
X87187906Y-88060961D01*
X87193731Y-88325506D01*
X87207212Y-88537878D01*
X87229297Y-88706207D01*
X87260937Y-88838624D01*
X87303080Y-88943258D01*
X87337353Y-89002961D01*
X87476284Y-89168541D01*
X87658335Y-89306155D01*
X87869745Y-89406818D01*
X88096758Y-89461546D01*
X88267000Y-89482816D01*
X88267000Y-89732041D01*
X88267006Y-89740873D01*
X88269395Y-89866642D01*
X88278311Y-89944391D01*
X88296925Y-89988695D01*
X88328413Y-90014132D01*
X88361349Y-90027890D01*
X88471676Y-90043703D01*
X88576563Y-90025972D01*
X88598748Y-89989711D01*
X88611966Y-89897992D01*
X88616250Y-89747171D01*
X88616250Y-89484383D01*
X88782938Y-89465494D01*
X88914871Y-89446207D01*
X89145588Y-89382884D01*
X89331425Y-89283322D01*
X89480174Y-89142659D01*
X89599628Y-88956034D01*
X89710396Y-88738193D01*
X89722605Y-88090569D01*
X89724320Y-87991047D01*
X89726353Y-87775474D01*
X89724737Y-87614499D01*
X89719224Y-87501764D01*
X89709568Y-87430916D01*
X89695520Y-87395597D01*
X89667818Y-87375144D01*
X89587436Y-87352673D01*
X89494644Y-87350951D01*
X89420871Y-87372609D01*
X89409692Y-87394878D01*
X89397035Y-87471810D01*
X89386856Y-87604918D01*
X89378983Y-87796632D01*
X89373246Y-88049386D01*
X89362375Y-88702774D01*
X89266958Y-88858949D01*
X89266461Y-88859760D01*
X89137834Y-89010366D01*
X88965028Y-89116701D01*
X88751188Y-89176827D01*
X88616250Y-89197865D01*
X88616250Y-88292329D01*
X88616315Y-88048841D01*
X88615747Y-87830309D01*
X88613226Y-87662589D01*
X88607426Y-87538978D01*
X88597020Y-87452772D01*
X88580682Y-87397271D01*
X88557088Y-87365770D01*
X88524910Y-87351568D01*
X88482824Y-87347962D01*
X88429504Y-87348250D01*
X88409283Y-87348397D01*
X88367416Y-87352189D01*
X88334690Y-87366202D01*
X88309979Y-87397094D01*
X88292157Y-87451527D01*
X88280100Y-87536160D01*
X88272681Y-87657652D01*
X88268775Y-87822665D01*
X88267256Y-88037858D01*
X88267000Y-88309890D01*
X88267000Y-89195331D01*
X88132063Y-89173473D01*
X87954603Y-89123442D01*
X87782187Y-89019774D01*
X87651671Y-88872068D01*
X87569010Y-88685484D01*
X87559664Y-88625848D01*
X87550616Y-88510818D01*
X87543431Y-88356246D01*
X87538678Y-88174691D01*
X87536928Y-87978709D01*
X87536741Y-87797148D01*
X87534912Y-87628703D01*
X87529179Y-87508739D01*
X87517260Y-87429030D01*
X87496876Y-87381351D01*
X87465745Y-87357478D01*
X87421589Y-87349186D01*
X87362126Y-87348249D01*
X87321290Y-87348482D01*
X87271255Y-87353546D01*
X87235567Y-87371729D01*
X87211801Y-87411430D01*
X87197535Y-87481044D01*
X87190345Y-87588969D01*
X87187808Y-87743600D01*
X87187500Y-87953334D01*
X85672490Y-87953334D01*
X85673131Y-87937227D01*
X85701128Y-87883695D01*
X85705831Y-87881331D01*
X85765212Y-87869016D01*
X85865885Y-87860228D01*
X85988938Y-87856736D01*
X86235000Y-87856250D01*
X86235000Y-87570500D01*
X85988938Y-87570013D01*
X85966818Y-87569865D01*
X85846292Y-87565327D01*
X85751424Y-87555800D01*
X85701128Y-87543054D01*
X85699106Y-87541672D01*
X85672313Y-87485241D01*
X85669378Y-87376853D01*
X85679375Y-87237125D01*
X86227333Y-87218889D01*
X86241809Y-87044331D01*
X86242134Y-87040554D01*
X86287377Y-86857745D01*
X86382023Y-86698288D01*
X86515621Y-86572104D01*
X86677724Y-86489117D01*
X86857883Y-86459250D01*
X86994528Y-86459250D01*
X87003702Y-86181437D01*
X87012875Y-85903625D01*
X87298625Y-85903625D01*
X87307799Y-86181437D01*
X87316973Y-86459250D01*
X87632000Y-86459250D01*
X87632487Y-86213187D01*
X87632635Y-86191067D01*
X87637173Y-86070541D01*
X87646700Y-85975673D01*
X87659446Y-85925377D01*
X87660828Y-85923355D01*
X87717259Y-85896562D01*
X87825647Y-85893627D01*
X87965375Y-85903625D01*
X87974549Y-86181437D01*
X87983723Y-86459250D01*
X88296278Y-86459250D01*
X88305452Y-86181437D01*
X88314625Y-85903625D01*
X88600375Y-85903625D01*
X88609549Y-86181437D01*
X88618723Y-86459250D01*
X88931278Y-86459250D01*
X88940452Y-86181437D01*
X88949625Y-85903625D01*
X89100438Y-85893947D01*
X89251250Y-85884270D01*
X89251250Y-86459250D01*
X89568750Y-86459250D01*
X89569237Y-86213187D01*
X89569385Y-86191067D01*
X89573923Y-86070541D01*
X89583450Y-85975673D01*
X89596196Y-85925377D01*
X89597578Y-85923355D01*
X89654009Y-85896562D01*
X89762397Y-85893627D01*
X89902125Y-85903625D01*
X89911243Y-86177603D01*
X89920361Y-86451582D01*
X90086798Y-86465384D01*
X90207495Y-86487066D01*
X90381394Y-86565897D01*
X90522395Y-86691343D01*
X90621809Y-86854746D01*
X90670946Y-87047446D01*
X90688642Y-87218903D01*
X90962134Y-87228014D01*
X91235625Y-87237125D01*
X91245877Y-87362858D01*
X91246755Y-87431581D01*
X91225024Y-87500936D01*
X91168127Y-87543395D01*
X91066869Y-87564677D01*
X90912057Y-87570500D01*
X90680000Y-87570500D01*
X90680000Y-87856250D01*
X90926063Y-87856736D01*
G36*
X73241563Y-89137542D02*
G01*
X73200437Y-89395567D01*
X73185504Y-89449401D01*
X73108414Y-89644794D01*
X73002246Y-89792602D01*
X72856966Y-89903910D01*
X72662539Y-89989804D01*
X72473267Y-90034013D01*
X72224922Y-90039837D01*
X71942537Y-89996080D01*
X71831020Y-89966267D01*
X71698853Y-89909249D01*
X71622689Y-89838746D01*
X71598250Y-89751724D01*
X71598433Y-89738755D01*
X71612242Y-89669065D01*
X71654640Y-89636644D01*
X71734949Y-89638694D01*
X71862492Y-89672417D01*
X71953041Y-89696132D01*
X72115929Y-89724396D01*
X72266832Y-89736258D01*
X72425012Y-89726552D01*
X72598629Y-89676396D01*
X72727373Y-89582215D01*
X72813192Y-89442424D01*
X72858035Y-89255438D01*
X72877095Y-89094500D01*
X72241561Y-89094500D01*
X72099443Y-89094559D01*
X71900461Y-89093527D01*
X71753291Y-89088132D01*
X71650544Y-89074975D01*
X71584827Y-89050652D01*
X71548750Y-89011763D01*
X71534922Y-88954906D01*
X71535953Y-88876680D01*
X71538938Y-88840500D01*
X71876934Y-88840500D01*
X72372592Y-88840500D01*
X72556351Y-88839433D01*
X72703036Y-88835483D01*
X72799331Y-88828094D01*
X72852067Y-88816720D01*
X72868073Y-88800812D01*
X72848796Y-88686715D01*
X72786651Y-88547621D01*
X72694289Y-88428393D01*
X72669597Y-88405111D01*
X72596324Y-88350195D01*
X72515933Y-88321963D01*
X72400291Y-88308988D01*
X72336405Y-88307401D01*
X72171502Y-88334978D01*
X72044940Y-88412289D01*
X71954776Y-88540940D01*
X71899064Y-88722534D01*
X71876934Y-88840500D01*
X71538938Y-88840500D01*
X71544451Y-88773684D01*
X71553063Y-88698025D01*
X71612069Y-88471451D01*
X71715722Y-88287899D01*
X71861641Y-88149838D01*
X72047448Y-88059737D01*
X72270763Y-88020066D01*
X72385491Y-88018763D01*
X72523732Y-88028220D01*
X72632059Y-88047291D01*
X72765740Y-88107099D01*
X72906919Y-88207348D01*
X73032070Y-88329464D01*
X73119666Y-88455429D01*
X73186602Y-88624488D01*
X73221781Y-88800812D01*
X73236398Y-88874082D01*
X73241563Y-89137542D01*
G37*
X73241563Y-89137542D02*
X73200437Y-89395567D01*
X73185504Y-89449401D01*
X73108414Y-89644794D01*
X73002246Y-89792602D01*
X72856966Y-89903910D01*
X72662539Y-89989804D01*
X72473267Y-90034013D01*
X72224922Y-90039837D01*
X71942537Y-89996080D01*
X71831020Y-89966267D01*
X71698853Y-89909249D01*
X71622689Y-89838746D01*
X71598250Y-89751724D01*
X71598433Y-89738755D01*
X71612242Y-89669065D01*
X71654640Y-89636644D01*
X71734949Y-89638694D01*
X71862492Y-89672417D01*
X71953041Y-89696132D01*
X72115929Y-89724396D01*
X72266832Y-89736258D01*
X72425012Y-89726552D01*
X72598629Y-89676396D01*
X72727373Y-89582215D01*
X72813192Y-89442424D01*
X72858035Y-89255438D01*
X72877095Y-89094500D01*
X72241561Y-89094500D01*
X72099443Y-89094559D01*
X71900461Y-89093527D01*
X71753291Y-89088132D01*
X71650544Y-89074975D01*
X71584827Y-89050652D01*
X71548750Y-89011763D01*
X71534922Y-88954906D01*
X71535953Y-88876680D01*
X71538938Y-88840500D01*
X71876934Y-88840500D01*
X72372592Y-88840500D01*
X72556351Y-88839433D01*
X72703036Y-88835483D01*
X72799331Y-88828094D01*
X72852067Y-88816720D01*
X72868073Y-88800812D01*
X72848796Y-88686715D01*
X72786651Y-88547621D01*
X72694289Y-88428393D01*
X72669597Y-88405111D01*
X72596324Y-88350195D01*
X72515933Y-88321963D01*
X72400291Y-88308988D01*
X72336405Y-88307401D01*
X72171502Y-88334978D01*
X72044940Y-88412289D01*
X71954776Y-88540940D01*
X71899064Y-88722534D01*
X71876934Y-88840500D01*
X71538938Y-88840500D01*
X71544451Y-88773684D01*
X71553063Y-88698025D01*
X71612069Y-88471451D01*
X71715722Y-88287899D01*
X71861641Y-88149838D01*
X72047448Y-88059737D01*
X72270763Y-88020066D01*
X72385491Y-88018763D01*
X72523732Y-88028220D01*
X72632059Y-88047291D01*
X72765740Y-88107099D01*
X72906919Y-88207348D01*
X73032070Y-88329464D01*
X73119666Y-88455429D01*
X73186602Y-88624488D01*
X73221781Y-88800812D01*
X73236398Y-88874082D01*
X73241563Y-89137542D01*
G36*
X57491510Y-87349376D02*
G01*
X57602629Y-87364609D01*
X57680064Y-87394437D01*
X57705765Y-87427468D01*
X57756218Y-87520018D01*
X57827077Y-87668263D01*
X57917390Y-87870116D01*
X58026199Y-88123494D01*
X58152552Y-88426312D01*
X58223819Y-88598337D01*
X58316075Y-88818633D01*
X58399081Y-89014118D01*
X58469890Y-89177995D01*
X58525558Y-89303466D01*
X58563138Y-89383733D01*
X58579686Y-89412000D01*
X58588852Y-89397668D01*
X58619590Y-89331620D01*
X58668567Y-89218130D01*
X58732927Y-89064056D01*
X58809814Y-88876259D01*
X58896374Y-88661598D01*
X58989749Y-88426934D01*
X59092720Y-88168292D01*
X59191187Y-87926003D01*
X59271611Y-87734945D01*
X59335998Y-87590644D01*
X59386353Y-87488625D01*
X59424682Y-87424414D01*
X59452991Y-87393535D01*
X59494912Y-87373371D01*
X59594824Y-87355187D01*
X59743508Y-87354662D01*
X59860232Y-87362048D01*
X59931249Y-87375456D01*
X59972320Y-87400664D01*
X60000286Y-87443500D01*
X60008762Y-87478691D01*
X60018476Y-87573018D01*
X60026638Y-87714278D01*
X60033242Y-87893976D01*
X60038284Y-88103620D01*
X60041759Y-88334717D01*
X60043663Y-88578773D01*
X60043990Y-88827295D01*
X60042735Y-89071790D01*
X60039895Y-89303764D01*
X60035463Y-89514725D01*
X60029435Y-89696180D01*
X60021807Y-89839635D01*
X60012573Y-89936596D01*
X60001728Y-89978572D01*
X59992159Y-89985865D01*
X59922186Y-90006030D01*
X59819166Y-90008734D01*
X59676125Y-89999375D01*
X59644375Y-87716219D01*
X59218065Y-88826047D01*
X59210313Y-88846220D01*
X59113515Y-89097067D01*
X59023119Y-89329422D01*
X58941826Y-89536478D01*
X58872339Y-89711427D01*
X58817361Y-89847463D01*
X58779594Y-89937777D01*
X58761740Y-89975562D01*
X58751075Y-89984774D01*
X58687390Y-90006546D01*
X58596625Y-90015250D01*
X58564523Y-90014169D01*
X58479664Y-90000302D01*
X58430947Y-89975562D01*
X58430270Y-89974583D01*
X58410082Y-89932318D01*
X58369521Y-89838355D01*
X58311375Y-89699463D01*
X58238435Y-89522410D01*
X58153491Y-89313964D01*
X58059331Y-89080892D01*
X57958747Y-88829965D01*
X57517125Y-87724055D01*
X57485375Y-89999375D01*
X57136125Y-89999375D01*
X57127830Y-88724063D01*
X57126605Y-88524009D01*
X57125304Y-88237438D01*
X57125093Y-88004961D01*
X57126159Y-87820701D01*
X57128688Y-87678779D01*
X57132865Y-87573317D01*
X57138878Y-87498436D01*
X57146911Y-87448259D01*
X57157152Y-87416906D01*
X57169785Y-87398500D01*
X57181136Y-87389459D01*
X57258255Y-87361980D01*
X57369216Y-87348559D01*
X57491510Y-87349376D01*
G37*
X57491510Y-87349376D02*
X57602629Y-87364609D01*
X57680064Y-87394437D01*
X57705765Y-87427468D01*
X57756218Y-87520018D01*
X57827077Y-87668263D01*
X57917390Y-87870116D01*
X58026199Y-88123494D01*
X58152552Y-88426312D01*
X58223819Y-88598337D01*
X58316075Y-88818633D01*
X58399081Y-89014118D01*
X58469890Y-89177995D01*
X58525558Y-89303466D01*
X58563138Y-89383733D01*
X58579686Y-89412000D01*
X58588852Y-89397668D01*
X58619590Y-89331620D01*
X58668567Y-89218130D01*
X58732927Y-89064056D01*
X58809814Y-88876259D01*
X58896374Y-88661598D01*
X58989749Y-88426934D01*
X59092720Y-88168292D01*
X59191187Y-87926003D01*
X59271611Y-87734945D01*
X59335998Y-87590644D01*
X59386353Y-87488625D01*
X59424682Y-87424414D01*
X59452991Y-87393535D01*
X59494912Y-87373371D01*
X59594824Y-87355187D01*
X59743508Y-87354662D01*
X59860232Y-87362048D01*
X59931249Y-87375456D01*
X59972320Y-87400664D01*
X60000286Y-87443500D01*
X60008762Y-87478691D01*
X60018476Y-87573018D01*
X60026638Y-87714278D01*
X60033242Y-87893976D01*
X60038284Y-88103620D01*
X60041759Y-88334717D01*
X60043663Y-88578773D01*
X60043990Y-88827295D01*
X60042735Y-89071790D01*
X60039895Y-89303764D01*
X60035463Y-89514725D01*
X60029435Y-89696180D01*
X60021807Y-89839635D01*
X60012573Y-89936596D01*
X60001728Y-89978572D01*
X59992159Y-89985865D01*
X59922186Y-90006030D01*
X59819166Y-90008734D01*
X59676125Y-89999375D01*
X59644375Y-87716219D01*
X59218065Y-88826047D01*
X59210313Y-88846220D01*
X59113515Y-89097067D01*
X59023119Y-89329422D01*
X58941826Y-89536478D01*
X58872339Y-89711427D01*
X58817361Y-89847463D01*
X58779594Y-89937777D01*
X58761740Y-89975562D01*
X58751075Y-89984774D01*
X58687390Y-90006546D01*
X58596625Y-90015250D01*
X58564523Y-90014169D01*
X58479664Y-90000302D01*
X58430947Y-89975562D01*
X58430270Y-89974583D01*
X58410082Y-89932318D01*
X58369521Y-89838355D01*
X58311375Y-89699463D01*
X58238435Y-89522410D01*
X58153491Y-89313964D01*
X58059331Y-89080892D01*
X57958747Y-88829965D01*
X57517125Y-87724055D01*
X57485375Y-89999375D01*
X57136125Y-89999375D01*
X57127830Y-88724063D01*
X57126605Y-88524009D01*
X57125304Y-88237438D01*
X57125093Y-88004961D01*
X57126159Y-87820701D01*
X57128688Y-87678779D01*
X57132865Y-87573317D01*
X57138878Y-87498436D01*
X57146911Y-87448259D01*
X57157152Y-87416906D01*
X57169785Y-87398500D01*
X57181136Y-87389459D01*
X57258255Y-87361980D01*
X57369216Y-87348559D01*
X57491510Y-87349376D01*
D11*
%TO.C,D405*%
X75990000Y-63670000D02*
X76920000Y-63670000D01*
X79150000Y-63670000D02*
X79150000Y-65830000D01*
X79150000Y-63670000D02*
X78220000Y-63670000D01*
X75990000Y-63670000D02*
X75990000Y-65130000D01*
%TO.C,D1*%
X56610000Y-68230000D02*
X56610000Y-67300000D01*
X56610000Y-65070000D02*
X55150000Y-65070000D01*
X56610000Y-65070000D02*
X56610000Y-66000000D01*
X56610000Y-68230000D02*
X54450000Y-68230000D01*
%TO.C,D10011*%
X151740000Y-63560000D02*
X150810000Y-63560000D01*
X151740000Y-63560000D02*
X151740000Y-65720000D01*
X148580000Y-63560000D02*
X148580000Y-65020000D01*
X148580000Y-63560000D02*
X149510000Y-63560000D01*
%TO.C,J0*%
X42187501Y-44311999D02*
X51587501Y-44311999D01*
X51587501Y-46211999D02*
X51587501Y-44311999D01*
X51587501Y-50111999D02*
X51587501Y-48111999D01*
X42187501Y-50111999D02*
X42187501Y-48111999D01*
X42187501Y-46211999D02*
X42187501Y-44311999D01*
%TO.C,D2627*%
X60830000Y-100190000D02*
X59900000Y-100190000D01*
X60830000Y-100190000D02*
X60830000Y-102350000D01*
X57670000Y-100190000D02*
X58600000Y-100190000D01*
X57670000Y-100190000D02*
X57670000Y-101650000D01*
D10*
%TO.C,U1*%
X33010977Y-93643249D02*
X33240787Y-93873059D01*
X38137501Y-98769773D02*
X37907691Y-98539963D01*
X38296600Y-88675824D02*
X39304227Y-87668197D01*
X38137501Y-88516725D02*
X37907691Y-88746535D01*
X43264025Y-93643249D02*
X43034215Y-93413439D01*
X33010977Y-93643249D02*
X33240787Y-93413439D01*
X43264025Y-93643249D02*
X43034215Y-93873059D01*
X38137501Y-98769773D02*
X38367311Y-98539963D01*
X38137501Y-88516725D02*
X38296600Y-88675824D01*
D11*
%TO.C,D3*%
X155680000Y-109910000D02*
X155680000Y-108450000D01*
X155680000Y-109910000D02*
X154750000Y-109910000D01*
X152520000Y-109910000D02*
X152520000Y-107750000D01*
X152520000Y-109910000D02*
X153450000Y-109910000D01*
%TO.C,U2*%
X45175000Y-55428249D02*
X46975000Y-55428249D01*
X45175000Y-55428249D02*
X44375000Y-55428249D01*
X45175000Y-58548249D02*
X45975000Y-58548249D01*
X45175000Y-58548249D02*
X44375000Y-58548249D01*
%TO.C,D112113*%
X144890000Y-72630000D02*
X144890000Y-70470000D01*
X148050000Y-72630000D02*
X148050000Y-71170000D01*
X148050000Y-72630000D02*
X147120000Y-72630000D01*
X144890000Y-72630000D02*
X145820000Y-72630000D01*
%TO.C,D210211*%
X148580000Y-102090000D02*
X148580000Y-103550000D01*
X148580000Y-102090000D02*
X149510000Y-102090000D01*
X151740000Y-102090000D02*
X151740000Y-104250000D01*
X151740000Y-102090000D02*
X150810000Y-102090000D01*
%TO.C,D3031*%
X60680000Y-109290000D02*
X60680000Y-111450000D01*
X57520000Y-109290000D02*
X57520000Y-110750000D01*
X57520000Y-109290000D02*
X58450000Y-109290000D01*
X60680000Y-109290000D02*
X59750000Y-109290000D01*
%TO.C,D203*%
X64420000Y-66460000D02*
X64420000Y-64300000D01*
X67580000Y-66460000D02*
X67580000Y-65000000D01*
X64420000Y-66460000D02*
X65350000Y-66460000D01*
X67580000Y-66460000D02*
X66650000Y-66460000D01*
%TO.C,R3*%
X37577501Y-51058249D02*
X40262501Y-51058249D01*
X37577501Y-52978249D02*
X37577501Y-51058249D01*
X40262501Y-52978249D02*
X37577501Y-52978249D01*
%TO.C,D212213*%
X148060000Y-102090000D02*
X147130000Y-102090000D01*
X148060000Y-102090000D02*
X148060000Y-104250000D01*
X144900000Y-102090000D02*
X144900000Y-103550000D01*
X144900000Y-102090000D02*
X145830000Y-102090000D01*
%TO.C,D809*%
X155680000Y-63550000D02*
X155680000Y-65710000D01*
X152520000Y-63550000D02*
X152520000Y-65010000D01*
X155680000Y-63550000D02*
X154750000Y-63550000D01*
X152520000Y-63550000D02*
X153450000Y-63550000D01*
%TO.C,C4*%
X49288748Y-63590000D02*
X49811252Y-63590000D01*
X49288748Y-65060000D02*
X49811252Y-65060000D01*
%TO.C,R0*%
X49335000Y-69510000D02*
X46650000Y-69510000D01*
X49335000Y-67590000D02*
X49335000Y-69510000D01*
X46650000Y-67590000D02*
X49335000Y-67590000D01*
%TO.C,R2*%
X46135000Y-61215000D02*
X46135000Y-63135000D01*
X43450000Y-61215000D02*
X46135000Y-61215000D01*
X46135000Y-63135000D02*
X43450000Y-63135000D01*
%TO.C,D1213*%
X67580000Y-69790000D02*
X67580000Y-71950000D01*
X67580000Y-69790000D02*
X66650000Y-69790000D01*
X64420000Y-69790000D02*
X64420000Y-71250000D01*
X64420000Y-69790000D02*
X65350000Y-69790000D01*
%TO.C,D2*%
X61320000Y-110810000D02*
X61320000Y-108650000D01*
X61320000Y-110810000D02*
X62250000Y-110810000D01*
X64480000Y-110810000D02*
X63550000Y-110810000D01*
X64480000Y-110810000D02*
X64480000Y-109350000D01*
%TO.C,R1*%
X46135000Y-65285000D02*
X43450000Y-65285000D01*
X43450000Y-63365000D02*
X46135000Y-63365000D01*
X46135000Y-63365000D02*
X46135000Y-65285000D01*
%TO.C,D1617*%
X75530000Y-72450000D02*
X74600000Y-72450000D01*
X75530000Y-72450000D02*
X75530000Y-70990000D01*
X72370000Y-72450000D02*
X73300000Y-72450000D01*
X72370000Y-72450000D02*
X72370000Y-70290000D01*
%TD*%
M02*
