M48
; DRILL file {KiCad (6.0.4)} date Wed 30 Mar 2022 01:59:53 PM CEST
; FORMAT={-:-/ absolute / inch / decimal}
; #@! TF.CreationDate,2022-03-30T13:59:53+02:00
; #@! TF.GenerationSoftware,Kicad,Pcbnew,(6.0.4)
; #@! TF.FileFunction,NonPlated,1,2,NPTH
FMAT,2
INCH
; #@! TA.AperFunction,NonPlated,NPTH,ComponentDrill
T1C0.0256
; #@! TA.AperFunction,NonPlated,NPTH,ComponentDrill
T2C0.0669
; #@! TA.AperFunction,NonPlated,NPTH,ComponentDrill
T3C0.0709
; #@! TA.AperFunction,NonPlated,NPTH,ComponentDrill
T4C0.1200
; #@! TA.AperFunction,NonPlated,NPTH,ComponentDrill
T5C0.1570
; #@! TA.AperFunction,NonPlated,NPTH,ComponentDrill
T6C0.1929
%
G90
G05
T1
X1.7322Y-2.0005
X1.9597Y-2.0005
T2
X0.521Y-2.3669
X0.6147Y-3.1169
X0.7085Y-4.6169
X0.8022Y-3.8669
X0.921Y-2.3669
X1.0147Y-3.1169
X1.1085Y-4.6169
X1.2022Y-3.8669
X1.271Y-2.3669
X1.4585Y-3.1169
X1.646Y-4.6169
X1.671Y-2.3669
X1.8335Y-3.8669
X1.8585Y-3.1169
X2.021Y-2.3669
X2.046Y-4.6169
X2.2085Y-3.1169
X2.2335Y-3.8669
X2.396Y-4.6169
X2.421Y-2.3669
X2.5835Y-3.8669
X2.5835Y-4.6169
X2.6085Y-3.1169
X2.771Y-2.3669
X2.796Y-4.6169
X2.9585Y-3.1169
X2.9835Y-3.8669
X2.9835Y-4.6169
X3.171Y-2.3669
X3.3335Y-3.8669
X3.3585Y-3.1169
X3.521Y-2.3669
X3.7085Y-3.1169
X3.7335Y-3.8669
X3.921Y-2.3669
X4.0835Y-3.8669
X4.1085Y-3.1169
X4.271Y-2.3669
X4.271Y-4.6169
X4.4585Y-3.1169
X4.4835Y-3.8669
X4.671Y-2.3669
X4.671Y-4.6169
X4.8335Y-3.8669
X4.8585Y-3.1169
X5.021Y-2.3669
X5.2085Y-3.1169
X5.2335Y-3.8669
X5.421Y-2.3669
X5.5835Y-3.8669
X5.6085Y-3.1169
X5.771Y-2.3669
X5.771Y-4.6169
X5.9585Y-3.1169
X5.9835Y-3.8669
X6.171Y-2.3669
X6.171Y-4.6169
X6.3335Y-3.8669
X6.3585Y-3.1169
X6.521Y-2.3669
X6.7085Y-3.1169
X6.7335Y-3.8669
X6.921Y-2.3669
X7.0835Y-3.8669
X7.1085Y-3.1169
X7.271Y-2.3669
X7.271Y-4.6169
X7.4585Y-3.1169
X7.4835Y-3.8669
X7.671Y-2.3669
X7.671Y-4.6169
X7.8335Y-3.8669
X7.8585Y-3.1169
X8.021Y-2.3669
X8.2085Y-3.1169
X8.2335Y-3.8669
X8.421Y-2.3669
X8.5835Y-3.8669
X8.6085Y-3.1169
X8.771Y-2.3669
X8.9585Y-3.1169
X8.9585Y-4.6169
X8.9835Y-3.8669
X9.146Y-4.6169
X9.171Y-2.3669
X9.3335Y-3.8669
X9.3585Y-3.1169
X9.3585Y-4.6169
X9.521Y-2.3669
X9.546Y-4.6169
X9.7085Y-3.1169
X9.7335Y-3.8669
X9.8022Y-3.8669
X9.896Y-4.6169
X9.921Y-2.3669
X10.1085Y-3.1169
X10.2022Y-3.8669
X10.271Y-2.3669
X10.296Y-4.6169
X10.5522Y-3.8669
X10.646Y-2.3669
X10.671Y-2.3669
X10.7397Y-3.1169
X10.8335Y-4.6169
X10.9522Y-3.8669
X11.021Y-3.8669
X11.046Y-2.3669
X11.1397Y-3.1169
X11.221Y-2.5419
X11.221Y-2.9419
X11.2335Y-4.6169
X11.421Y-3.8669
T3
X0.5044Y-2.3669
X0.5982Y-3.1169
X0.6919Y-4.6169
X0.7857Y-3.8669
X0.9375Y-2.3669
X1.0313Y-3.1169
X1.125Y-4.6169
X1.2188Y-3.8669
X1.2544Y-2.3669
X1.4419Y-3.1169
X1.6294Y-4.6169
X1.6875Y-2.3669
X1.8169Y-3.8669
X1.875Y-3.1169
X2.0044Y-2.3669
X2.0625Y-4.6169
X2.1919Y-3.1169
X2.25Y-3.8669
X2.3794Y-4.6169
X2.4375Y-2.3669
X2.5669Y-3.8669
X2.5669Y-4.6169
X2.625Y-3.1169
X2.7544Y-2.3669
X2.8125Y-4.6169
X2.9419Y-3.1169
X3.0Y-3.8669
X3.0Y-4.6169
X3.1875Y-2.3669
X3.3169Y-3.8669
X3.375Y-3.1169
X3.5044Y-2.3669
X3.6919Y-3.1169
X3.75Y-3.8669
X3.9375Y-2.3669
X4.0669Y-3.8669
X4.125Y-3.1169
X4.2544Y-2.3669
X4.2544Y-4.6169
X4.4419Y-3.1169
X4.5Y-3.8669
X4.6875Y-2.3669
X4.6875Y-4.6169
X4.8169Y-3.8669
X4.875Y-3.1169
X5.0044Y-2.3669
X5.1919Y-3.1169
X5.25Y-3.8669
X5.4375Y-2.3669
X5.5669Y-3.8669
X5.625Y-3.1169
X5.7544Y-2.3669
X5.7544Y-4.6169
X5.9419Y-3.1169
X6.0Y-3.8669
X6.1875Y-2.3669
X6.1875Y-4.6169
X6.3169Y-3.8669
X6.375Y-3.1169
X6.5044Y-2.3669
X6.6919Y-3.1169
X6.75Y-3.8669
X6.9375Y-2.3669
X7.0669Y-3.8669
X7.125Y-3.1169
X7.2544Y-2.3669
X7.2544Y-4.6169
X7.4419Y-3.1169
X7.5Y-3.8669
X7.6875Y-2.3669
X7.6875Y-4.6169
X7.8169Y-3.8669
X7.875Y-3.1169
X8.0044Y-2.3669
X8.1919Y-3.1169
X8.25Y-3.8669
X8.4375Y-2.3669
X8.5669Y-3.8669
X8.625Y-3.1169
X8.7544Y-2.3669
X8.9419Y-3.1169
X8.9419Y-4.6169
X9.0Y-3.8669
X9.1294Y-4.6169
X9.1875Y-2.3669
X9.3169Y-3.8669
X9.375Y-3.1169
X9.375Y-4.6169
X9.5044Y-2.3669
X9.5625Y-4.6169
X9.6919Y-3.1169
X9.75Y-3.8669
X9.7857Y-3.8669
X9.8794Y-4.6169
X9.9375Y-2.3669
X10.125Y-3.1169
X10.2188Y-3.8669
X10.2544Y-2.3669
X10.3125Y-4.6169
X10.5357Y-3.8669
X10.6294Y-2.3669
X10.6875Y-2.3669
X10.7232Y-3.1169
X10.8169Y-4.6169
X10.9688Y-3.8669
X11.0044Y-3.8669
X11.0625Y-2.3669
X11.1563Y-3.1169
X11.221Y-2.5253
X11.221Y-2.9584
X11.25Y-4.6169
X11.4375Y-3.8669
T4
X3.346Y-4.8919
X3.721Y-4.8919
X3.721Y-4.8919
X5.221Y-4.8919
X6.721Y-4.8919
X8.221Y-4.8919
X8.221Y-4.8919
X8.596Y-4.8919
X9.5335Y-3.5919
X10.2835Y-3.5919
X10.3772Y-2.0919
X10.471Y-3.5919
X10.946Y-2.2731
X10.946Y-3.2106
X11.221Y-3.5919
X11.3147Y-2.0919
T5
X3.346Y-4.293
X3.721Y-4.2919
X3.721Y-4.2919
X5.221Y-4.2919
X6.721Y-4.2919
X8.221Y-4.2919
X8.221Y-4.2919
X8.596Y-4.293
X9.5335Y-4.1919
X10.2835Y-4.1919
X10.3772Y-2.6919
X10.471Y-4.1919
X11.221Y-4.1919
X11.3147Y-2.6919
X11.546Y-2.2731
X11.546Y-3.2106
T6
X0.721Y-2.3669
X0.8147Y-3.1169
X0.9085Y-4.6169
X1.0022Y-3.8669
X1.471Y-2.3669
X1.6585Y-3.1169
X1.846Y-4.6169
X2.0335Y-3.8669
X2.221Y-2.3669
X2.4085Y-3.1169
X2.596Y-4.6169
X2.7835Y-3.8669
X2.7835Y-4.6169
X2.971Y-2.3669
X3.1585Y-3.1169
X3.5335Y-3.8669
X3.721Y-2.3669
X3.9085Y-3.1169
X4.2835Y-3.8669
X4.471Y-2.3669
X4.471Y-4.6169
X4.6585Y-3.1169
X5.0335Y-3.8669
X5.221Y-2.3669
X5.4085Y-3.1169
X5.7835Y-3.8669
X5.971Y-2.3669
X5.971Y-4.6169
X6.1585Y-3.1169
X6.5335Y-3.8669
X6.721Y-2.3669
X6.9085Y-3.1169
X7.2835Y-3.8669
X7.471Y-2.3669
X7.471Y-4.6169
X7.6585Y-3.1169
X8.0335Y-3.8669
X8.221Y-2.3669
X8.4085Y-3.1169
X8.7835Y-3.8669
X8.971Y-2.3669
X9.1585Y-3.1169
X9.1585Y-4.6169
X9.346Y-4.6169
X9.5335Y-3.8669
X9.721Y-2.3669
X9.9085Y-3.1169
X10.0022Y-3.8669
X10.096Y-4.6169
X10.471Y-2.3669
X10.7522Y-3.8669
X10.846Y-2.3669
X10.9397Y-3.1169
X11.0335Y-4.6169
X11.221Y-2.7419
X11.221Y-3.8669
T0
M30
