M48
; DRILL file {KiCad (6.0.4)} date Wed 30 Mar 2022 01:59:53 PM CEST
; FORMAT={-:-/ absolute / inch / decimal}
; #@! TF.CreationDate,2022-03-30T13:59:53+02:00
; #@! TF.GenerationSoftware,Kicad,Pcbnew,(6.0.4)
; #@! TF.FileFunction,Plated,1,2,PTH
FMAT,2
INCH
; #@! TA.AperFunction,Plated,PTH,ViaDrill
T1C0.0157
; #@! TA.AperFunction,Plated,PTH,ComponentDrill
T2C0.0236
; #@! TA.AperFunction,Plated,PTH,ComponentDrill
T3C0.0276
; #@! TA.AperFunction,Plated,PTH,ComponentDrill
T4C0.0551
%
G90
G05
T1
X1.185Y-3.3976
X1.2431Y-3.6604
X1.2795Y-3.3976
X1.2874Y-3.5787
X1.2894Y-3.2992
X1.3957Y-4.0433
X1.4075Y-4.0906
X1.4222Y-3.0522
X1.4232Y-3.4508
X1.4291Y-3.9961
X1.439Y-2.7815
X1.4528Y-3.5906
X1.4724Y-3.812
X1.4764Y-3.939
X1.4941Y-3.9016
X1.5118Y-3.7648
X1.5207Y-3.8159
X1.565Y-3.7274
X1.5659Y-3.7717
X1.5669Y-3.685
X1.5945Y-3.6516
X1.6437Y-3.4232
X1.6811Y-2.1083
X1.6909Y-2.7815
X1.7953Y-3.7657
X1.7972Y-2.128
X1.815Y-2.7874
X1.874Y-2.2421
X1.904Y-2.1314
X2.0108Y-2.1152
X2.0354Y-2.4272
X2.1437Y-2.6476
X2.1457Y-2.5748
X2.6752Y-2.4429
X5.5295Y-3.9311
X9.7047Y-4.2283
X10.2343Y-2.0669
T3
X0.7795Y-3.2992
X0.7795Y-3.4449
X0.7795Y-3.5984
T4
X0.5714Y-2.2665
X0.6225Y-2.2094
X0.6651Y-3.0165
X0.7163Y-2.9594
X0.7589Y-4.5165
X0.81Y-4.4594
X0.8526Y-3.7665
X0.9038Y-3.7094
X1.3214Y-2.2665
X1.3725Y-2.2094
X1.5089Y-3.0165
X1.56Y-2.9594
X1.6964Y-4.5165
X1.7475Y-4.4594
X1.8839Y-3.7665
X1.935Y-3.7094
X2.0714Y-2.2665
X2.1225Y-2.2094
X2.2589Y-3.0165
X2.31Y-2.9594
X2.6339Y-3.7665
X2.6339Y-4.5165
X2.685Y-3.7094
X2.685Y-4.4594
X2.6944Y-4.7743
X2.7456Y-4.7173
X2.8214Y-2.2665
X2.8725Y-2.2094
X3.0089Y-3.0165
X3.06Y-2.9594
X3.3839Y-3.7665
X3.435Y-3.7094
X3.5714Y-2.2665
X3.6225Y-2.2094
X3.7589Y-3.0165
X3.81Y-2.9594
X4.1339Y-3.7665
X4.185Y-3.7094
X4.3214Y-2.2665
X4.3214Y-4.5165
X4.3725Y-2.2094
X4.3725Y-4.4594
X4.5089Y-3.0165
X4.56Y-2.9594
X4.8839Y-3.7665
X4.935Y-3.7094
X5.0714Y-2.2665
X5.1225Y-2.2094
X5.2589Y-3.0165
X5.31Y-2.9594
X5.6339Y-3.7665
X5.685Y-3.7094
X5.8214Y-2.2665
X5.8214Y-4.5165
X5.8725Y-2.2094
X5.8725Y-4.4594
X6.0089Y-3.0165
X6.06Y-2.9594
X6.3839Y-3.7665
X6.435Y-3.7094
X6.5714Y-2.2665
X6.6225Y-2.2094
X6.7589Y-3.0165
X6.81Y-2.9594
X7.1339Y-3.7665
X7.185Y-3.7094
X7.3214Y-2.2665
X7.3214Y-4.5165
X7.3725Y-2.2094
X7.3725Y-4.4594
X7.5089Y-3.0165
X7.56Y-2.9594
X7.8839Y-3.7665
X7.935Y-3.7094
X8.0714Y-2.2665
X8.1225Y-2.2094
X8.2589Y-3.0165
X8.31Y-2.9594
X8.6339Y-3.7665
X8.685Y-3.7094
X8.8214Y-2.2665
X8.8725Y-2.2094
X9.0089Y-3.0165
X9.06Y-2.9594
X9.1964Y-4.5165
X9.2475Y-4.4594
X9.2569Y-4.7743
X9.3081Y-4.7173
X9.3839Y-3.7665
X9.435Y-3.7094
X9.5714Y-2.2665
X9.6225Y-2.2094
X9.7589Y-3.0165
X9.81Y-2.9594
X9.8526Y-3.7665
X9.9038Y-3.7094
X9.9464Y-4.5165
X9.9975Y-4.4594
X10.3214Y-2.2665
X10.3725Y-2.2094
X10.6026Y-3.7665
X10.6538Y-3.7094
X10.6964Y-2.2665
X10.7475Y-2.2094
X10.7901Y-3.0165
X10.8413Y-2.9594
X10.8839Y-4.5165
X10.935Y-4.4594
X11.0714Y-3.7665
X11.1225Y-3.7094
X11.3214Y-2.5923
X11.3784Y-2.6434
T2
G00X1.6759Y-1.845
M15
G01X1.6759Y-1.8686
M16
G05
G00X1.6759Y-1.9997
M15
G01X1.6759Y-2.043
M16
G05
G00X2.016Y-1.845
M15
G01X2.016Y-1.8686
M16
G05
G00X2.016Y-1.9997
M15
G01X2.016Y-2.043
M16
G05
T4
G00X0.8194Y-2.1671
M15
G01X0.8194Y-2.1887
M16
G05
G00X0.9131Y-2.9171
M15
G01X0.9131Y-2.9387
M16
G05
G00X1.0069Y-4.4171
M15
G01X1.0069Y-4.4387
M16
G05
G00X1.1006Y-3.6671
M15
G01X1.1006Y-3.6887
M16
G05
G00X1.5694Y-2.1671
M15
G01X1.5694Y-2.1887
M16
G05
G00X1.7569Y-2.9171
M15
G01X1.7569Y-2.9387
M16
G05
G00X1.9444Y-4.4171
M15
G01X1.9444Y-4.4387
M16
G05
G00X2.1319Y-3.6671
M15
G01X2.1319Y-3.6887
M16
G05
G00X2.3194Y-2.1671
M15
G01X2.3194Y-2.1887
M16
G05
G00X2.4975Y-4.8167
M15
G01X2.4975Y-4.795
M16
G05
G00X2.5069Y-2.9171
M15
G01X2.5069Y-2.9387
M16
G05
G00X2.8819Y-3.6671
M15
G01X2.8819Y-3.6887
M16
G05
G00X2.8819Y-4.4171
M15
G01X2.8819Y-4.4387
M16
G05
G00X3.0694Y-2.1671
M15
G01X3.0694Y-2.1887
M16
G05
G00X3.2569Y-2.9171
M15
G01X3.2569Y-2.9387
M16
G05
G00X3.6319Y-3.6671
M15
G01X3.6319Y-3.6887
M16
G05
G00X3.8194Y-2.1671
M15
G01X3.8194Y-2.1887
M16
G05
G00X4.0069Y-2.9171
M15
G01X4.0069Y-2.9387
M16
G05
G00X4.3819Y-3.6671
M15
G01X4.3819Y-3.6887
M16
G05
G00X4.5694Y-2.1671
M15
G01X4.5694Y-2.1887
M16
G05
G00X4.5694Y-4.4171
M15
G01X4.5694Y-4.4387
M16
G05
G00X4.7569Y-2.9171
M15
G01X4.7569Y-2.9387
M16
G05
G00X5.1319Y-3.6671
M15
G01X5.1319Y-3.6887
M16
G05
G00X5.3194Y-2.1671
M15
G01X5.3194Y-2.1887
M16
G05
G00X5.5069Y-2.9171
M15
G01X5.5069Y-2.9387
M16
G05
G00X5.8819Y-3.6671
M15
G01X5.8819Y-3.6887
M16
G05
G00X6.0694Y-2.1671
M15
G01X6.0694Y-2.1887
M16
G05
G00X6.0694Y-4.4171
M15
G01X6.0694Y-4.4387
M16
G05
G00X6.2569Y-2.9171
M15
G01X6.2569Y-2.9387
M16
G05
G00X6.6319Y-3.6671
M15
G01X6.6319Y-3.6887
M16
G05
G00X6.8194Y-2.1671
M15
G01X6.8194Y-2.1887
M16
G05
G00X7.0069Y-2.9171
M15
G01X7.0069Y-2.9387
M16
G05
G00X7.3819Y-3.6671
M15
G01X7.3819Y-3.6887
M16
G05
G00X7.5694Y-2.1671
M15
G01X7.5694Y-2.1887
M16
G05
G00X7.5694Y-4.4171
M15
G01X7.5694Y-4.4387
M16
G05
G00X7.7569Y-2.9171
M15
G01X7.7569Y-2.9387
M16
G05
G00X8.1319Y-3.6671
M15
G01X8.1319Y-3.6887
M16
G05
G00X8.3194Y-2.1671
M15
G01X8.3194Y-2.1887
M16
G05
G00X8.5069Y-2.9171
M15
G01X8.5069Y-2.9387
M16
G05
G00X8.8819Y-3.6671
M15
G01X8.8819Y-3.6887
M16
G05
G00X9.06Y-4.8167
M15
G01X9.06Y-4.795
M16
G05
G00X9.0694Y-2.1671
M15
G01X9.0694Y-2.1887
M16
G05
G00X9.2569Y-2.9171
M15
G01X9.2569Y-2.9387
M16
G05
G00X9.4444Y-4.4171
M15
G01X9.4444Y-4.4387
M16
G05
G00X9.6319Y-3.6671
M15
G01X9.6319Y-3.6887
M16
G05
G00X9.8194Y-2.1671
M15
G01X9.8194Y-2.1887
M16
G05
G00X10.0069Y-2.9171
M15
G01X10.0069Y-2.9387
M16
G05
G00X10.1006Y-3.6671
M15
G01X10.1006Y-3.6887
M16
G05
G00X10.1944Y-4.4171
M15
G01X10.1944Y-4.4387
M16
G05
G00X10.5694Y-2.1671
M15
G01X10.5694Y-2.1887
M16
G05
G00X10.8506Y-3.6671
M15
G01X10.8506Y-3.6887
M16
G05
G00X10.9444Y-2.1671
M15
G01X10.9444Y-2.1887
M16
G05
G00X11.0381Y-2.9171
M15
G01X11.0381Y-2.9387
M16
G05
G00X11.1319Y-4.4171
M15
G01X11.1319Y-4.4387
M16
G05
G00X11.3194Y-3.6671
M15
G01X11.3194Y-3.6887
M16
G05
G00X11.4208Y-2.8403
M15
G01X11.3991Y-2.8403
M16
G05
T0
M30
