%TF.GenerationSoftware,KiCad,Pcbnew,(6.0.4)*%
%TF.CreationDate,2022-03-30T13:59:28+02:00*%
%TF.ProjectId,32u2,33327532-2e6b-4696-9361-645f70636258,rev?*%
%TF.SameCoordinates,Original*%
%TF.FileFunction,Soldermask,Bot*%
%TF.FilePolarity,Negative*%
%FSLAX46Y46*%
G04 Gerber Fmt 4.6, Leading zero omitted, Abs format (unit mm)*
G04 Created by KiCad (PCBNEW (6.0.4)) date 2022-03-30 13:59:28*
%MOMM*%
%LPD*%
G01*
G04 APERTURE LIST*
G04 Aperture macros list*
%AMRoundRect*
0 Rectangle with rounded corners*
0 $1 Rounding radius*
0 $2 $3 $4 $5 $6 $7 $8 $9 X,Y pos of 4 corners*
0 Add a 4 corners polygon primitive as box body*
4,1,4,$2,$3,$4,$5,$6,$7,$8,$9,$2,$3,0*
0 Add four circle primitives for the rounded corners*
1,1,$1+$1,$2,$3*
1,1,$1+$1,$4,$5*
1,1,$1+$1,$6,$7*
1,1,$1+$1,$8,$9*
0 Add four rect primitives between the rounded corners*
20,1,$1+$1,$2,$3,$4,$5,0*
20,1,$1+$1,$4,$5,$6,$7,0*
20,1,$1+$1,$6,$7,$8,$9,0*
20,1,$1+$1,$8,$9,$2,$3,0*%
%AMHorizOval*
0 Thick line with rounded ends*
0 $1 width*
0 $2 $3 position (X,Y) of the first rounded end (center of the circle)*
0 $4 $5 position (X,Y) of the second rounded end (center of the circle)*
0 Add line between two ends*
20,1,$1,$2,$3,$4,$5,0*
0 Add two circle primitives to create the rounded ends*
1,1,$1,$2,$3*
1,1,$1,$4,$5*%
%AMRotRect*
0 Rectangle, with rotation*
0 The origin of the aperture is its center*
0 $1 length*
0 $2 width*
0 $3 Rotation angle, in degrees counterclockwise*
0 Add horizontal line*
21,1,$1,$2,0,0,$3*%
G04 Aperture macros list end*
%ADD10C,1.800000*%
%ADD11C,1.700000*%
%ADD12C,4.900000*%
%ADD13C,2.400000*%
%ADD14HorizOval,2.400000X-0.669131X-0.743145X0.669131X0.743145X0*%
%ADD15O,2.400000X2.950000*%
%ADD16C,3.987800*%
%ADD17C,3.048000*%
%ADD18HorizOval,2.400000X-0.743145X0.669131X0.743145X-0.669131X0*%
%ADD19O,2.950000X2.400000*%
%ADD20C,1.400000*%
%ADD21HorizOval,2.400000X0.669131X0.743145X-0.669131X-0.743145X0*%
%ADD22R,0.800000X0.900000*%
%ADD23R,0.900000X0.800000*%
%ADD24RoundRect,0.250000X-0.159099X0.512652X-0.512652X0.159099X0.159099X-0.512652X0.512652X-0.159099X0*%
%ADD25R,1.700000X1.000000*%
%ADD26RoundRect,0.250000X-0.250000X-0.475000X0.250000X-0.475000X0.250000X0.475000X-0.250000X0.475000X0*%
%ADD27RotRect,1.400000X1.200000X315.000000*%
%ADD28RoundRect,0.243750X0.243750X0.456250X-0.243750X0.456250X-0.243750X-0.456250X0.243750X-0.456250X0*%
%ADD29RoundRect,0.250000X-0.625000X0.375000X-0.625000X-0.375000X0.625000X-0.375000X0.625000X0.375000X0*%
%ADD30RoundRect,0.250000X0.159099X-0.512652X0.512652X-0.159099X-0.159099X0.512652X-0.512652X0.159099X0*%
%ADD31RoundRect,0.250000X0.475000X-0.250000X0.475000X0.250000X-0.475000X0.250000X-0.475000X-0.250000X0*%
%ADD32RoundRect,0.243750X0.150260X-0.494975X0.494975X-0.150260X-0.150260X0.494975X-0.494975X0.150260X0*%
%ADD33C,0.650000*%
%ADD34R,0.600000X1.450000*%
%ADD35R,0.300000X1.450000*%
%ADD36O,1.000000X1.600000*%
%ADD37O,1.000000X2.100000*%
%ADD38RotRect,1.600000X0.550000X225.000000*%
%ADD39RotRect,1.600000X0.550000X135.000000*%
%ADD40RoundRect,0.150000X0.512500X0.150000X-0.512500X0.150000X-0.512500X-0.150000X0.512500X-0.150000X0*%
%ADD41RoundRect,0.243750X-0.243750X-0.456250X0.243750X-0.456250X0.243750X0.456250X-0.243750X0.456250X0*%
G04 APERTURE END LIST*
D10*
%TO.C,SW1\u002C11*%
X238125001Y-79168249D03*
D11*
X237705001Y-79168249D03*
D10*
X227125001Y-79168249D03*
D11*
X227545001Y-79168249D03*
D12*
X232625001Y-79168249D03*
D13*
X230125001Y-75168249D03*
D14*
X229494132Y-75875104D03*
D15*
X235125001Y-74368249D03*
%TD*%
D16*
%TO.C,REF\u002A\u002A*%
X208812501Y-109013249D03*
D17*
X170712501Y-124253249D03*
X208812501Y-124253249D03*
D16*
X170712501Y-109013249D03*
%TD*%
D10*
%TO.C,SW1\u002C13_1*%
X285012501Y-64143249D03*
D11*
X285012501Y-64563249D03*
D10*
X285012501Y-75143249D03*
D12*
X285012501Y-69643249D03*
D11*
X285012501Y-74723249D03*
D18*
X288305646Y-66512380D03*
D13*
X289012501Y-67143249D03*
D19*
X289812501Y-72143249D03*
%TD*%
D12*
%TO.C,SW0\u002C2*%
X56412501Y-60118249D03*
D11*
X61492501Y-60118249D03*
D10*
X61912501Y-60118249D03*
X50912501Y-60118249D03*
D11*
X51332501Y-60118249D03*
D14*
X53281632Y-56825104D03*
D13*
X53912501Y-56118249D03*
D15*
X58912501Y-55318249D03*
%TD*%
D12*
%TO.C,SW2\u002C3*%
X89750001Y-98218249D03*
D11*
X84670001Y-98218249D03*
X94830001Y-98218249D03*
D10*
X95250001Y-98218249D03*
X84250001Y-98218249D03*
D13*
X87250001Y-94218249D03*
D14*
X86619132Y-94925104D03*
D15*
X92250001Y-93418249D03*
%TD*%
D10*
%TO.C,SW3\u002C6*%
X146162501Y-117268249D03*
D11*
X146582501Y-117268249D03*
X156742501Y-117268249D03*
D10*
X157162501Y-117268249D03*
D12*
X151662501Y-117268249D03*
D14*
X148531632Y-113975104D03*
D13*
X149162501Y-113268249D03*
D15*
X154162501Y-112468249D03*
%TD*%
D11*
%TO.C,SW2\u002C5*%
X132930001Y-98218249D03*
D10*
X122350001Y-98218249D03*
D12*
X127850001Y-98218249D03*
D11*
X122770001Y-98218249D03*
D10*
X133350001Y-98218249D03*
D13*
X125350001Y-94218249D03*
D14*
X124719132Y-94925104D03*
D15*
X130350001Y-93418249D03*
%TD*%
D11*
%TO.C,SW2\u002C7*%
X171030001Y-98218249D03*
D10*
X171450001Y-98218249D03*
D12*
X165950001Y-98218249D03*
D10*
X160450001Y-98218249D03*
D11*
X160870001Y-98218249D03*
D13*
X163450001Y-94218249D03*
D14*
X162819132Y-94925104D03*
D15*
X168450001Y-93418249D03*
%TD*%
D16*
%TO.C,REF\u002A\u002A*%
X293267501Y-81549499D03*
D17*
X278027501Y-81549499D03*
X278027501Y-57736999D03*
D16*
X293267501Y-57736999D03*
%TD*%
D11*
%TO.C,SW1\u002C13*%
X282948751Y-79168249D03*
D10*
X272368751Y-79168249D03*
D12*
X277868751Y-79168249D03*
D11*
X272788751Y-79168249D03*
D10*
X283368751Y-79168249D03*
D13*
X275368751Y-75168249D03*
D14*
X274737882Y-75875104D03*
D15*
X280368751Y-74368249D03*
%TD*%
D12*
%TO.C,SW2\u002C12_1*%
X285012501Y-98218249D03*
D11*
X279932501Y-98218249D03*
D10*
X290512501Y-98218249D03*
D11*
X290092501Y-98218249D03*
D10*
X279512501Y-98218249D03*
D13*
X282512501Y-94218249D03*
D14*
X281881632Y-94925104D03*
D15*
X287512501Y-93418249D03*
%TD*%
D10*
%TO.C,SW0\u002C5*%
X119062501Y-60118249D03*
D11*
X118642501Y-60118249D03*
X108482501Y-60118249D03*
D12*
X113562501Y-60118249D03*
D10*
X108062501Y-60118249D03*
D13*
X111062501Y-56118249D03*
D14*
X110431632Y-56825104D03*
D15*
X116062501Y-55318249D03*
%TD*%
D12*
%TO.C,SW3\u002C10*%
X237387501Y-117268249D03*
D11*
X242467501Y-117268249D03*
X232307501Y-117268249D03*
D10*
X242887501Y-117268249D03*
X231887501Y-117268249D03*
D14*
X234256632Y-113975104D03*
D13*
X234887501Y-113268249D03*
D15*
X239887501Y-112468249D03*
%TD*%
D20*
%TO.C,H2*%
X19800000Y-91400000D03*
%TD*%
D10*
%TO.C,SW3\u002C10_1*%
X227125001Y-117268249D03*
D11*
X227545001Y-117268249D03*
X237705001Y-117268249D03*
D12*
X232625001Y-117268249D03*
D10*
X238125001Y-117268249D03*
D13*
X235125001Y-121268249D03*
D21*
X235755870Y-120561394D03*
D15*
X230125001Y-122068249D03*
%TD*%
D11*
%TO.C,SW1\u002C12*%
X256755001Y-79168249D03*
D10*
X257175001Y-79168249D03*
D11*
X246595001Y-79168249D03*
D12*
X251675001Y-79168249D03*
D10*
X246175001Y-79168249D03*
D13*
X249175001Y-75168249D03*
D14*
X248544132Y-75875104D03*
D15*
X254175001Y-74368249D03*
%TD*%
D12*
%TO.C,SW1\u002C1*%
X42125001Y-79168249D03*
D10*
X47625001Y-79168249D03*
D11*
X37045001Y-79168249D03*
X47205001Y-79168249D03*
D10*
X36625001Y-79168249D03*
D14*
X38994132Y-75875104D03*
D13*
X39625001Y-75168249D03*
D15*
X44625001Y-74368249D03*
%TD*%
D12*
%TO.C,SW0\u002C1*%
X37362501Y-60118249D03*
D10*
X42862501Y-60118249D03*
D11*
X42442501Y-60118249D03*
X32282501Y-60118249D03*
D10*
X31862501Y-60118249D03*
D14*
X34231632Y-56825104D03*
D13*
X34862501Y-56118249D03*
D15*
X39862501Y-55318249D03*
%TD*%
D12*
%TO.C,SW2\u002C4*%
X108800001Y-98218249D03*
D11*
X113880001Y-98218249D03*
X103720001Y-98218249D03*
D10*
X114300001Y-98218249D03*
X103300001Y-98218249D03*
D13*
X106300001Y-94218249D03*
D14*
X105669132Y-94925104D03*
D15*
X111300001Y-93418249D03*
%TD*%
D11*
%TO.C,SW0\u002C11*%
X222782501Y-60118249D03*
X232942501Y-60118249D03*
D12*
X227862501Y-60118249D03*
D10*
X233362501Y-60118249D03*
X222362501Y-60118249D03*
D14*
X224731632Y-56825104D03*
D13*
X225362501Y-56118249D03*
D15*
X230362501Y-55318249D03*
%TD*%
D11*
%TO.C,SW3\u002C2_1*%
X71017501Y-117268249D03*
X60857501Y-117268249D03*
D10*
X71437501Y-117268249D03*
D12*
X65937501Y-117268249D03*
D10*
X60437501Y-117268249D03*
D21*
X69068370Y-120561394D03*
D13*
X68437501Y-121268249D03*
D15*
X63437501Y-122068249D03*
%TD*%
D17*
%TO.C,REF\u002A\u002A*%
X261200001Y-91233249D03*
D16*
X285012501Y-106473249D03*
D17*
X285012501Y-91233249D03*
D16*
X261200001Y-106473249D03*
%TD*%
D12*
%TO.C,SW2\u002C11*%
X242150001Y-98218249D03*
D10*
X247650001Y-98218249D03*
X236650001Y-98218249D03*
D11*
X237070001Y-98218249D03*
X247230001Y-98218249D03*
D14*
X239019132Y-94925104D03*
D13*
X239650001Y-94218249D03*
D15*
X244650001Y-93418249D03*
%TD*%
D10*
%TO.C,SW2\u002C1*%
X57150001Y-98218249D03*
D11*
X56730001Y-98218249D03*
D10*
X46150001Y-98218249D03*
D11*
X46570001Y-98218249D03*
D12*
X51650001Y-98218249D03*
D14*
X48519132Y-94925104D03*
D13*
X49150001Y-94218249D03*
D15*
X54150001Y-93418249D03*
%TD*%
D11*
%TO.C,SW1\u002C2*%
X56095001Y-79168249D03*
D12*
X61175001Y-79168249D03*
D10*
X66675001Y-79168249D03*
X55675001Y-79168249D03*
D11*
X66255001Y-79168249D03*
D13*
X58675001Y-75168249D03*
D14*
X58044132Y-75875104D03*
D15*
X63675001Y-74368249D03*
%TD*%
D20*
%TO.C,H1*%
X19800000Y-83800000D03*
%TD*%
D11*
%TO.C,SW1\u002C4*%
X94195001Y-79168249D03*
D12*
X99275001Y-79168249D03*
D11*
X104355001Y-79168249D03*
D10*
X93775001Y-79168249D03*
X104775001Y-79168249D03*
D13*
X96775001Y-75168249D03*
D14*
X96144132Y-75875104D03*
D15*
X101775001Y-74368249D03*
%TD*%
D10*
%TO.C,SW3\u002C2*%
X76200001Y-117268249D03*
D12*
X70700001Y-117268249D03*
D11*
X65620001Y-117268249D03*
D10*
X65200001Y-117268249D03*
D11*
X75780001Y-117268249D03*
D14*
X67569132Y-113975104D03*
D13*
X68200001Y-113268249D03*
D15*
X73200001Y-112468249D03*
%TD*%
D16*
%TO.C,REF\u002A\u002A*%
X263581251Y-68373249D03*
D17*
X287393751Y-53133249D03*
D16*
X287393751Y-68373249D03*
D17*
X263581251Y-53133249D03*
%TD*%
D11*
%TO.C,SW0\u002C10*%
X213892501Y-60118249D03*
D10*
X203312501Y-60118249D03*
D11*
X203732501Y-60118249D03*
D10*
X214312501Y-60118249D03*
D12*
X208812501Y-60118249D03*
D14*
X205681632Y-56825104D03*
D13*
X206312501Y-56118249D03*
D15*
X211312501Y-55318249D03*
%TD*%
D10*
%TO.C,SW0\u002C6*%
X138112501Y-60118249D03*
X127112501Y-60118249D03*
D12*
X132612501Y-60118249D03*
D11*
X127532501Y-60118249D03*
X137692501Y-60118249D03*
D14*
X129481632Y-56825104D03*
D13*
X130112501Y-56118249D03*
D15*
X135112501Y-55318249D03*
%TD*%
D10*
%TO.C,SW1\u002C3*%
X85725001Y-79168249D03*
D11*
X75145001Y-79168249D03*
X85305001Y-79168249D03*
D12*
X80225001Y-79168249D03*
D10*
X74725001Y-79168249D03*
D14*
X77094132Y-75875104D03*
D13*
X77725001Y-75168249D03*
D15*
X82725001Y-74368249D03*
%TD*%
D10*
%TO.C,SW2\u002C2*%
X76200001Y-98218249D03*
D11*
X75780001Y-98218249D03*
D12*
X70700001Y-98218249D03*
D10*
X65200001Y-98218249D03*
D11*
X65620001Y-98218249D03*
D14*
X67569132Y-94925104D03*
D13*
X68200001Y-94218249D03*
D15*
X73200001Y-93418249D03*
%TD*%
D12*
%TO.C,SW3\u002C11*%
X256437501Y-117268249D03*
D11*
X251357501Y-117268249D03*
D10*
X261937501Y-117268249D03*
X250937501Y-117268249D03*
D11*
X261517501Y-117268249D03*
D14*
X253306632Y-113975104D03*
D13*
X253937501Y-113268249D03*
D15*
X258937501Y-112468249D03*
%TD*%
D12*
%TO.C,SW2\u002C0*%
X25456251Y-98218249D03*
D11*
X30536251Y-98218249D03*
D10*
X19956251Y-98218249D03*
D11*
X20376251Y-98218249D03*
D10*
X30956251Y-98218249D03*
D14*
X22325382Y-94925104D03*
D13*
X22956251Y-94218249D03*
D15*
X27956251Y-93418249D03*
%TD*%
D10*
%TO.C,SW0\u002C9*%
X184262501Y-60118249D03*
X195262501Y-60118249D03*
D11*
X194842501Y-60118249D03*
X184682501Y-60118249D03*
D12*
X189762501Y-60118249D03*
D13*
X187262501Y-56118249D03*
D14*
X186631632Y-56825104D03*
D15*
X192262501Y-55318249D03*
%TD*%
D10*
%TO.C,SW0\u002C4*%
X89012501Y-60118249D03*
D12*
X94512501Y-60118249D03*
D11*
X99592501Y-60118249D03*
D10*
X100012501Y-60118249D03*
D11*
X89432501Y-60118249D03*
D14*
X91381632Y-56825104D03*
D13*
X92012501Y-56118249D03*
D15*
X97012501Y-55318249D03*
%TD*%
D10*
%TO.C,SW3\u002C12*%
X274750001Y-117268249D03*
X285750001Y-117268249D03*
D12*
X280250001Y-117268249D03*
D11*
X275170001Y-117268249D03*
X285330001Y-117268249D03*
D14*
X277119132Y-113975104D03*
D13*
X277750001Y-113268249D03*
D15*
X282750001Y-112468249D03*
%TD*%
D11*
%TO.C,SW2\u002C6*%
X141820001Y-98218249D03*
X151980001Y-98218249D03*
D10*
X141400001Y-98218249D03*
D12*
X146900001Y-98218249D03*
D10*
X152400001Y-98218249D03*
D14*
X143769132Y-94925104D03*
D13*
X144400001Y-94218249D03*
D15*
X149400001Y-93418249D03*
%TD*%
D11*
%TO.C,SW2\u002C13*%
X248976251Y-98218249D03*
D10*
X259556251Y-98218249D03*
D12*
X254056251Y-98218249D03*
D10*
X248556251Y-98218249D03*
D11*
X259136251Y-98218249D03*
D13*
X251556251Y-94218249D03*
D14*
X250925382Y-94925104D03*
D15*
X256556251Y-93418249D03*
%TD*%
D10*
%TO.C,SW1\u002C6*%
X142875001Y-79168249D03*
X131875001Y-79168249D03*
D11*
X132295001Y-79168249D03*
D12*
X137375001Y-79168249D03*
D11*
X142455001Y-79168249D03*
D14*
X134244132Y-75875104D03*
D13*
X134875001Y-75168249D03*
D15*
X139875001Y-74368249D03*
%TD*%
D11*
%TO.C,SW0\u002C12*%
X241832501Y-60118249D03*
X251992501Y-60118249D03*
D10*
X241412501Y-60118249D03*
X252412501Y-60118249D03*
D12*
X246912501Y-60118249D03*
D14*
X243781632Y-56825104D03*
D13*
X244412501Y-56118249D03*
D15*
X249412501Y-55318249D03*
%TD*%
D12*
%TO.C,SW0\u002C8*%
X170712501Y-60118249D03*
D11*
X165632501Y-60118249D03*
D10*
X176212501Y-60118249D03*
D11*
X175792501Y-60118249D03*
D10*
X165212501Y-60118249D03*
D13*
X168212501Y-56118249D03*
D14*
X167581632Y-56825104D03*
D15*
X173212501Y-55318249D03*
%TD*%
D12*
%TO.C,SW1\u002C0*%
X20693751Y-79168249D03*
D10*
X26193751Y-79168249D03*
D11*
X15613751Y-79168249D03*
D10*
X15193751Y-79168249D03*
D11*
X25773751Y-79168249D03*
D13*
X18193751Y-75168249D03*
D14*
X17562882Y-75875104D03*
D15*
X23193751Y-74368249D03*
%TD*%
D11*
%TO.C,SW0.7*%
X156742501Y-60118249D03*
D10*
X146162501Y-60118249D03*
X157162501Y-60118249D03*
D11*
X146582501Y-60118249D03*
D12*
X151662501Y-60118249D03*
D14*
X148531632Y-56825104D03*
D13*
X149162501Y-56118249D03*
D15*
X154162501Y-55318249D03*
%TD*%
D10*
%TO.C,SW1\u002C5*%
X123825001Y-79168249D03*
D12*
X118325001Y-79168249D03*
D11*
X113245001Y-79168249D03*
D10*
X112825001Y-79168249D03*
D11*
X123405001Y-79168249D03*
D14*
X115194132Y-75875104D03*
D13*
X115825001Y-75168249D03*
D15*
X120825001Y-74368249D03*
%TD*%
D17*
%TO.C,REF\u002A\u002A*%
X265962501Y-91233249D03*
D16*
X242150001Y-106473249D03*
D17*
X242150001Y-91233249D03*
D16*
X265962501Y-106473249D03*
%TD*%
D10*
%TO.C,SW2\u002C8*%
X179500001Y-98218249D03*
D11*
X190080001Y-98218249D03*
X179920001Y-98218249D03*
D10*
X190500001Y-98218249D03*
D12*
X185000001Y-98218249D03*
D14*
X181869132Y-94925104D03*
D13*
X182500001Y-94218249D03*
D15*
X187500001Y-93418249D03*
%TD*%
D10*
%TO.C,SW3\u002C1*%
X52387501Y-117268249D03*
D11*
X41807501Y-117268249D03*
D12*
X46887501Y-117268249D03*
D10*
X41387501Y-117268249D03*
D11*
X51967501Y-117268249D03*
D14*
X43756632Y-113975104D03*
D13*
X44387501Y-113268249D03*
D15*
X49387501Y-112468249D03*
%TD*%
D12*
%TO.C,SW0\u002C13*%
X275487501Y-60118249D03*
D10*
X269987501Y-60118249D03*
X280987501Y-60118249D03*
D11*
X270407501Y-60118249D03*
X280567501Y-60118249D03*
D13*
X272987501Y-56118249D03*
D14*
X272356632Y-56825104D03*
D15*
X277987501Y-55318249D03*
%TD*%
D11*
%TO.C,SW2\u002C10*%
X218020001Y-98218249D03*
X228180001Y-98218249D03*
D10*
X217600001Y-98218249D03*
D12*
X223100001Y-98218249D03*
D10*
X228600001Y-98218249D03*
D14*
X219969132Y-94925104D03*
D13*
X220600001Y-94218249D03*
D15*
X225600001Y-93418249D03*
%TD*%
D12*
%TO.C,SW3\u002C3*%
X113562501Y-117268249D03*
D11*
X118642501Y-117268249D03*
D10*
X108062501Y-117268249D03*
D11*
X108482501Y-117268249D03*
D10*
X119062501Y-117268249D03*
D14*
X110431632Y-113975104D03*
D13*
X111062501Y-113268249D03*
D15*
X116062501Y-112468249D03*
%TD*%
D12*
%TO.C,SW0\u002C3*%
X75462501Y-60118249D03*
D11*
X70382501Y-60118249D03*
D10*
X80962501Y-60118249D03*
X69962501Y-60118249D03*
D11*
X80542501Y-60118249D03*
D14*
X72331632Y-56825104D03*
D13*
X72962501Y-56118249D03*
D15*
X77962501Y-55318249D03*
%TD*%
D10*
%TO.C,SW1\u002C10*%
X208075001Y-79168249D03*
D11*
X208495001Y-79168249D03*
D10*
X219075001Y-79168249D03*
D11*
X218655001Y-79168249D03*
D12*
X213575001Y-79168249D03*
D13*
X211075001Y-75168249D03*
D14*
X210444132Y-75875104D03*
D15*
X216075001Y-74368249D03*
%TD*%
D11*
%TO.C,SW0\u002C0*%
X13232501Y-60118249D03*
X23392501Y-60118249D03*
D10*
X23812501Y-60118249D03*
X12812501Y-60118249D03*
D12*
X18312501Y-60118249D03*
D14*
X15181632Y-56825104D03*
D13*
X15812501Y-56118249D03*
D15*
X20812501Y-55318249D03*
%TD*%
D11*
%TO.C,SW3\u002C8*%
X184682501Y-117268249D03*
D10*
X184262501Y-117268249D03*
D11*
X194842501Y-117268249D03*
D12*
X189762501Y-117268249D03*
D10*
X195262501Y-117268249D03*
D14*
X186631632Y-113975104D03*
D13*
X187262501Y-113268249D03*
D15*
X192262501Y-112468249D03*
%TD*%
D20*
%TO.C,H0*%
X19800000Y-87500000D03*
%TD*%
D10*
%TO.C,SW1\u002C9*%
X189025001Y-79168249D03*
X200025001Y-79168249D03*
D11*
X189445001Y-79168249D03*
D12*
X194525001Y-79168249D03*
D11*
X199605001Y-79168249D03*
D13*
X192025001Y-75168249D03*
D14*
X191394132Y-75875104D03*
D15*
X197025001Y-74368249D03*
%TD*%
D11*
%TO.C,SW0\u002C13_1*%
X260882501Y-60118249D03*
D12*
X265962501Y-60118249D03*
D11*
X271042501Y-60118249D03*
D10*
X260462501Y-60118249D03*
X271462501Y-60118249D03*
D13*
X263462501Y-56118249D03*
D14*
X262831632Y-56825104D03*
D15*
X268462501Y-55318249D03*
%TD*%
D10*
%TO.C,SW1\u002C7*%
X150925001Y-79168249D03*
D11*
X151345001Y-79168249D03*
D12*
X156425001Y-79168249D03*
D11*
X161505001Y-79168249D03*
D10*
X161925001Y-79168249D03*
D14*
X153294132Y-75875104D03*
D13*
X153925001Y-75168249D03*
D15*
X158925001Y-74368249D03*
%TD*%
D10*
%TO.C,SW1\u002C8*%
X180975001Y-79168249D03*
X169975001Y-79168249D03*
D11*
X180555001Y-79168249D03*
X170395001Y-79168249D03*
D12*
X175475001Y-79168249D03*
D14*
X172344132Y-75875104D03*
D13*
X172975001Y-75168249D03*
D15*
X177975001Y-74368249D03*
%TD*%
D17*
%TO.C,REF\u002A\u002A*%
X94512501Y-124253249D03*
D16*
X132612501Y-109013249D03*
D17*
X132612501Y-124253249D03*
D16*
X94512501Y-109013249D03*
%TD*%
D17*
%TO.C,REF\u002A\u002A*%
X208812501Y-124253249D03*
D16*
X208812501Y-109013249D03*
X94512501Y-109013249D03*
D17*
X94512501Y-124253249D03*
%TD*%
D10*
%TO.C,SW2\u002C12*%
X278606251Y-98218249D03*
D11*
X268026251Y-98218249D03*
D12*
X273106251Y-98218249D03*
D10*
X267606251Y-98218249D03*
D11*
X278186251Y-98218249D03*
D14*
X269975382Y-94925104D03*
D13*
X270606251Y-94218249D03*
D15*
X275606251Y-93418249D03*
%TD*%
D10*
%TO.C,SW3\u002C0*%
X28575001Y-117268249D03*
X17575001Y-117268249D03*
D11*
X17995001Y-117268249D03*
D12*
X23075001Y-117268249D03*
D11*
X28155001Y-117268249D03*
D13*
X20575001Y-113268249D03*
D14*
X19944132Y-113975104D03*
D15*
X25575001Y-112468249D03*
%TD*%
D16*
%TO.C,REF\u002A\u002A*%
X84987501Y-109043249D03*
D17*
X218337501Y-124253249D03*
X84987501Y-124253249D03*
D16*
X218337501Y-109043249D03*
%TD*%
D10*
%TO.C,SW2\u002C9*%
X198550001Y-98218249D03*
D12*
X204050001Y-98218249D03*
D10*
X209550001Y-98218249D03*
D11*
X209130001Y-98218249D03*
X198970001Y-98218249D03*
D14*
X200919132Y-94925104D03*
D13*
X201550001Y-94218249D03*
D15*
X206550001Y-93418249D03*
%TD*%
D22*
%TO.C,D607*%
X74880000Y-65430000D03*
X72980000Y-65430000D03*
X73930000Y-63430000D03*
%TD*%
D23*
%TO.C,D1011*%
X54850000Y-71300000D03*
X54850000Y-69400000D03*
X56850000Y-70350000D03*
%TD*%
%TO.C,D2021*%
X54700000Y-101950000D03*
X54700000Y-100050000D03*
X56700000Y-101000000D03*
%TD*%
D24*
%TO.C,C1*%
X46571751Y-88378249D03*
X45228249Y-89721751D03*
%TD*%
D22*
%TO.C,D110111*%
X149220000Y-70870000D03*
X151120000Y-70870000D03*
X150170000Y-72870000D03*
%TD*%
D25*
%TO.C,SW0*%
X24200000Y-86250000D03*
X30500000Y-86250000D03*
X30500000Y-90050000D03*
X24200000Y-90050000D03*
%TD*%
D22*
%TO.C,D4*%
X149200000Y-108150000D03*
X151100000Y-108150000D03*
X150150000Y-110150000D03*
%TD*%
D26*
%TO.C,C3*%
X48600000Y-62175000D03*
X50500000Y-62175000D03*
%TD*%
D27*
%TO.C,Y0*%
X43423223Y-85371142D03*
X44978858Y-86926777D03*
X43776777Y-88128858D03*
X42221142Y-86573223D03*
%TD*%
D22*
%TO.C,D12013*%
X147430000Y-65320000D03*
X145530000Y-65320000D03*
X146480000Y-63320000D03*
%TD*%
D28*
%TO.C,R4*%
X55350001Y-52018249D03*
X53475001Y-52018249D03*
%TD*%
D29*
%TO.C,F0*%
X49975000Y-55500000D03*
X49975000Y-58300000D03*
%TD*%
D30*
%TO.C,C0*%
X40528249Y-85021751D03*
X41871751Y-83678249D03*
%TD*%
D22*
%TO.C,D2829*%
X155050000Y-103850000D03*
X153150000Y-103850000D03*
X154100000Y-101850000D03*
%TD*%
%TO.C,D2425*%
X63850000Y-101950000D03*
X61950000Y-101950000D03*
X62900000Y-99950000D03*
%TD*%
%TO.C,D1415*%
X76620000Y-70690000D03*
X78520000Y-70690000D03*
X77570000Y-72690000D03*
%TD*%
D31*
%TO.C,C2*%
X41200000Y-63900000D03*
X41200000Y-62000000D03*
%TD*%
D32*
%TO.C,R5*%
X43837087Y-97212913D03*
X45162913Y-95887087D03*
%TD*%
D22*
%TO.C,D2223*%
X67500000Y-101950000D03*
X65600000Y-101950000D03*
X66550000Y-99950000D03*
%TD*%
D26*
%TO.C,C5*%
X48600000Y-66425000D03*
X50500000Y-66425000D03*
%TD*%
D22*
%TO.C,D3233*%
X65600000Y-109050000D03*
X67500000Y-109050000D03*
X66550000Y-111050000D03*
%TD*%
%TO.C,D1819*%
X152830000Y-70870000D03*
X154730000Y-70870000D03*
X153780000Y-72870000D03*
%TD*%
%TO.C,D405*%
X78520000Y-65430000D03*
X76620000Y-65430000D03*
X77570000Y-63430000D03*
%TD*%
D23*
%TO.C,D1*%
X54850000Y-67600000D03*
X54850000Y-65700000D03*
X56850000Y-66650000D03*
%TD*%
D22*
%TO.C,D10011*%
X151110000Y-65320000D03*
X149210000Y-65320000D03*
X150160000Y-63320000D03*
%TD*%
D33*
%TO.C,J0*%
X49777501Y-50811999D03*
X43997501Y-50811999D03*
D34*
X43637501Y-52256999D03*
X44437501Y-52256999D03*
D35*
X45637501Y-52256999D03*
X46637501Y-52256999D03*
X47137501Y-52256999D03*
X48137501Y-52256999D03*
D34*
X49337501Y-52256999D03*
X50137501Y-52256999D03*
X50137501Y-52256999D03*
X49337501Y-52256999D03*
D35*
X48637501Y-52256999D03*
X47637501Y-52256999D03*
X46137501Y-52256999D03*
X45137501Y-52256999D03*
D34*
X44437501Y-52256999D03*
X43637501Y-52256999D03*
D36*
X42567501Y-47161999D03*
X51207501Y-47161999D03*
D37*
X51207501Y-51341999D03*
X42567501Y-51341999D03*
%TD*%
D22*
%TO.C,D2627*%
X60200000Y-101950000D03*
X58300000Y-101950000D03*
X59250000Y-99950000D03*
%TD*%
D38*
%TO.C,U1*%
X39162806Y-88658146D03*
X39728491Y-89223832D03*
X40294177Y-89789517D03*
X40859862Y-90355202D03*
X41425548Y-90920888D03*
X41991233Y-91486573D03*
X42556918Y-92052259D03*
X43122604Y-92617944D03*
D39*
X43122604Y-94668554D03*
X42556918Y-95234239D03*
X41991233Y-95799925D03*
X41425548Y-96365610D03*
X40859862Y-96931296D03*
X40294177Y-97496981D03*
X39728491Y-98062666D03*
X39162806Y-98628352D03*
D38*
X37112196Y-98628352D03*
X36546511Y-98062666D03*
X35980825Y-97496981D03*
X35415140Y-96931296D03*
X34849454Y-96365610D03*
X34283769Y-95799925D03*
X33718084Y-95234239D03*
X33152398Y-94668554D03*
D39*
X33152398Y-92617944D03*
X33718084Y-92052259D03*
X34283769Y-91486573D03*
X34849454Y-90920888D03*
X35415140Y-90355202D03*
X35980825Y-89789517D03*
X36546511Y-89223832D03*
X37112196Y-88658146D03*
%TD*%
D22*
%TO.C,D3*%
X153150000Y-108150000D03*
X155050000Y-108150000D03*
X154100000Y-110150000D03*
%TD*%
D40*
%TO.C,U2*%
X46312500Y-56038249D03*
X46312500Y-56988249D03*
X46312500Y-57938249D03*
X44037500Y-57938249D03*
X44037500Y-56988249D03*
X44037500Y-56038249D03*
%TD*%
D22*
%TO.C,D112113*%
X145520000Y-70870000D03*
X147420000Y-70870000D03*
X146470000Y-72870000D03*
%TD*%
%TO.C,D210211*%
X151110000Y-103850000D03*
X149210000Y-103850000D03*
X150160000Y-101850000D03*
%TD*%
%TO.C,D3031*%
X60050000Y-111050000D03*
X58150000Y-111050000D03*
X59100000Y-109050000D03*
%TD*%
%TO.C,D203*%
X65050000Y-64700000D03*
X66950000Y-64700000D03*
X66000000Y-66700000D03*
%TD*%
D41*
%TO.C,R3*%
X38325001Y-52018249D03*
X40200001Y-52018249D03*
%TD*%
D22*
%TO.C,D212213*%
X147430000Y-103850000D03*
X145530000Y-103850000D03*
X146480000Y-101850000D03*
%TD*%
%TO.C,D809*%
X155050000Y-65310000D03*
X153150000Y-65310000D03*
X154100000Y-63310000D03*
%TD*%
D26*
%TO.C,C4*%
X48600000Y-64325000D03*
X50500000Y-64325000D03*
%TD*%
D28*
%TO.C,R0*%
X48587500Y-68550000D03*
X46712500Y-68550000D03*
%TD*%
%TO.C,R2*%
X45387500Y-62175000D03*
X43512500Y-62175000D03*
%TD*%
D22*
%TO.C,D1213*%
X66950000Y-71550000D03*
X65050000Y-71550000D03*
X66000000Y-69550000D03*
%TD*%
%TO.C,D2*%
X61950000Y-109050000D03*
X63850000Y-109050000D03*
X62900000Y-111050000D03*
%TD*%
D28*
%TO.C,R1*%
X45387500Y-64325000D03*
X43512500Y-64325000D03*
%TD*%
D22*
%TO.C,D1617*%
X73000000Y-70690000D03*
X74900000Y-70690000D03*
X73950000Y-72690000D03*
%TD*%
M02*
