%TF.GenerationSoftware,KiCad,Pcbnew,(6.0.4)*%
%TF.CreationDate,2022-03-30T13:59:28+02:00*%
%TF.ProjectId,32u2,33327532-2e6b-4696-9361-645f70636258,rev?*%
%TF.SameCoordinates,Original*%
%TF.FileFunction,Soldermask,Top*%
%TF.FilePolarity,Negative*%
%FSLAX46Y46*%
G04 Gerber Fmt 4.6, Leading zero omitted, Abs format (unit mm)*
G04 Created by KiCad (PCBNEW (6.0.4)) date 2022-03-30 13:59:28*
%MOMM*%
%LPD*%
G01*
G04 APERTURE LIST*
G04 Aperture macros list*
%AMHorizOval*
0 Thick line with rounded ends*
0 $1 width*
0 $2 $3 position (X,Y) of the first rounded end (center of the circle)*
0 $4 $5 position (X,Y) of the second rounded end (center of the circle)*
0 Add line between two ends*
20,1,$1,$2,$3,$4,$5,0*
0 Add two circle primitives to create the rounded ends*
1,1,$1,$2,$3*
1,1,$1,$4,$5*%
G04 Aperture macros list end*
%ADD10C,1.800000*%
%ADD11C,1.700000*%
%ADD12C,4.900000*%
%ADD13C,2.400000*%
%ADD14HorizOval,2.400000X-0.669131X-0.743145X0.669131X0.743145X0*%
%ADD15O,2.400000X2.950000*%
%ADD16C,3.987800*%
%ADD17C,3.048000*%
%ADD18HorizOval,2.400000X-0.743145X0.669131X0.743145X-0.669131X0*%
%ADD19O,2.950000X2.400000*%
%ADD20C,1.400000*%
%ADD21HorizOval,2.400000X0.669131X0.743145X-0.669131X-0.743145X0*%
%ADD22C,0.650000*%
%ADD23O,1.000000X1.600000*%
%ADD24O,1.000000X2.100000*%
G04 APERTURE END LIST*
D10*
%TO.C,SW1\u002C11*%
X238125001Y-79168249D03*
D11*
X237705001Y-79168249D03*
D10*
X227125001Y-79168249D03*
D11*
X227545001Y-79168249D03*
D12*
X232625001Y-79168249D03*
D13*
X230125001Y-75168249D03*
D14*
X229494132Y-75875104D03*
D15*
X235125001Y-74368249D03*
%TD*%
D16*
%TO.C,REF\u002A\u002A*%
X208812501Y-109013249D03*
D17*
X170712501Y-124253249D03*
X208812501Y-124253249D03*
D16*
X170712501Y-109013249D03*
%TD*%
D10*
%TO.C,SW1\u002C13_1*%
X285012501Y-64143249D03*
D11*
X285012501Y-64563249D03*
D10*
X285012501Y-75143249D03*
D12*
X285012501Y-69643249D03*
D11*
X285012501Y-74723249D03*
D18*
X288305646Y-66512380D03*
D13*
X289012501Y-67143249D03*
D19*
X289812501Y-72143249D03*
%TD*%
D12*
%TO.C,SW0\u002C2*%
X56412501Y-60118249D03*
D11*
X61492501Y-60118249D03*
D10*
X61912501Y-60118249D03*
X50912501Y-60118249D03*
D11*
X51332501Y-60118249D03*
D14*
X53281632Y-56825104D03*
D13*
X53912501Y-56118249D03*
D15*
X58912501Y-55318249D03*
%TD*%
D12*
%TO.C,SW2\u002C3*%
X89750001Y-98218249D03*
D11*
X84670001Y-98218249D03*
X94830001Y-98218249D03*
D10*
X95250001Y-98218249D03*
X84250001Y-98218249D03*
D13*
X87250001Y-94218249D03*
D14*
X86619132Y-94925104D03*
D15*
X92250001Y-93418249D03*
%TD*%
D10*
%TO.C,SW3\u002C6*%
X146162501Y-117268249D03*
D11*
X146582501Y-117268249D03*
X156742501Y-117268249D03*
D10*
X157162501Y-117268249D03*
D12*
X151662501Y-117268249D03*
D14*
X148531632Y-113975104D03*
D13*
X149162501Y-113268249D03*
D15*
X154162501Y-112468249D03*
%TD*%
D11*
%TO.C,SW2\u002C5*%
X132930001Y-98218249D03*
D10*
X122350001Y-98218249D03*
D12*
X127850001Y-98218249D03*
D11*
X122770001Y-98218249D03*
D10*
X133350001Y-98218249D03*
D13*
X125350001Y-94218249D03*
D14*
X124719132Y-94925104D03*
D15*
X130350001Y-93418249D03*
%TD*%
D11*
%TO.C,SW2\u002C7*%
X171030001Y-98218249D03*
D10*
X171450001Y-98218249D03*
D12*
X165950001Y-98218249D03*
D10*
X160450001Y-98218249D03*
D11*
X160870001Y-98218249D03*
D13*
X163450001Y-94218249D03*
D14*
X162819132Y-94925104D03*
D15*
X168450001Y-93418249D03*
%TD*%
D16*
%TO.C,REF\u002A\u002A*%
X293267501Y-81549499D03*
D17*
X278027501Y-81549499D03*
X278027501Y-57736999D03*
D16*
X293267501Y-57736999D03*
%TD*%
D11*
%TO.C,SW1\u002C13*%
X282948751Y-79168249D03*
D10*
X272368751Y-79168249D03*
D12*
X277868751Y-79168249D03*
D11*
X272788751Y-79168249D03*
D10*
X283368751Y-79168249D03*
D13*
X275368751Y-75168249D03*
D14*
X274737882Y-75875104D03*
D15*
X280368751Y-74368249D03*
%TD*%
D12*
%TO.C,SW2\u002C12_1*%
X285012501Y-98218249D03*
D11*
X279932501Y-98218249D03*
D10*
X290512501Y-98218249D03*
D11*
X290092501Y-98218249D03*
D10*
X279512501Y-98218249D03*
D13*
X282512501Y-94218249D03*
D14*
X281881632Y-94925104D03*
D15*
X287512501Y-93418249D03*
%TD*%
D10*
%TO.C,SW0\u002C5*%
X119062501Y-60118249D03*
D11*
X118642501Y-60118249D03*
X108482501Y-60118249D03*
D12*
X113562501Y-60118249D03*
D10*
X108062501Y-60118249D03*
D13*
X111062501Y-56118249D03*
D14*
X110431632Y-56825104D03*
D15*
X116062501Y-55318249D03*
%TD*%
D12*
%TO.C,SW3\u002C10*%
X237387501Y-117268249D03*
D11*
X242467501Y-117268249D03*
X232307501Y-117268249D03*
D10*
X242887501Y-117268249D03*
X231887501Y-117268249D03*
D14*
X234256632Y-113975104D03*
D13*
X234887501Y-113268249D03*
D15*
X239887501Y-112468249D03*
%TD*%
D20*
%TO.C,H2*%
X19800000Y-91400000D03*
%TD*%
D10*
%TO.C,SW3\u002C10_1*%
X227125001Y-117268249D03*
D11*
X227545001Y-117268249D03*
X237705001Y-117268249D03*
D12*
X232625001Y-117268249D03*
D10*
X238125001Y-117268249D03*
D13*
X235125001Y-121268249D03*
D21*
X235755870Y-120561394D03*
D15*
X230125001Y-122068249D03*
%TD*%
D11*
%TO.C,SW1\u002C12*%
X256755001Y-79168249D03*
D10*
X257175001Y-79168249D03*
D11*
X246595001Y-79168249D03*
D12*
X251675001Y-79168249D03*
D10*
X246175001Y-79168249D03*
D13*
X249175001Y-75168249D03*
D14*
X248544132Y-75875104D03*
D15*
X254175001Y-74368249D03*
%TD*%
D12*
%TO.C,SW1\u002C1*%
X42125001Y-79168249D03*
D10*
X47625001Y-79168249D03*
D11*
X37045001Y-79168249D03*
X47205001Y-79168249D03*
D10*
X36625001Y-79168249D03*
D14*
X38994132Y-75875104D03*
D13*
X39625001Y-75168249D03*
D15*
X44625001Y-74368249D03*
%TD*%
D12*
%TO.C,SW0\u002C1*%
X37362501Y-60118249D03*
D10*
X42862501Y-60118249D03*
D11*
X42442501Y-60118249D03*
X32282501Y-60118249D03*
D10*
X31862501Y-60118249D03*
D14*
X34231632Y-56825104D03*
D13*
X34862501Y-56118249D03*
D15*
X39862501Y-55318249D03*
%TD*%
D12*
%TO.C,SW2\u002C4*%
X108800001Y-98218249D03*
D11*
X113880001Y-98218249D03*
X103720001Y-98218249D03*
D10*
X114300001Y-98218249D03*
X103300001Y-98218249D03*
D13*
X106300001Y-94218249D03*
D14*
X105669132Y-94925104D03*
D15*
X111300001Y-93418249D03*
%TD*%
D11*
%TO.C,SW0\u002C11*%
X222782501Y-60118249D03*
X232942501Y-60118249D03*
D12*
X227862501Y-60118249D03*
D10*
X233362501Y-60118249D03*
X222362501Y-60118249D03*
D14*
X224731632Y-56825104D03*
D13*
X225362501Y-56118249D03*
D15*
X230362501Y-55318249D03*
%TD*%
D11*
%TO.C,SW3\u002C2_1*%
X71017501Y-117268249D03*
X60857501Y-117268249D03*
D10*
X71437501Y-117268249D03*
D12*
X65937501Y-117268249D03*
D10*
X60437501Y-117268249D03*
D21*
X69068370Y-120561394D03*
D13*
X68437501Y-121268249D03*
D15*
X63437501Y-122068249D03*
%TD*%
D17*
%TO.C,REF\u002A\u002A*%
X261200001Y-91233249D03*
D16*
X285012501Y-106473249D03*
D17*
X285012501Y-91233249D03*
D16*
X261200001Y-106473249D03*
%TD*%
D12*
%TO.C,SW2\u002C11*%
X242150001Y-98218249D03*
D10*
X247650001Y-98218249D03*
X236650001Y-98218249D03*
D11*
X237070001Y-98218249D03*
X247230001Y-98218249D03*
D14*
X239019132Y-94925104D03*
D13*
X239650001Y-94218249D03*
D15*
X244650001Y-93418249D03*
%TD*%
D10*
%TO.C,SW2\u002C1*%
X57150001Y-98218249D03*
D11*
X56730001Y-98218249D03*
D10*
X46150001Y-98218249D03*
D11*
X46570001Y-98218249D03*
D12*
X51650001Y-98218249D03*
D14*
X48519132Y-94925104D03*
D13*
X49150001Y-94218249D03*
D15*
X54150001Y-93418249D03*
%TD*%
D11*
%TO.C,SW1\u002C2*%
X56095001Y-79168249D03*
D12*
X61175001Y-79168249D03*
D10*
X66675001Y-79168249D03*
X55675001Y-79168249D03*
D11*
X66255001Y-79168249D03*
D13*
X58675001Y-75168249D03*
D14*
X58044132Y-75875104D03*
D15*
X63675001Y-74368249D03*
%TD*%
D20*
%TO.C,H1*%
X19800000Y-83800000D03*
%TD*%
D11*
%TO.C,SW1\u002C4*%
X94195001Y-79168249D03*
D12*
X99275001Y-79168249D03*
D11*
X104355001Y-79168249D03*
D10*
X93775001Y-79168249D03*
X104775001Y-79168249D03*
D13*
X96775001Y-75168249D03*
D14*
X96144132Y-75875104D03*
D15*
X101775001Y-74368249D03*
%TD*%
D10*
%TO.C,SW3\u002C2*%
X76200001Y-117268249D03*
D12*
X70700001Y-117268249D03*
D11*
X65620001Y-117268249D03*
D10*
X65200001Y-117268249D03*
D11*
X75780001Y-117268249D03*
D14*
X67569132Y-113975104D03*
D13*
X68200001Y-113268249D03*
D15*
X73200001Y-112468249D03*
%TD*%
D16*
%TO.C,REF\u002A\u002A*%
X263581251Y-68373249D03*
D17*
X287393751Y-53133249D03*
D16*
X287393751Y-68373249D03*
D17*
X263581251Y-53133249D03*
%TD*%
D11*
%TO.C,SW0\u002C10*%
X213892501Y-60118249D03*
D10*
X203312501Y-60118249D03*
D11*
X203732501Y-60118249D03*
D10*
X214312501Y-60118249D03*
D12*
X208812501Y-60118249D03*
D14*
X205681632Y-56825104D03*
D13*
X206312501Y-56118249D03*
D15*
X211312501Y-55318249D03*
%TD*%
D10*
%TO.C,SW0\u002C6*%
X138112501Y-60118249D03*
X127112501Y-60118249D03*
D12*
X132612501Y-60118249D03*
D11*
X127532501Y-60118249D03*
X137692501Y-60118249D03*
D14*
X129481632Y-56825104D03*
D13*
X130112501Y-56118249D03*
D15*
X135112501Y-55318249D03*
%TD*%
D10*
%TO.C,SW1\u002C3*%
X85725001Y-79168249D03*
D11*
X75145001Y-79168249D03*
X85305001Y-79168249D03*
D12*
X80225001Y-79168249D03*
D10*
X74725001Y-79168249D03*
D14*
X77094132Y-75875104D03*
D13*
X77725001Y-75168249D03*
D15*
X82725001Y-74368249D03*
%TD*%
D10*
%TO.C,SW2\u002C2*%
X76200001Y-98218249D03*
D11*
X75780001Y-98218249D03*
D12*
X70700001Y-98218249D03*
D10*
X65200001Y-98218249D03*
D11*
X65620001Y-98218249D03*
D14*
X67569132Y-94925104D03*
D13*
X68200001Y-94218249D03*
D15*
X73200001Y-93418249D03*
%TD*%
D12*
%TO.C,SW3\u002C11*%
X256437501Y-117268249D03*
D11*
X251357501Y-117268249D03*
D10*
X261937501Y-117268249D03*
X250937501Y-117268249D03*
D11*
X261517501Y-117268249D03*
D14*
X253306632Y-113975104D03*
D13*
X253937501Y-113268249D03*
D15*
X258937501Y-112468249D03*
%TD*%
D12*
%TO.C,SW2\u002C0*%
X25456251Y-98218249D03*
D11*
X30536251Y-98218249D03*
D10*
X19956251Y-98218249D03*
D11*
X20376251Y-98218249D03*
D10*
X30956251Y-98218249D03*
D14*
X22325382Y-94925104D03*
D13*
X22956251Y-94218249D03*
D15*
X27956251Y-93418249D03*
%TD*%
D10*
%TO.C,SW0\u002C9*%
X184262501Y-60118249D03*
X195262501Y-60118249D03*
D11*
X194842501Y-60118249D03*
X184682501Y-60118249D03*
D12*
X189762501Y-60118249D03*
D13*
X187262501Y-56118249D03*
D14*
X186631632Y-56825104D03*
D15*
X192262501Y-55318249D03*
%TD*%
D10*
%TO.C,SW0\u002C4*%
X89012501Y-60118249D03*
D12*
X94512501Y-60118249D03*
D11*
X99592501Y-60118249D03*
D10*
X100012501Y-60118249D03*
D11*
X89432501Y-60118249D03*
D14*
X91381632Y-56825104D03*
D13*
X92012501Y-56118249D03*
D15*
X97012501Y-55318249D03*
%TD*%
D10*
%TO.C,SW3\u002C12*%
X274750001Y-117268249D03*
X285750001Y-117268249D03*
D12*
X280250001Y-117268249D03*
D11*
X275170001Y-117268249D03*
X285330001Y-117268249D03*
D14*
X277119132Y-113975104D03*
D13*
X277750001Y-113268249D03*
D15*
X282750001Y-112468249D03*
%TD*%
D11*
%TO.C,SW2\u002C6*%
X141820001Y-98218249D03*
X151980001Y-98218249D03*
D10*
X141400001Y-98218249D03*
D12*
X146900001Y-98218249D03*
D10*
X152400001Y-98218249D03*
D14*
X143769132Y-94925104D03*
D13*
X144400001Y-94218249D03*
D15*
X149400001Y-93418249D03*
%TD*%
D11*
%TO.C,SW2\u002C13*%
X248976251Y-98218249D03*
D10*
X259556251Y-98218249D03*
D12*
X254056251Y-98218249D03*
D10*
X248556251Y-98218249D03*
D11*
X259136251Y-98218249D03*
D13*
X251556251Y-94218249D03*
D14*
X250925382Y-94925104D03*
D15*
X256556251Y-93418249D03*
%TD*%
D10*
%TO.C,SW1\u002C6*%
X142875001Y-79168249D03*
X131875001Y-79168249D03*
D11*
X132295001Y-79168249D03*
D12*
X137375001Y-79168249D03*
D11*
X142455001Y-79168249D03*
D14*
X134244132Y-75875104D03*
D13*
X134875001Y-75168249D03*
D15*
X139875001Y-74368249D03*
%TD*%
D11*
%TO.C,SW0\u002C12*%
X241832501Y-60118249D03*
X251992501Y-60118249D03*
D10*
X241412501Y-60118249D03*
X252412501Y-60118249D03*
D12*
X246912501Y-60118249D03*
D14*
X243781632Y-56825104D03*
D13*
X244412501Y-56118249D03*
D15*
X249412501Y-55318249D03*
%TD*%
D12*
%TO.C,SW0\u002C8*%
X170712501Y-60118249D03*
D11*
X165632501Y-60118249D03*
D10*
X176212501Y-60118249D03*
D11*
X175792501Y-60118249D03*
D10*
X165212501Y-60118249D03*
D13*
X168212501Y-56118249D03*
D14*
X167581632Y-56825104D03*
D15*
X173212501Y-55318249D03*
%TD*%
D12*
%TO.C,SW1\u002C0*%
X20693751Y-79168249D03*
D10*
X26193751Y-79168249D03*
D11*
X15613751Y-79168249D03*
D10*
X15193751Y-79168249D03*
D11*
X25773751Y-79168249D03*
D13*
X18193751Y-75168249D03*
D14*
X17562882Y-75875104D03*
D15*
X23193751Y-74368249D03*
%TD*%
D11*
%TO.C,SW0.7*%
X156742501Y-60118249D03*
D10*
X146162501Y-60118249D03*
X157162501Y-60118249D03*
D11*
X146582501Y-60118249D03*
D12*
X151662501Y-60118249D03*
D14*
X148531632Y-56825104D03*
D13*
X149162501Y-56118249D03*
D15*
X154162501Y-55318249D03*
%TD*%
D10*
%TO.C,SW1\u002C5*%
X123825001Y-79168249D03*
D12*
X118325001Y-79168249D03*
D11*
X113245001Y-79168249D03*
D10*
X112825001Y-79168249D03*
D11*
X123405001Y-79168249D03*
D14*
X115194132Y-75875104D03*
D13*
X115825001Y-75168249D03*
D15*
X120825001Y-74368249D03*
%TD*%
D17*
%TO.C,REF\u002A\u002A*%
X265962501Y-91233249D03*
D16*
X242150001Y-106473249D03*
D17*
X242150001Y-91233249D03*
D16*
X265962501Y-106473249D03*
%TD*%
D10*
%TO.C,SW2\u002C8*%
X179500001Y-98218249D03*
D11*
X190080001Y-98218249D03*
X179920001Y-98218249D03*
D10*
X190500001Y-98218249D03*
D12*
X185000001Y-98218249D03*
D14*
X181869132Y-94925104D03*
D13*
X182500001Y-94218249D03*
D15*
X187500001Y-93418249D03*
%TD*%
D10*
%TO.C,SW3\u002C1*%
X52387501Y-117268249D03*
D11*
X41807501Y-117268249D03*
D12*
X46887501Y-117268249D03*
D10*
X41387501Y-117268249D03*
D11*
X51967501Y-117268249D03*
D14*
X43756632Y-113975104D03*
D13*
X44387501Y-113268249D03*
D15*
X49387501Y-112468249D03*
%TD*%
D12*
%TO.C,SW0\u002C13*%
X275487501Y-60118249D03*
D10*
X269987501Y-60118249D03*
X280987501Y-60118249D03*
D11*
X270407501Y-60118249D03*
X280567501Y-60118249D03*
D13*
X272987501Y-56118249D03*
D14*
X272356632Y-56825104D03*
D15*
X277987501Y-55318249D03*
%TD*%
D11*
%TO.C,SW2\u002C10*%
X218020001Y-98218249D03*
X228180001Y-98218249D03*
D10*
X217600001Y-98218249D03*
D12*
X223100001Y-98218249D03*
D10*
X228600001Y-98218249D03*
D14*
X219969132Y-94925104D03*
D13*
X220600001Y-94218249D03*
D15*
X225600001Y-93418249D03*
%TD*%
D12*
%TO.C,SW3\u002C3*%
X113562501Y-117268249D03*
D11*
X118642501Y-117268249D03*
D10*
X108062501Y-117268249D03*
D11*
X108482501Y-117268249D03*
D10*
X119062501Y-117268249D03*
D14*
X110431632Y-113975104D03*
D13*
X111062501Y-113268249D03*
D15*
X116062501Y-112468249D03*
%TD*%
D12*
%TO.C,SW0\u002C3*%
X75462501Y-60118249D03*
D11*
X70382501Y-60118249D03*
D10*
X80962501Y-60118249D03*
X69962501Y-60118249D03*
D11*
X80542501Y-60118249D03*
D14*
X72331632Y-56825104D03*
D13*
X72962501Y-56118249D03*
D15*
X77962501Y-55318249D03*
%TD*%
D10*
%TO.C,SW1\u002C10*%
X208075001Y-79168249D03*
D11*
X208495001Y-79168249D03*
D10*
X219075001Y-79168249D03*
D11*
X218655001Y-79168249D03*
D12*
X213575001Y-79168249D03*
D13*
X211075001Y-75168249D03*
D14*
X210444132Y-75875104D03*
D15*
X216075001Y-74368249D03*
%TD*%
D11*
%TO.C,SW0\u002C0*%
X13232501Y-60118249D03*
X23392501Y-60118249D03*
D10*
X23812501Y-60118249D03*
X12812501Y-60118249D03*
D12*
X18312501Y-60118249D03*
D14*
X15181632Y-56825104D03*
D13*
X15812501Y-56118249D03*
D15*
X20812501Y-55318249D03*
%TD*%
D11*
%TO.C,SW3\u002C8*%
X184682501Y-117268249D03*
D10*
X184262501Y-117268249D03*
D11*
X194842501Y-117268249D03*
D12*
X189762501Y-117268249D03*
D10*
X195262501Y-117268249D03*
D14*
X186631632Y-113975104D03*
D13*
X187262501Y-113268249D03*
D15*
X192262501Y-112468249D03*
%TD*%
D20*
%TO.C,H0*%
X19800000Y-87500000D03*
%TD*%
D10*
%TO.C,SW1\u002C9*%
X189025001Y-79168249D03*
X200025001Y-79168249D03*
D11*
X189445001Y-79168249D03*
D12*
X194525001Y-79168249D03*
D11*
X199605001Y-79168249D03*
D13*
X192025001Y-75168249D03*
D14*
X191394132Y-75875104D03*
D15*
X197025001Y-74368249D03*
%TD*%
D11*
%TO.C,SW0\u002C13_1*%
X260882501Y-60118249D03*
D12*
X265962501Y-60118249D03*
D11*
X271042501Y-60118249D03*
D10*
X260462501Y-60118249D03*
X271462501Y-60118249D03*
D13*
X263462501Y-56118249D03*
D14*
X262831632Y-56825104D03*
D15*
X268462501Y-55318249D03*
%TD*%
D10*
%TO.C,SW1\u002C7*%
X150925001Y-79168249D03*
D11*
X151345001Y-79168249D03*
D12*
X156425001Y-79168249D03*
D11*
X161505001Y-79168249D03*
D10*
X161925001Y-79168249D03*
D14*
X153294132Y-75875104D03*
D13*
X153925001Y-75168249D03*
D15*
X158925001Y-74368249D03*
%TD*%
D10*
%TO.C,SW1\u002C8*%
X180975001Y-79168249D03*
X169975001Y-79168249D03*
D11*
X180555001Y-79168249D03*
X170395001Y-79168249D03*
D12*
X175475001Y-79168249D03*
D14*
X172344132Y-75875104D03*
D13*
X172975001Y-75168249D03*
D15*
X177975001Y-74368249D03*
%TD*%
D17*
%TO.C,REF\u002A\u002A*%
X94512501Y-124253249D03*
D16*
X132612501Y-109013249D03*
D17*
X132612501Y-124253249D03*
D16*
X94512501Y-109013249D03*
%TD*%
D17*
%TO.C,REF\u002A\u002A*%
X208812501Y-124253249D03*
D16*
X208812501Y-109013249D03*
X94512501Y-109013249D03*
D17*
X94512501Y-124253249D03*
%TD*%
D10*
%TO.C,SW2\u002C12*%
X278606251Y-98218249D03*
D11*
X268026251Y-98218249D03*
D12*
X273106251Y-98218249D03*
D10*
X267606251Y-98218249D03*
D11*
X278186251Y-98218249D03*
D14*
X269975382Y-94925104D03*
D13*
X270606251Y-94218249D03*
D15*
X275606251Y-93418249D03*
%TD*%
D10*
%TO.C,SW3\u002C0*%
X28575001Y-117268249D03*
X17575001Y-117268249D03*
D11*
X17995001Y-117268249D03*
D12*
X23075001Y-117268249D03*
D11*
X28155001Y-117268249D03*
D13*
X20575001Y-113268249D03*
D14*
X19944132Y-113975104D03*
D15*
X25575001Y-112468249D03*
%TD*%
D16*
%TO.C,REF\u002A\u002A*%
X84987501Y-109043249D03*
D17*
X218337501Y-124253249D03*
X84987501Y-124253249D03*
D16*
X218337501Y-109043249D03*
%TD*%
D10*
%TO.C,SW2\u002C9*%
X198550001Y-98218249D03*
D12*
X204050001Y-98218249D03*
D10*
X209550001Y-98218249D03*
D11*
X209130001Y-98218249D03*
X198970001Y-98218249D03*
D14*
X200919132Y-94925104D03*
D13*
X201550001Y-94218249D03*
D15*
X206550001Y-93418249D03*
%TD*%
D22*
%TO.C,J0*%
X49777501Y-50811999D03*
X43997501Y-50811999D03*
D23*
X42567501Y-47161999D03*
X51207501Y-47161999D03*
D24*
X51207501Y-51341999D03*
X42567501Y-51341999D03*
%TD*%
M02*
